{"glyphs":{"0":{"ha":920,"x_min":47,"x_max":873,"o":"m 583 477 q 578 620 583 555 q 559 731 573 684 q 521 804 545 778 q 460 829 497 829 q 365 743 393 829 q 337 477 337 656 q 343 321 337 389 q 365 207 350 253 q 402 137 379 161 q 460 113 426 113 q 520 140 496 113 q 558 215 544 167 q 577 330 572 263 q 583 477 583 397 m 460 -15 q 278 21 356 -15 q 150 121 201 56 q 73 277 98 186 q 47 477 47 368 q 74 679 47 589 q 152 830 100 768 q 280 925 203 892 q 460 958 357 958 q 641 924 564 958 q 770 828 719 890 q 847 677 821 766 q 873 477 873 588 q 846 273 873 364 q 767 118 819 182 q 637 20 715 54 q 460 -15 560 -15 z "},"1":{"ha":679,"x_min":58,"x_max":610,"o":"m 344 949 q 392 948 368 949 q 436 940 416 947 q 467 919 455 933 q 479 878 479 904 l 479 176 q 480 141 479 157 q 483 113 481 126 l 610 113 l 610 -7 q 468 -2 534 -4 q 343 0 401 0 q 211 -2 281 0 q 58 -7 140 -4 l 58 113 l 184 113 q 189 176 189 132 l 189 788 q 188 817 189 804 q 186 840 187 830 l 71 840 l 71 918 q 207 941 140 933 q 344 949 274 949 z "},"2":{"ha":884,"x_min":52,"x_max":821,"o":"m 522 705 q 497 806 522 768 q 422 844 473 844 q 371 829 396 844 q 323 787 345 814 q 281 722 300 760 q 250 637 262 684 l 58 762 q 87 840 58 804 q 167 902 117 876 q 286 943 218 928 q 433 958 354 958 q 578 942 512 958 q 693 893 645 926 q 767 807 741 860 q 793 680 793 754 q 772 579 793 632 q 700 465 751 526 q 561 332 648 404 q 342 175 474 260 l 522 175 q 558 175 543 175 q 585 175 574 175 q 605 175 596 175 q 624 174 614 174 q 660 238 641 201 q 699 323 678 275 l 821 312 q 817 142 819 216 q 811 8 814 67 q 571 0 730 0 l 142 0 q 100 4 117 0 q 72 18 83 8 q 57 43 61 27 q 52 83 52 60 q 54 125 52 102 q 161 223 111 178 q 254 309 210 269 q 337 387 298 350 q 412 460 376 425 q 454 506 434 482 q 490 559 475 530 q 513 624 505 588 q 522 705 522 660 z "},"3":{"ha":846,"x_min":39,"x_max":782,"o":"m 39 777 q 100 857 66 823 q 177 913 134 891 q 274 947 220 936 q 395 958 328 958 q 533 943 469 958 q 646 900 598 929 q 721 826 694 870 q 749 720 749 781 q 732 640 749 674 q 687 581 716 606 q 620 541 659 557 q 535 516 581 526 q 635 487 590 509 q 713 432 681 466 q 764 353 746 398 q 782 252 782 307 q 754 138 782 189 q 676 51 727 87 q 555 -3 626 16 q 397 -22 484 -22 q 65 54 224 -22 l 65 292 l 207 279 q 270 142 228 184 q 368 100 311 100 q 470 142 435 100 q 505 258 505 184 q 318 433 505 433 l 216 433 l 222 542 l 300 548 q 380 567 340 551 q 452 607 420 583 q 504 663 484 632 q 524 729 524 694 q 514 772 524 753 q 487 804 504 791 q 446 823 469 817 q 395 829 422 829 q 337 819 366 829 q 283 788 308 808 q 240 736 259 767 q 210 664 220 705 l 39 777 z "},"4":{"ha":869,"x_min":18,"x_max":842,"o":"m 394 353 l 394 728 l 143 353 l 394 353 m 547 0 q 421 -2 491 0 q 264 -7 351 -4 l 264 113 l 390 113 q 394 176 394 132 l 394 237 l 79 237 q 34 328 49 288 q 18 405 18 368 l 385 941 q 403 941 393 941 q 429 941 413 941 q 470 941 445 941 q 536 941 496 941 l 575 941 q 611 939 594 941 q 642 930 629 937 q 662 910 654 923 q 669 874 669 897 l 669 353 l 842 353 l 842 294 q 821 251 842 264 q 758 237 799 237 l 669 237 l 669 176 q 670 141 669 157 q 673 113 671 126 l 800 113 l 800 -7 q 664 -2 727 -4 q 547 0 602 0 z "},"5":{"ha":840,"x_min":62,"x_max":766,"o":"m 517 798 q 427 800 473 798 q 334 807 381 802 l 334 585 q 481 612 414 612 q 599 590 547 612 q 689 527 652 567 q 746 433 726 487 q 766 317 766 379 q 734 167 766 230 q 648 64 702 104 q 522 4 593 24 q 372 -15 451 -15 q 300 -11 338 -15 q 222 3 262 -6 q 142 25 182 12 q 62 56 101 39 l 62 296 l 208 283 q 218 215 212 250 q 233 138 224 179 q 343 113 297 113 q 486 304 486 113 q 481 372 486 340 q 464 426 476 403 q 431 463 452 450 q 379 476 410 476 q 224 421 318 476 q 207 426 216 423 q 180 432 197 429 q 139 441 163 436 q 79 454 115 446 l 79 888 q 154 930 110 918 q 265 941 198 941 q 321 941 300 941 q 359 941 342 941 q 393 941 376 941 q 437 941 410 941 q 550 946 486 941 q 696 964 614 952 l 701 859 q 671 830 688 842 q 632 811 654 819 q 581 801 610 804 q 517 798 553 798 z "},"6":{"ha":876,"x_min":62,"x_max":827,"o":"m 447 -15 q 275 13 347 -15 q 155 96 202 41 q 85 232 108 151 q 62 420 62 313 q 171 820 62 682 q 497 958 280 958 q 579 954 539 958 q 655 944 619 951 q 720 928 690 938 q 770 905 749 918 l 770 653 l 613 653 l 591 820 q 529 827 555 825 q 488 829 504 829 q 432 817 454 829 q 396 783 410 804 q 376 734 383 762 q 364 677 369 707 q 356 616 359 648 q 349 544 352 583 q 535 587 444 587 q 659 566 604 587 q 750 505 713 544 q 808 410 788 465 q 827 287 827 354 q 800 165 827 220 q 722 69 772 109 q 602 7 672 29 q 447 -15 532 -15 m 350 412 q 350 360 350 379 q 350 330 350 341 q 351 315 351 319 q 351 307 351 311 q 357 222 351 260 q 377 157 364 184 q 410 115 391 130 q 454 100 429 100 q 520 147 494 100 q 545 286 545 194 q 543 349 545 319 q 533 403 541 380 q 510 441 525 427 q 469 458 494 456 q 415 445 446 458 q 350 412 385 431 z "},"7":{"ha":864,"x_min":61,"x_max":818,"o":"m 61 914 q 277 941 190 941 l 800 941 q 818 879 818 927 l 818 820 l 531 125 q 500 68 517 93 q 461 27 484 43 q 409 1 438 10 q 342 -7 379 -7 q 255 2 288 -7 q 204 38 222 12 q 205 42 204 39 l 212 54 l 578 812 l 329 812 q 295 811 314 812 q 252 808 276 810 q 248 763 248 776 l 243 631 l 98 631 l 61 914 z "},"8":{"ha":843,"x_min":41,"x_max":801,"o":"m 770 709 q 730 594 770 649 q 605 483 690 539 q 677 446 642 469 q 740 394 712 424 q 784 329 767 365 q 801 254 801 294 q 771 132 801 182 q 688 48 741 81 q 565 0 635 16 q 414 -15 494 -15 q 269 0 337 -15 q 151 46 201 16 q 71 122 100 77 q 41 226 41 167 q 85 364 41 300 q 227 479 130 429 q 161 519 192 498 q 106 569 130 541 q 69 631 83 596 q 55 711 55 666 q 81 809 55 764 q 154 887 106 854 q 267 939 201 920 q 414 958 333 958 q 554 941 489 958 q 667 892 619 924 q 743 814 715 860 q 770 709 770 768 m 414 113 q 493 148 466 113 q 519 240 519 182 q 484 353 519 310 q 389 412 448 397 q 315 245 315 361 q 340 150 315 186 q 414 113 366 113 m 436 547 q 498 703 498 585 q 493 754 498 730 q 477 794 488 777 q 451 821 467 811 q 414 830 435 830 q 377 821 393 830 q 351 794 361 811 q 336 754 341 778 q 331 703 331 731 q 436 547 331 591 z "},"9":{"ha":876,"x_min":49,"x_max":814,"o":"m 429 958 q 602 929 529 958 q 721 846 674 901 q 791 710 768 791 q 814 522 814 629 q 710 123 814 260 q 399 -15 607 -15 q 312 -12 355 -15 q 231 -2 269 -9 q 163 14 193 5 q 113 37 133 24 l 113 290 l 270 290 l 292 129 q 389 113 352 113 q 463 140 437 113 q 502 208 489 166 q 518 300 514 250 q 528 399 523 351 q 341 355 432 355 q 218 377 272 355 q 126 438 163 399 q 68 533 88 477 q 49 656 49 589 q 76 778 49 722 q 154 873 104 833 q 274 936 204 913 q 429 958 345 958 m 526 511 q 527 548 526 533 q 527 568 527 563 q 523 679 527 630 q 508 761 519 728 q 476 812 497 794 q 422 829 456 829 q 356 786 382 829 q 331 657 331 743 q 333 594 331 625 q 342 539 335 564 q 365 500 350 515 q 407 485 380 485 q 526 511 441 485 z "},"\u0001":{"ha":0,"x_min":0,"x_max":0,"o":""},"\u0002":{"ha":0,"x_min":0,"x_max":0,"o":""},"\u0003":{"ha":0,"x_min":0,"x_max":0,"o":""},"\u0004":{"ha":0,"x_min":0,"x_max":0,"o":""},"\u0005":{"ha":0,"x_min":0,"x_max":0,"o":""},"\u0006":{"ha":0,"x_min":0,"x_max":0,"o":""},"\u0007":{"ha":0,"x_min":0,"x_max":0,"o":""},"\b":{"ha":0,"x_min":0,"x_max":0,"o":""},"\t":{"ha":0,"x_min":0,"x_max":0,"o":""},"\u0010":{"ha":0,"x_min":0,"x_max":0,"o":""},"\u0011":{"ha":0,"x_min":0,"x_max":0,"o":""},"\u0012":{"ha":0,"x_min":0,"x_max":0,"o":""},"\u0013":{"ha":0,"x_min":0,"x_max":0,"o":""},"\u0014":{"ha":0,"x_min":0,"x_max":0,"o":""},"\u0015":{"ha":0,"x_min":0,"x_max":0,"o":""},"\u0016":{"ha":0,"x_min":0,"x_max":0,"o":""},"\u0017":{"ha":0,"x_min":0,"x_max":0,"o":""},"\u0018":{"ha":0,"x_min":0,"x_max":0,"o":""},"\u0019":{"ha":0,"x_min":0,"x_max":0,"o":""}," ":{"ha":361,"x_min":0,"x_max":0,"o":""},"!":{"ha":593,"x_min":140,"x_max":448,"o":"m 302 958 q 358 956 332 958 q 404 947 385 955 q 436 924 424 940 q 448 879 448 908 q 448 869 448 874 q 447 858 448 863 q 405 527 422 661 q 379 319 388 393 q 351 308 368 312 q 320 304 335 304 q 271 306 290 304 q 239 315 251 308 q 220 335 227 322 q 212 371 214 349 q 188 562 201 477 q 164 708 175 646 q 147 813 154 770 q 140 880 140 856 q 159 925 140 909 q 202 948 177 941 q 256 956 228 955 q 302 958 283 958 m 441 115 q 432 61 441 85 q 405 20 422 37 q 361 -6 387 3 q 306 -15 336 -15 q 250 -6 275 -15 q 207 20 225 3 q 180 61 189 37 q 170 115 170 85 q 180 167 170 143 q 209 207 191 191 q 252 233 227 224 q 306 242 277 242 q 360 232 335 242 q 403 205 385 222 q 431 165 421 189 q 441 115 441 142 z "},"\"":{"ha":721,"x_min":93,"x_max":628,"o":"m 396 929 q 519 957 442 957 q 562 955 543 957 q 596 947 582 953 q 620 932 611 942 q 628 906 628 922 q 603 687 612 762 q 594 604 595 612 q 512 590 553 590 q 426 649 436 590 l 396 929 m 93 929 q 216 957 139 957 q 259 955 239 957 q 293 947 279 953 q 316 932 308 942 q 325 906 325 922 q 300 687 309 762 q 291 604 292 612 q 209 590 250 590 q 123 649 133 590 l 93 929 z "},"#":{"ha":806,"x_min":39,"x_max":767,"o":"m 718 346 q 710 312 718 322 q 683 297 703 301 l 557 297 l 507 49 l 466 49 q 421 57 435 49 q 408 87 408 65 q 408 98 408 92 q 411 113 409 104 l 448 297 l 283 297 l 231 49 l 184 49 q 143 54 155 49 q 131 78 131 60 q 132 90 132 81 q 136 113 133 98 l 174 297 l 39 297 l 39 338 q 41 368 39 356 q 49 386 43 379 q 65 396 55 393 q 94 399 76 399 l 193 399 l 228 566 l 88 566 l 88 619 q 100 659 88 649 q 144 668 112 668 l 250 668 l 300 912 l 342 912 q 387 904 372 912 q 401 874 401 897 q 400 858 401 867 q 395 835 398 848 l 360 668 l 524 668 l 576 912 l 616 912 q 661 904 646 912 q 675 874 675 897 q 668 829 675 859 l 633 668 l 767 668 l 767 628 q 766 600 767 612 q 760 581 765 589 q 744 569 755 573 q 712 566 732 566 l 614 566 l 578 399 l 718 399 l 718 346 m 303 399 l 469 399 l 504 566 l 338 566 l 303 399 z "},"$":{"ha":933,"x_min":68,"x_max":863,"o":"m 439 1040 q 493 1030 477 1040 q 509 989 509 1019 l 509 958 q 612 951 563 958 q 703 934 662 945 q 774 907 743 923 q 821 870 804 890 q 822 867 822 869 q 820 851 822 863 q 813 819 818 840 q 800 765 808 798 q 779 685 792 732 l 574 734 q 541 784 557 760 q 509 819 525 808 l 509 571 q 579 543 547 555 q 642 516 612 530 q 701 485 671 502 q 762 446 730 469 q 800 414 781 431 q 832 376 818 397 q 855 329 846 355 q 863 270 863 303 q 838 159 863 209 q 767 72 813 109 q 655 13 721 35 q 509 -14 590 -9 l 509 -126 q 474 -123 488 -126 q 452 -114 460 -121 q 442 -93 445 -106 q 439 -58 439 -80 l 439 -14 q 99 88 239 -9 q 80 103 88 96 q 68 118 73 111 q 73 163 68 143 l 132 316 l 338 235 q 386 150 362 178 q 439 110 410 121 l 439 398 q 399 417 420 408 q 357 435 378 427 q 315 453 336 444 q 276 471 294 462 q 205 510 239 488 q 144 560 171 532 q 102 623 118 588 q 85 700 85 657 q 111 799 85 754 q 182 876 136 843 q 294 929 229 909 q 439 955 359 949 l 439 1040 m 439 839 q 411 824 423 835 q 392 798 399 813 q 380 764 384 783 q 376 725 376 745 q 439 604 376 646 l 439 839 m 509 111 q 553 157 538 123 q 568 232 568 191 q 509 357 568 309 l 509 111 z "},"%":{"ha":1143,"x_min":47,"x_max":1096,"o":"m 343 -23 l 239 36 l 814 977 l 918 917 l 343 -23 m 266 526 q 309 539 292 526 q 335 577 326 553 q 347 632 344 600 q 351 699 351 663 q 330 832 351 791 q 266 873 309 873 q 221 859 238 873 q 195 822 204 846 q 182 767 185 799 q 178 699 178 736 q 182 631 178 663 q 195 576 185 600 q 221 539 204 553 q 266 526 238 526 m 483 699 q 468 594 483 642 q 426 513 454 547 q 359 460 399 479 q 269 441 319 441 q 170 461 212 441 q 101 516 128 481 q 61 598 74 551 q 47 701 47 646 q 61 807 47 760 q 103 888 75 854 q 171 940 130 922 q 266 958 212 958 q 359 939 319 958 q 428 886 400 920 q 469 805 455 852 q 483 699 483 757 m 792 243 q 795 175 792 207 q 807 120 798 144 q 834 83 817 97 q 882 70 852 70 q 926 86 910 70 q 951 129 943 103 q 961 185 959 155 q 964 243 964 215 q 960 312 964 280 q 947 367 957 344 q 921 404 938 391 q 878 418 905 418 q 834 404 850 418 q 808 367 817 391 q 795 312 799 344 q 792 243 792 280 m 878 -16 q 783 3 824 -16 q 714 57 742 22 q 671 138 686 91 q 657 243 657 186 q 671 350 657 302 q 713 431 685 397 q 782 484 741 465 q 878 502 823 502 q 973 483 932 502 q 1041 430 1014 465 q 1082 348 1069 396 q 1096 243 1096 300 q 1081 137 1096 184 q 1038 55 1066 89 q 970 3 1010 21 q 878 -16 929 -16 z "},"&":{"ha":1112,"x_min":65,"x_max":1028,"o":"m 359 724 q 390 606 359 644 q 493 568 421 568 l 1028 568 l 1028 344 l 943 344 q 935 392 943 370 q 911 429 926 414 q 875 453 896 444 q 827 461 854 461 l 827 333 q 739 70 827 155 q 469 -15 650 -15 q 309 -3 383 -15 q 181 40 235 9 q 96 123 127 71 q 65 256 65 176 q 114 410 65 345 q 266 513 163 475 q 90 715 90 567 q 202 897 90 837 q 535 958 314 958 q 816 923 647 958 l 816 682 l 646 682 q 594 805 632 762 q 494 849 555 849 q 440 839 465 849 q 397 812 416 829 q 369 773 379 795 q 359 724 359 750 m 339 254 q 481 92 339 92 q 524 104 506 92 q 553 135 541 115 q 571 180 564 155 q 580 233 577 205 q 584 288 583 260 q 585 340 585 316 l 585 461 l 468 461 q 416 448 439 461 q 375 409 392 435 q 349 344 358 382 q 339 254 339 305 z "},"'":{"ha":418,"x_min":93,"x_max":325,"o":"m 93 929 q 216 957 139 957 q 259 955 239 957 q 293 947 279 953 q 316 932 308 942 q 325 906 325 922 q 300 687 309 762 q 291 604 292 612 q 209 590 250 590 q 123 649 133 590 l 93 929 z "},"(":{"ha":522,"x_min":79,"x_max":477,"o":"m 349 433 q 477 -96 349 114 q 422 -115 453 -109 q 364 -125 392 -122 q 300 -131 332 -130 q 200 -19 242 -81 q 132 115 159 43 q 92 267 105 187 q 79 433 79 347 q 92 598 79 519 q 132 750 105 678 q 200 884 159 822 q 300 996 242 946 q 364 991 332 995 q 422 980 392 987 q 477 962 453 973 q 349 433 349 751 z "},")":{"ha":522,"x_min":44,"x_max":442,"o":"m 173 433 q 44 962 173 751 q 99 980 68 973 q 157 991 130 987 q 222 996 190 995 q 321 884 279 946 q 389 750 362 822 q 429 598 416 678 q 442 433 442 519 q 429 267 442 347 q 389 115 416 187 q 321 -19 362 43 q 222 -131 279 -81 q 157 -125 190 -130 q 99 -115 130 -122 q 44 -96 68 -109 q 173 433 173 114 z "},"*":{"ha":617,"x_min":49,"x_max":568,"o":"m 195 477 l 266 674 l 84 583 l 49 688 l 250 732 l 75 861 l 156 937 l 290 772 l 311 977 l 425 956 l 352 764 l 535 849 l 568 752 l 371 706 l 542 565 l 452 493 l 327 666 l 309 448 l 195 477 z "},"+":{"ha":846,"x_min":90,"x_max":755,"o":"m 381 724 q 465 713 435 724 q 505 671 496 702 l 505 455 l 755 455 l 755 394 q 749 363 753 376 q 734 343 745 351 q 708 331 724 335 q 665 328 691 328 l 505 328 l 505 58 l 431 58 q 402 59 417 58 q 374 63 387 60 q 352 75 361 67 q 340 98 343 83 q 339 113 340 105 q 339 131 339 121 l 339 328 l 90 328 l 90 389 q 99 427 90 413 q 122 447 107 440 q 158 454 138 453 q 202 455 178 455 l 339 455 l 339 724 l 381 724 z "},",":{"ha":477,"x_min":62,"x_max":380,"o":"m 230 243 q 342 199 304 243 q 380 80 380 156 q 364 -13 380 31 q 316 -98 348 -57 q 237 -177 284 -138 q 126 -255 189 -216 l 62 -192 q 178 -10 141 -117 q 107 32 134 -1 q 80 115 80 64 q 92 168 80 144 q 125 209 104 192 q 173 234 146 225 q 230 243 200 243 z "},"-":{"ha":579,"x_min":35,"x_max":545,"o":"m 545 387 q 531 339 545 359 q 493 319 518 319 l 35 319 l 35 381 q 38 410 35 399 q 51 427 42 421 q 73 436 60 433 q 107 438 87 438 l 545 438 l 545 387 z "},".":{"ha":466,"x_min":97,"x_max":368,"o":"m 368 115 q 359 61 368 85 q 331 20 349 37 q 288 -6 313 3 q 233 -15 263 -15 q 177 -6 202 -15 q 134 20 152 3 q 106 61 116 37 q 97 115 97 85 q 107 167 97 143 q 136 207 117 191 q 179 233 154 224 q 233 242 203 242 q 287 232 262 242 q 330 205 312 222 q 358 165 348 189 q 368 115 368 142 z "},"/":{"ha":614,"x_min":0,"x_max":614,"o":"m 424 903 q 434 923 429 913 q 448 941 439 933 q 468 953 456 948 q 497 958 479 958 l 614 958 l 187 33 q 160 -3 176 8 q 116 -15 144 -15 l 0 -15 l 424 903 z "},":":{"ha":469,"x_min":97,"x_max":372,"o":"m 372 554 q 362 500 372 524 q 335 459 353 476 q 292 434 317 443 q 236 425 267 425 q 180 434 205 425 q 137 459 155 443 q 110 500 119 476 q 100 554 100 524 q 111 606 100 583 q 139 647 121 630 q 182 672 157 663 q 236 682 207 682 q 290 672 265 682 q 333 645 315 662 q 361 605 351 628 q 372 554 372 581 m 368 115 q 359 61 368 85 q 331 20 349 37 q 288 -6 313 3 q 233 -15 263 -15 q 177 -6 202 -15 q 134 20 152 3 q 106 61 116 37 q 97 115 97 85 q 107 167 97 143 q 136 207 117 191 q 179 233 154 224 q 233 242 203 242 q 287 232 262 242 q 330 205 312 222 q 358 165 348 189 q 368 115 368 142 z "},";":{"ha":464,"x_min":62,"x_max":380,"o":"m 360 554 q 351 500 360 524 q 323 459 341 476 q 280 434 305 443 q 224 425 255 425 q 169 434 194 425 q 126 459 144 443 q 98 500 108 476 q 89 554 89 524 q 99 606 89 583 q 127 647 109 630 q 171 672 146 663 q 224 682 195 682 q 279 672 254 682 q 322 645 304 662 q 350 605 340 628 q 360 554 360 581 m 230 192 q 342 149 304 192 q 380 29 380 105 q 364 -65 380 -21 q 316 -150 348 -109 q 236 -229 283 -191 q 126 -306 189 -267 l 62 -243 q 178 -61 141 -168 q 107 -19 134 -52 q 80 64 80 14 q 92 117 80 94 q 125 158 104 141 q 173 183 146 174 q 230 192 200 192 z "},"<":{"ha":1021,"x_min":90,"x_max":931,"o":"m 90 405 q 327 510 224 465 q 507 590 429 556 q 638 649 584 625 q 728 689 692 673 q 786 714 765 705 q 820 729 808 724 q 837 735 832 734 q 846 739 842 737 q 918 673 913 686 l 931 627 l 369 369 q 538 291 465 325 q 669 232 612 258 q 766 188 725 206 q 838 155 807 169 q 890 131 868 141 q 930 113 912 121 l 919 68 q 899 45 916 61 q 844 0 881 28 q 820 8 833 3 q 779 24 806 13 q 705 57 752 36 q 577 114 657 78 q 379 204 498 150 q 90 336 260 258 l 90 405 z "},"=":{"ha":957,"x_min":87,"x_max":869,"o":"m 869 518 q 863 494 869 504 q 845 476 856 484 q 818 462 833 468 q 786 451 803 456 l 87 451 l 87 512 q 95 547 87 534 q 116 567 102 559 q 147 576 129 574 q 186 578 165 578 l 869 578 l 869 518 m 87 204 l 87 264 q 94 301 87 288 q 114 321 100 315 q 153 329 129 328 q 213 331 177 331 l 869 331 l 869 271 q 849 233 869 248 q 783 204 828 218 l 87 204 z "},">":{"ha":1021,"x_min":90,"x_max":931,"o":"m 931 336 q 706 233 804 277 q 533 154 608 188 q 406 97 459 121 q 317 57 353 73 q 257 31 280 41 q 219 15 233 21 q 195 6 204 9 q 177 0 186 3 q 123 45 140 28 q 102 68 105 61 l 91 113 q 131 131 109 121 q 184 155 153 141 q 255 188 214 169 q 353 232 296 206 q 483 291 409 258 q 652 369 556 325 l 90 627 l 103 673 q 176 739 109 686 q 184 735 179 737 q 201 729 189 734 q 235 714 214 724 q 293 689 256 705 q 384 649 330 673 q 515 590 437 625 q 695 510 592 556 q 931 405 798 465 l 931 336 z "},"?":{"ha":767,"x_min":66,"x_max":650,"o":"m 432 244 l 322 244 q 285 269 304 254 q 249 302 265 283 q 221 342 232 321 q 210 386 210 363 q 218 431 210 410 q 241 471 227 452 q 275 511 256 491 q 319 552 295 530 q 359 593 342 573 q 387 634 376 614 q 404 676 398 654 q 410 724 410 699 q 384 803 410 776 q 321 830 359 830 q 267 826 295 830 q 203 812 238 821 l 203 720 l 66 720 l 66 905 q 155 931 109 919 q 242 949 195 941 q 335 958 290 958 q 461 942 404 958 q 561 896 519 926 q 626 821 603 865 q 650 718 650 776 q 636 644 650 677 q 598 581 622 611 q 541 522 574 551 q 471 462 509 493 q 451 442 459 452 q 437 420 442 432 q 430 391 432 408 q 427 350 427 374 q 428 297 427 327 q 432 244 429 268 m 366 194 q 413 184 393 194 q 448 158 434 174 q 470 121 463 142 q 477 80 477 101 q 471 42 477 60 q 451 10 465 24 q 418 -13 438 -4 q 369 -21 397 -21 q 316 -12 338 -21 q 280 12 294 -3 q 259 46 266 27 q 252 85 252 66 q 259 125 252 106 q 281 160 267 144 q 316 184 295 175 q 366 194 338 194 z "},"@":{"ha":1208,"x_min":71,"x_max":1154,"o":"m 655 -26 q 993 73 831 -26 l 1029 7 q 845 -81 942 -49 q 645 -113 747 -113 q 484 -93 559 -113 q 344 -39 408 -74 q 230 45 280 -4 q 143 153 179 94 q 89 282 108 213 q 71 425 71 351 q 241 829 71 669 q 652 985 409 985 q 857 950 764 985 q 1016 853 949 916 q 1118 704 1082 791 q 1154 515 1154 618 q 1131 369 1154 436 q 1068 252 1107 301 q 978 174 1029 202 q 874 146 928 146 q 779 174 817 146 q 723 250 742 203 q 649 175 692 204 q 547 146 605 146 q 467 161 503 146 q 408 204 432 176 q 370 272 383 233 q 357 360 357 312 q 370 472 357 420 q 406 566 383 524 q 459 641 429 608 q 525 695 490 673 q 599 729 560 718 q 675 741 637 741 q 739 725 711 741 q 787 675 768 709 l 831 715 q 877 707 857 713 q 909 692 897 702 q 891 629 900 665 q 875 557 883 593 q 860 488 867 522 q 848 429 853 454 q 834 366 840 396 q 828 304 828 335 q 842 251 828 269 q 888 234 856 234 q 947 255 917 234 q 1001 314 977 276 q 1040 404 1025 351 q 1056 518 1056 456 q 1026 668 1056 599 q 943 787 996 736 q 814 866 889 838 q 651 895 740 895 q 477 860 558 895 q 337 764 397 826 q 244 614 278 701 q 210 420 210 526 q 243 240 210 322 q 336 100 277 159 q 476 7 395 41 q 655 -26 558 -26 m 761 604 q 738 645 755 629 q 692 660 721 660 q 623 636 655 660 q 560 565 591 612 q 517 474 535 526 q 500 360 500 421 q 506 312 500 334 q 522 273 511 290 q 549 247 533 256 q 586 237 566 237 q 635 251 614 237 q 671 286 656 264 q 695 331 686 307 q 711 378 705 356 q 741 493 728 437 q 761 604 753 549 z "},"A":{"ha":1132,"x_min":5,"x_max":1132,"o":"m 894 0 q 837 -1 871 0 q 758 -3 804 -2 l 649 -7 l 649 77 q 673 79 662 79 q 693 82 685 80 q 707 89 702 84 q 711 102 711 93 q 711 109 711 106 q 709 117 710 113 l 661 264 l 433 264 l 406 174 q 399 143 401 157 q 397 117 397 129 q 402 101 397 107 q 416 91 408 95 q 437 84 425 87 q 463 80 449 82 l 446 -7 q 357 -2 408 -4 q 237 0 305 0 q 98 -2 155 0 q 5 -7 40 -4 l 31 83 l 48 85 q 85 95 71 89 q 110 110 100 100 q 126 134 119 119 q 141 170 133 149 q 226 394 186 289 q 304 593 267 498 q 375 773 341 687 q 442 941 410 859 l 566 941 q 624 939 597 941 q 672 930 651 937 q 708 913 694 924 q 730 882 723 901 q 823 634 783 742 q 892 445 863 526 q 943 307 922 364 q 979 212 964 250 q 1001 152 993 174 q 1013 119 1009 130 q 1018 104 1017 108 q 1019 100 1019 101 l 1114 87 l 1132 -7 q 963 -2 1022 -4 q 894 0 905 0 m 543 682 l 454 368 l 633 368 q 614 433 625 395 q 592 514 604 471 q 568 600 581 557 q 545 682 556 644 l 543 682 z "},"B":{"ha":1027,"x_min":39,"x_max":977,"o":"m 785 477 q 977 259 977 424 q 959 159 977 201 q 909 87 941 117 q 834 39 878 58 q 739 11 791 21 q 629 -3 687 1 q 512 -7 572 -7 q 48 7 244 -7 l 48 113 l 144 113 q 164 119 157 113 q 175 136 172 125 q 180 160 179 146 q 180 189 180 174 l 180 741 q 176 812 180 786 l 39 812 l 39 925 q 287 937 161 932 q 548 941 412 941 q 955 682 955 941 q 944 623 955 652 q 912 567 933 593 q 859 517 890 540 q 785 477 827 494 m 499 413 q 483 413 490 413 q 471 412 475 412 l 471 113 q 515 111 495 112 q 552 110 535 110 q 650 147 618 110 q 682 254 682 184 q 671 328 682 298 q 637 377 660 359 q 581 405 615 396 q 499 413 546 413 m 505 524 q 622 563 581 524 q 662 678 662 602 q 628 787 662 752 q 519 821 593 821 q 498 821 506 821 q 485 821 490 821 q 476 821 479 821 q 471 821 473 821 l 471 524 l 505 524 z "},"C":{"ha":1032,"x_min":77,"x_max":977,"o":"m 609 107 q 710 115 663 107 q 799 138 757 123 q 880 170 841 152 q 960 209 920 189 l 977 76 q 591 -24 806 -24 q 376 8 472 -24 q 214 100 281 39 q 112 248 148 161 q 77 448 77 336 q 113 667 77 572 q 217 827 149 762 q 383 924 285 891 q 606 958 481 958 q 700 952 653 958 q 793 936 747 947 q 882 907 839 924 q 962 867 924 890 l 947 680 l 724 680 l 705 726 q 690 763 699 743 q 669 800 682 783 q 641 828 657 817 q 604 840 625 840 q 441 748 498 840 q 384 475 384 656 q 440 202 384 298 q 609 107 496 107 z "},"D":{"ha":1160,"x_min":39,"x_max":1084,"o":"m 556 941 q 784 912 686 941 q 949 826 883 884 q 1050 677 1016 768 q 1084 463 1084 587 q 1044 252 1084 339 q 933 108 1005 164 q 761 26 861 52 q 538 0 661 0 l 44 0 l 44 102 l 173 102 q 174 110 173 102 q 175 129 174 117 q 176 156 176 140 q 177 189 177 172 l 177 741 q 171 818 177 787 l 39 818 l 39 926 q 556 941 269 941 m 778 467 q 768 613 778 548 q 731 725 758 679 q 656 796 704 771 q 532 821 608 821 q 526 821 530 821 q 515 821 522 821 q 497 821 508 821 q 468 821 486 821 l 468 116 q 480 115 474 115 q 491 115 486 115 q 630 140 575 115 q 719 210 686 164 q 765 321 751 256 q 778 467 778 386 z "},"E":{"ha":992,"x_min":39,"x_max":948,"o":"m 39 924 q 503 941 290 941 q 649 941 588 941 q 753 941 711 941 q 822 941 795 941 q 865 941 849 941 q 890 941 882 941 q 906 941 899 941 l 943 723 l 792 704 q 782 756 789 731 q 764 804 775 781 q 621 816 679 816 l 473 816 l 473 527 l 591 527 q 611 536 604 527 q 624 560 619 546 q 631 589 628 574 q 637 618 633 605 l 739 618 l 739 323 q 720 322 730 322 q 701 322 711 322 l 637 322 q 626 370 631 351 q 615 400 621 389 q 604 416 610 412 q 591 420 598 420 l 473 420 l 473 113 l 663 113 q 745 122 719 113 q 755 166 750 136 q 767 245 760 196 q 854 243 810 243 q 948 243 897 243 q 945 125 947 184 q 939 9 943 67 q 665 -1 779 -1 q 512 -1 581 -1 q 386 -1 444 -1 q 281 -1 329 -1 q 192 0 233 -1 q 113 0 150 0 q 39 1 75 1 l 39 113 l 179 113 q 181 138 180 125 q 182 166 182 151 l 182 753 q 181 789 182 773 q 179 816 180 804 l 39 816 l 39 924 z "},"F":{"ha":882,"x_min":39,"x_max":921,"o":"m 39 926 q 250 937 152 933 q 438 941 349 941 q 462 941 449 941 q 497 941 475 941 q 550 941 518 941 q 629 941 581 941 q 742 940 676 941 q 897 940 808 940 l 921 709 l 770 697 q 761 740 766 714 q 745 809 755 766 q 703 814 721 812 q 673 816 685 816 l 453 816 l 453 527 l 589 527 q 610 536 602 527 q 622 560 618 546 q 629 589 627 574 q 635 618 632 605 l 738 618 l 738 323 q 727 322 733 323 q 711 322 722 322 q 682 322 700 322 q 635 322 665 322 q 624 370 629 351 q 614 400 619 389 q 603 416 608 412 q 589 420 597 420 l 453 420 l 453 176 q 454 141 453 157 q 456 113 455 126 l 564 113 l 564 -7 q 433 -2 494 -4 q 317 0 372 0 q 188 -2 257 0 q 39 -7 119 -4 l 39 113 l 158 113 q 162 176 162 132 l 162 753 q 161 790 162 774 q 159 816 160 806 l 39 816 l 39 926 z "},"G":{"ha":1042,"x_min":77,"x_max":1004,"o":"m 609 120 q 716 133 673 120 l 716 275 q 711 338 716 320 l 567 338 l 567 423 q 769 442 669 436 q 974 448 869 448 l 1004 448 l 1004 92 q 608 -15 836 -15 q 388 16 486 -15 q 221 105 290 46 q 114 251 152 164 q 77 449 77 337 q 118 676 77 580 q 234 834 159 772 q 416 927 309 897 q 654 958 522 958 q 748 951 699 958 q 842 933 797 945 q 925 906 887 922 q 987 871 963 890 l 970 630 l 800 630 q 780 718 794 679 q 742 785 766 758 q 687 827 719 812 q 615 842 655 842 q 442 747 501 842 q 383 463 383 652 q 397 326 383 389 q 439 217 411 263 q 509 146 467 172 q 609 120 552 120 z "},"H":{"ha":1202,"x_min":39,"x_max":1164,"o":"m 319 0 q 190 -2 259 0 q 41 -7 121 -4 l 41 113 l 160 113 q 164 176 164 132 l 164 762 q 161 798 163 783 q 159 824 160 814 l 39 824 l 39 934 q 173 945 110 941 q 296 949 236 949 q 446 946 379 949 q 564 938 512 943 l 564 824 l 456 824 q 454 800 455 813 q 453 772 453 787 l 453 546 l 749 546 l 749 762 l 743 824 l 637 824 l 637 934 q 771 945 708 941 q 894 949 834 949 q 1044 946 977 949 q 1162 938 1110 943 l 1162 824 l 1041 824 q 1039 797 1040 812 q 1038 762 1038 781 l 1038 176 q 1040 142 1039 157 q 1043 113 1042 126 l 1164 113 l 1164 -7 q 1025 -2 1090 -4 q 903 0 961 0 q 780 -2 846 0 q 639 -7 715 -4 l 639 113 l 745 113 q 749 176 749 132 l 749 422 l 455 422 l 455 176 q 456 141 455 157 q 458 113 457 126 l 566 113 l 566 -7 q 435 -2 496 -4 q 319 0 374 0 z "},"I":{"ha":629,"x_min":39,"x_max":591,"o":"m 323 0 q 191 -2 262 0 q 39 -7 121 -4 l 39 113 l 165 113 q 169 176 169 132 l 169 762 q 168 798 169 783 q 165 824 167 814 l 39 824 l 39 934 q 178 945 113 941 q 302 949 243 949 q 463 946 392 949 q 591 938 534 943 l 591 824 l 463 824 q 461 797 462 812 q 460 762 460 781 l 460 176 q 461 141 460 157 q 463 113 462 126 l 591 113 l 591 -7 q 448 -2 515 -4 q 323 0 381 0 z "},"J":{"ha":691,"x_min":14,"x_max":691,"o":"m 564 825 q 562 800 562 815 q 561 762 561 784 l 561 146 q 478 -101 561 -15 q 238 -187 395 -187 q 14 -150 100 -187 q 16 -105 14 -137 q 23 -20 18 -73 l 33 97 l 198 97 l 208 -63 q 242 -71 226 -71 q 313 1 313 -71 q 309 47 313 22 q 300 88 304 72 l 276 170 q 269 212 269 193 l 269 762 q 268 799 269 783 q 266 825 267 814 l 139 825 l 139 935 q 278 946 213 942 q 403 949 343 949 q 563 947 492 949 q 691 939 634 944 l 691 825 l 564 825 z "},"K":{"ha":1227,"x_min":39,"x_max":1227,"o":"m 1042 0 q 872 -2 962 0 q 682 -7 783 -4 l 675 113 l 727 113 q 722 127 724 121 q 716 140 720 133 q 709 155 713 146 q 696 176 705 163 l 481 494 l 739 762 q 777 801 762 785 q 797 824 791 817 l 670 824 l 664 934 q 813 945 744 941 q 943 949 883 949 q 1097 946 1030 949 q 1213 938 1164 943 l 1161 824 l 1034 824 q 1010 802 1026 817 q 968 762 994 786 l 768 564 l 1062 176 q 1070 166 1065 171 q 1081 154 1074 161 q 1097 137 1087 146 q 1120 113 1106 127 l 1194 113 l 1227 -7 q 1116 -2 1161 -4 q 1042 0 1070 0 m 323 0 q 191 -2 262 0 q 39 -7 121 -4 l 39 113 l 165 113 q 169 176 169 132 l 169 762 q 168 798 169 783 q 165 824 167 814 l 39 824 l 39 934 q 178 945 113 941 q 302 949 243 949 q 463 946 392 949 q 591 938 534 943 l 591 824 l 463 824 q 461 797 462 812 q 460 762 460 781 l 460 176 q 461 141 460 157 q 463 113 462 126 l 591 113 l 591 -7 q 448 -2 515 -4 q 323 0 381 0 z "},"L":{"ha":948,"x_min":39,"x_max":903,"o":"m 465 824 q 460 766 460 804 l 460 113 l 615 113 q 655 122 640 113 q 682 145 671 132 q 698 175 692 159 q 708 205 704 191 q 724 256 715 229 q 743 319 732 283 l 903 298 l 874 0 l 589 0 q 257 -1 384 0 q 83 -8 130 -3 l 83 113 l 166 113 q 168 171 168 144 q 169 221 169 197 l 169 766 q 168 799 169 784 q 165 824 167 813 l 39 824 l 39 934 q 178 945 113 941 q 302 949 243 949 q 463 946 392 949 q 591 938 534 943 l 591 824 l 465 824 z "},"M":{"ha":1518,"x_min":39,"x_max":1479,"o":"m 1097 949 q 1243 946 1167 949 q 1400 937 1318 943 l 1400 824 l 1270 824 q 1275 760 1272 799 q 1283 674 1279 722 q 1293 573 1288 627 q 1303 467 1298 520 q 1313 363 1308 414 q 1322 271 1318 313 q 1330 198 1326 229 q 1334 154 1333 168 q 1337 131 1335 140 q 1341 113 1339 121 l 1467 113 l 1479 -11 q 1350 -3 1417 -5 q 1206 0 1282 0 q 1078 -2 1138 0 q 960 -7 1017 -4 l 968 113 l 1046 113 q 1038 211 1046 113 q 1010 513 1029 309 q 922 207 960 334 q 861 1 885 81 l 611 1 q 525 245 570 119 q 431 515 479 372 q 415 369 422 440 q 401 240 408 298 q 389 113 394 173 l 516 113 l 504 -7 q 384 -2 436 -4 q 290 0 331 0 q 169 -3 231 0 q 39 -11 106 -5 l 51 113 l 176 113 l 248 781 q 249 788 249 784 q 249 795 249 791 q 248 811 249 804 q 247 824 248 819 l 109 824 l 109 937 q 266 946 191 943 q 412 949 342 949 q 499 945 460 949 q 570 933 538 941 q 593 863 578 906 q 625 767 608 819 q 662 659 643 715 q 699 552 681 604 q 731 458 716 500 q 753 391 745 416 l 869 731 q 917 872 900 823 q 939 933 935 922 q 1097 949 1002 949 z "},"N":{"ha":1190,"x_min":39,"x_max":1151,"o":"m 293 0 q 178 -2 241 0 q 39 -9 115 -4 l 39 113 l 178 113 q 182 176 182 130 l 182 762 q 181 797 182 781 q 179 824 180 812 l 39 824 l 39 929 q 176 944 106 939 q 319 949 245 949 q 390 945 354 949 q 464 934 425 941 q 624 693 536 824 q 820 404 712 562 l 820 762 q 814 825 820 808 l 676 825 l 676 937 q 903 949 754 949 q 1031 947 970 949 q 1151 940 1092 945 l 1151 825 l 1027 825 q 1025 800 1026 816 q 1024 763 1024 785 l 1024 0 l 866 0 q 811 2 840 0 q 747 7 782 4 l 408 536 l 408 178 q 409 162 408 172 q 410 142 410 152 q 412 124 411 133 q 412 113 412 116 l 547 113 l 547 -9 q 406 -2 469 -4 q 293 0 342 0 z "},"O":{"ha":1144,"x_min":77,"x_max":1067,"o":"m 383 465 q 430 204 383 294 q 572 113 477 113 q 712 200 663 113 q 762 467 762 288 q 713 739 762 648 q 572 829 664 829 q 433 739 483 829 q 383 465 383 649 m 1067 467 q 1033 263 1067 353 q 934 112 998 174 q 778 18 869 50 q 572 -15 686 -15 q 364 19 456 -15 q 208 115 272 52 q 111 266 144 177 q 77 467 77 355 q 111 675 77 584 q 209 829 145 766 q 365 925 273 892 q 572 958 457 958 q 781 924 689 958 q 937 826 873 890 q 1034 672 1000 763 q 1067 467 1067 581 z "},"P":{"ha":980,"x_min":39,"x_max":938,"o":"m 511 949 q 681 937 603 949 q 816 892 759 924 q 906 804 873 861 q 938 661 938 748 q 836 448 938 524 q 529 372 734 372 l 476 372 q 476 289 476 323 q 476 233 476 255 q 476 198 476 210 q 475 180 475 186 q 475 172 475 174 q 475 170 475 170 q 476 154 475 163 q 477 137 477 145 q 479 122 478 129 q 479 113 479 115 l 614 113 l 614 -9 q 453 -2 524 -4 q 327 0 382 0 q 198 -2 269 0 q 39 -9 127 -4 l 39 113 l 178 113 q 181 136 180 121 q 183 176 183 152 l 183 765 q 182 800 183 785 q 180 824 181 814 l 41 824 l 41 935 q 259 945 142 942 q 511 949 375 949 m 642 656 q 633 732 642 700 q 606 784 625 764 q 556 814 587 804 q 484 824 526 824 l 475 824 l 475 488 l 490 488 q 607 530 571 488 q 642 656 642 572 z "},"Q":{"ha":1184,"x_min":77,"x_max":1107,"o":"m 1107 -105 q 779 -168 928 -168 q 663 -157 715 -168 q 565 -123 610 -145 q 482 -69 520 -101 q 409 5 444 -37 q 269 65 331 25 q 165 164 208 106 q 99 299 122 223 q 77 467 77 376 q 111 675 77 584 q 209 829 145 766 q 365 925 273 892 q 572 958 457 958 q 781 924 689 958 q 937 826 873 890 q 1034 672 1000 763 q 1067 467 1067 581 q 1046 301 1067 376 q 983 169 1024 227 q 882 70 941 111 q 749 8 823 30 q 854 -26 792 -26 q 1075 3 968 -26 l 1107 -105 m 383 465 q 430 204 383 294 q 572 113 477 113 q 712 200 663 113 q 762 467 762 288 q 713 739 762 648 q 572 829 664 829 q 433 739 483 829 q 383 465 383 649 z "},"R":{"ha":1072,"x_min":39,"x_max":1065,"o":"m 336 0 q 211 -2 278 0 q 64 -7 144 -4 l 64 113 l 177 113 q 181 176 181 132 l 181 764 q 180 800 181 785 q 178 824 179 814 l 39 824 l 39 937 q 267 946 154 943 q 496 949 380 949 q 609 945 553 949 q 715 930 665 941 q 808 900 765 920 q 881 850 850 881 q 930 776 912 820 q 947 672 947 732 q 892 539 947 598 q 726 441 837 480 q 819 387 783 416 q 878 321 854 358 q 918 237 902 284 q 951 131 934 191 l 1065 131 l 1065 -1 q 980 -9 1023 -4 q 893 -14 938 -14 q 793 4 835 -14 q 723 49 752 21 q 675 113 694 77 q 643 187 656 149 q 620 261 630 224 q 598 325 610 297 q 571 371 586 353 q 532 388 555 388 l 474 388 l 474 176 q 475 141 474 157 q 477 113 476 126 l 571 113 l 571 -7 q 447 -2 505 -4 q 336 0 389 0 m 509 501 q 652 667 652 501 q 643 739 652 709 q 615 788 634 769 q 566 815 596 806 q 494 824 536 824 l 474 824 l 474 501 l 509 501 z "},"S":{"ha":906,"x_min":41,"x_max":837,"o":"m 432 841 q 396 832 412 841 q 371 808 381 823 q 355 771 360 792 q 350 725 350 749 q 359 670 350 693 q 387 628 368 646 q 434 594 406 610 q 500 564 463 579 q 574 533 536 549 q 651 497 613 517 q 722 454 688 477 q 781 404 755 431 q 822 342 807 376 q 837 270 837 309 q 809 154 837 207 q 730 64 782 102 q 606 6 679 26 q 442 -15 533 -15 q 73 88 220 -15 q 48 110 55 100 q 41 132 41 119 q 42 146 41 138 q 46 163 43 153 l 106 316 l 311 235 q 376 133 342 163 q 448 103 409 103 q 489 114 471 103 q 518 142 507 124 q 536 183 530 160 q 542 232 542 206 q 528 302 542 273 q 488 352 514 331 q 427 391 463 374 q 347 427 391 408 q 220 489 274 458 q 131 552 166 519 q 77 621 95 585 q 59 700 59 657 q 88 806 59 759 q 172 887 117 854 q 306 939 227 921 q 482 958 384 958 q 587 952 536 958 q 678 936 637 947 q 750 909 720 925 q 795 870 780 892 l 753 685 l 547 734 q 491 812 519 783 q 432 841 463 841 z "},"T":{"ha":981,"x_min":14,"x_max":967,"o":"m 498 0 q 366 -2 437 0 q 214 -7 296 -4 l 214 113 l 340 113 q 344 176 344 132 l 344 816 l 171 816 q 157 686 159 726 l 20 686 q 19 735 20 701 q 17 807 18 769 q 15 879 16 845 q 14 928 14 913 q 83 939 34 936 q 202 941 132 941 l 779 941 q 898 939 848 941 q 967 928 947 936 q 967 899 967 918 q 966 856 966 880 q 964 807 965 833 q 962 758 963 781 q 961 715 962 734 q 961 686 961 696 l 824 686 q 823 692 824 686 q 822 707 823 698 q 820 728 821 716 q 817 752 819 740 l 810 817 l 637 817 l 637 176 q 638 141 637 157 q 640 113 639 126 l 768 113 l 768 -7 q 625 -2 692 -4 q 498 0 558 0 z "},"U":{"ha":1164,"x_min":22,"x_max":1142,"o":"m 1015 824 q 1012 797 1013 812 q 1011 762 1011 781 l 1011 349 q 976 183 1011 252 q 882 70 941 114 q 743 5 822 26 q 576 -15 664 -15 q 258 85 364 -15 q 153 392 153 185 l 153 762 q 152 798 153 783 q 149 824 151 814 l 22 824 l 22 941 q 302 949 178 949 q 395 948 356 949 q 464 946 435 947 q 515 944 494 945 q 556 941 537 943 l 556 824 l 449 824 q 445 792 446 807 q 444 762 444 777 l 444 346 q 454 250 444 293 q 483 176 464 207 q 530 130 502 146 q 595 113 559 113 q 672 135 642 113 q 719 195 702 157 q 743 283 736 233 q 749 391 749 334 l 749 762 q 748 798 749 783 q 746 824 747 814 l 646 824 l 646 941 q 894 949 762 949 q 981 948 943 949 q 1048 946 1019 947 q 1100 944 1077 945 q 1142 941 1122 943 l 1142 824 l 1015 824 z "},"V":{"ha":1184,"x_min":0,"x_max":1184,"o":"m 0 941 q 62 944 31 943 q 128 946 93 945 q 204 948 163 947 q 295 949 245 949 q 499 941 410 949 l 530 824 l 443 824 q 456 788 450 803 q 465 765 461 774 l 626 307 l 766 762 q 782 824 774 789 l 695 824 l 726 941 q 765 944 745 943 q 813 946 786 945 q 874 948 840 947 q 954 949 908 949 q 1184 941 1058 949 l 1168 824 l 1048 824 q 1038 803 1044 819 q 1023 762 1031 787 q 877 346 952 538 q 722 -7 802 153 l 591 -7 q 490 4 528 -7 q 440 50 453 15 l 168 762 q 152 798 159 784 q 136 824 145 812 l 16 824 l 0 941 z "},"W":{"ha":1667,"x_min":0,"x_max":1667,"o":"m 0 941 q 59 944 29 943 q 122 946 89 945 q 195 948 156 947 q 281 949 233 949 q 398 947 345 949 q 499 941 452 945 l 530 824 l 443 824 l 465 765 l 599 307 l 711 753 q 720 799 716 774 q 726 844 724 825 l 731 893 q 734 921 732 909 q 736 941 735 932 l 876 941 q 918 933 900 941 q 949 911 936 925 q 972 879 963 898 q 989 838 982 860 l 1149 307 q 1206 526 1180 424 q 1228 614 1217 569 q 1249 699 1239 659 q 1266 771 1259 739 q 1278 824 1274 804 l 1178 824 l 1208 941 q 1249 944 1227 943 q 1298 946 1271 945 q 1361 948 1326 947 q 1443 949 1396 949 q 1667 941 1545 949 l 1651 824 l 1529 824 l 1520 793 q 1457 586 1491 694 q 1387 371 1423 477 q 1315 167 1351 264 q 1245 -7 1278 69 l 1054 -7 q 991 5 1013 -7 q 964 50 970 18 l 824 472 q 755 202 787 320 q 694 -7 723 84 l 510 -7 q 444 5 467 -7 q 413 50 420 18 l 168 762 q 154 798 160 785 q 144 814 147 810 l 136 824 l 16 824 l 0 941 z "},"X":{"ha":1177,"x_min":14,"x_max":1164,"o":"m 782 805 q 762 824 782 824 l 675 824 l 705 941 q 797 947 746 945 q 922 949 847 949 q 987 948 957 949 q 1046 946 1018 947 q 1102 944 1075 945 q 1157 941 1129 943 l 1141 824 l 1050 824 q 1016 804 1035 819 q 972 753 998 788 l 766 466 l 998 208 q 1025 176 1013 193 q 1051 145 1038 159 q 1078 122 1064 131 q 1109 113 1093 113 l 1147 113 l 1164 -7 q 1022 -2 1088 -4 q 900 0 957 0 q 792 -2 857 0 q 637 -7 727 -4 l 614 113 l 687 113 q 701 125 701 113 q 679 168 701 140 l 531 356 l 412 172 q 395 130 395 146 q 416 113 395 113 l 503 113 l 472 -7 q 350 -2 406 -4 q 243 0 293 0 q 143 -2 200 0 q 14 -7 85 -4 l 30 113 l 106 113 q 142 132 124 115 q 184 180 160 150 l 410 461 l 164 772 q 122 813 141 802 q 82 824 103 824 l 30 824 l 14 941 q 74 944 43 943 q 141 946 106 945 q 217 948 177 947 q 306 949 258 949 q 385 948 350 949 q 449 946 420 947 q 501 944 477 945 q 547 941 525 943 l 564 824 l 511 824 q 496 812 496 824 q 519 765 496 796 l 653 571 l 766 762 q 778 787 774 777 q 782 805 782 798 z "},"Y":{"ha":1069,"x_min":0,"x_max":1069,"o":"m 399 100 q 402 121 401 109 q 403 147 403 132 l 403 334 l 147 762 q 132 789 138 777 q 122 809 126 801 q 113 820 117 817 q 102 824 109 824 l 16 824 l 0 941 q 248 949 133 949 l 319 949 q 513 941 429 949 l 523 824 l 436 824 q 451 782 446 797 q 458 765 456 768 l 599 510 l 718 762 q 727 788 724 773 q 733 824 730 802 l 627 824 l 651 941 q 846 949 735 949 l 896 949 q 1069 941 976 949 l 1053 824 l 953 824 q 941 803 948 818 q 922 762 934 787 q 916 752 920 760 q 903 728 912 745 q 878 682 894 711 q 838 608 862 653 q 778 498 813 562 q 696 348 743 435 l 696 162 q 697 128 696 144 q 700 100 699 113 l 827 100 l 827 -7 q 685 -2 751 -4 q 558 0 618 0 q 426 -2 496 0 q 273 -7 355 -4 l 273 100 l 399 100 z "},"Z":{"ha":961,"x_min":58,"x_max":900,"o":"m 58 931 q 301 938 202 936 q 460 941 400 941 l 823 941 q 878 925 859 941 q 897 890 897 910 l 897 804 l 390 122 l 558 122 q 688 132 621 122 q 714 334 714 246 q 768 332 737 334 q 827 329 799 331 q 892 324 859 326 q 896 225 894 272 q 897 185 897 205 q 899 146 898 165 q 900 113 899 128 q 900 88 900 98 q 898 64 900 87 q 893 1 897 41 q 620 0 736 0 q 421 0 504 0 q 284 0 338 0 q 198 0 231 0 q 150 1 165 1 q 127 1 134 1 q 99 7 109 1 q 83 24 89 14 q 77 47 78 35 q 75 70 75 59 l 75 149 l 572 812 l 444 812 q 384 808 420 812 q 296 795 347 804 q 293 774 294 789 q 291 734 292 759 l 291 656 l 85 656 l 58 931 z "},"[":{"ha":571,"x_min":139,"x_max":519,"o":"m 382 1000 q 475 994 454 1000 q 519 939 519 981 l 519 899 l 391 899 l 391 -39 l 519 -39 l 519 -85 q 509 -117 519 -106 q 483 -134 498 -128 q 454 -140 469 -139 q 433 -141 440 -141 l 139 -141 l 139 1000 l 382 1000 z "},"\\":{"ha":703,"x_min":0,"x_max":703,"o":"m 703 -15 l 526 -15 q 427 33 444 -15 l 0 958 l 178 958 q 245 945 222 958 q 280 899 269 932 l 703 -15 z "},"]":{"ha":571,"x_min":52,"x_max":432,"o":"m 180 -39 l 180 899 l 52 899 l 52 1001 l 432 1001 l 432 -141 l 52 -141 l 52 -39 l 180 -39 z "},"^":{"ha":867,"x_min":64,"x_max":802,"o":"m 530 942 l 779 499 q 802 441 802 459 q 786 416 802 426 q 752 403 770 406 l 604 369 l 433 698 l 262 369 l 124 401 q 101 407 112 404 q 82 414 90 410 q 69 425 74 418 q 64 441 64 431 q 86 499 64 459 l 336 942 l 530 942 z "},"_":{"ha":745,"x_min":-7,"x_max":752,"o":"m 752 -146 q 745 -171 752 -161 q 725 -188 738 -180 q 696 -199 713 -195 q 661 -208 680 -204 l -7 -208 l -7 -152 q 3 -119 -7 -131 q 27 -101 13 -107 q 60 -93 42 -95 q 94 -92 78 -92 l 752 -92 l 752 -146 z "},"`":{"ha":802,"x_min":225,"x_max":578,"o":"m 419 754 l 225 1005 l 477 1005 l 578 754 l 419 754 z "},"a":{"ha":907,"x_min":62,"x_max":863,"o":"m 453 315 q 371 281 400 315 q 341 191 341 247 q 358 116 341 138 q 398 94 374 94 q 473 130 431 94 l 473 315 l 453 315 m 863 22 q 580 -7 733 -7 q 534 30 554 11 q 498 69 513 50 q 305 -15 418 -15 q 206 -2 251 -15 q 130 36 161 11 q 80 99 98 62 q 62 186 62 137 q 161 343 62 290 q 460 395 259 395 l 473 395 l 473 418 q 466 542 473 503 q 438 580 458 580 q 349 539 399 580 q 243 428 298 499 l 80 532 q 110 594 80 566 q 188 641 140 621 q 295 671 236 661 q 412 682 354 682 q 559 668 494 682 q 667 622 623 654 q 734 537 711 590 q 758 408 758 485 q 757 363 758 389 q 757 306 757 338 l 757 186 q 758 131 757 153 q 760 100 759 110 q 782 99 771 100 q 806 99 793 99 l 863 99 l 863 22 z "},"b":{"ha":972,"x_min":24,"x_max":907,"o":"m 538 567 q 425 535 495 567 l 425 95 q 444 94 435 94 q 462 94 452 94 l 510 94 q 587 156 559 94 q 614 342 614 218 q 538 567 614 567 m 425 635 q 608 682 521 682 q 740 653 684 682 q 833 577 796 624 q 888 469 870 530 q 907 345 907 409 q 874 189 907 256 q 788 79 842 123 q 665 14 734 35 q 519 -7 595 -7 q 117 13 374 -7 l 117 54 q 141 224 141 103 l 141 848 l 24 848 l 24 925 q 295 958 157 958 l 336 958 q 381 955 364 958 q 409 943 399 951 q 422 920 418 935 q 425 880 425 905 l 425 635 z "},"c":{"ha":814,"x_min":65,"x_max":764,"o":"m 486 100 q 558 105 525 100 q 623 120 591 110 q 684 144 654 130 q 747 180 714 159 l 758 71 q 471 -15 642 -15 q 305 8 380 -15 q 177 75 230 31 q 94 183 123 119 q 65 330 65 248 q 100 489 65 422 q 193 598 135 555 q 325 661 250 641 q 480 682 400 682 q 764 591 659 682 l 752 457 l 568 457 q 515 542 538 517 q 468 567 491 567 q 423 553 444 567 q 387 512 402 539 q 363 444 372 485 q 354 350 354 404 q 387 164 354 229 q 486 100 420 100 z "},"d":{"ha":968,"x_min":64,"x_max":949,"o":"m 431 925 q 702 958 564 958 l 743 958 q 788 955 771 958 q 815 943 806 951 q 829 920 825 935 q 832 880 832 905 l 832 165 q 836 100 832 119 l 949 100 l 949 24 q 713 -7 823 -7 q 658 -4 681 -7 q 618 8 635 -1 q 590 33 601 18 q 570 71 578 47 q 374 -15 498 -15 q 247 12 304 -15 q 149 84 190 39 q 86 191 109 130 q 64 321 64 252 q 85 470 64 404 q 148 584 107 536 q 248 656 189 631 q 381 682 307 682 q 548 650 460 682 l 548 848 l 431 848 l 431 925 m 454 100 q 551 153 511 100 l 551 544 q 457 567 492 567 q 404 543 423 567 q 374 482 384 518 q 361 404 363 446 q 358 328 358 363 q 454 100 358 100 z "},"e":{"ha":851,"x_min":65,"x_max":793,"o":"m 528 400 l 528 412 q 522 476 528 447 q 507 527 517 506 q 481 561 496 549 q 447 573 466 573 q 355 400 372 573 l 528 400 m 557 115 q 747 166 642 115 l 759 64 q 471 -15 648 -15 q 303 8 378 -15 q 175 77 228 32 q 94 188 122 122 q 65 338 65 254 q 94 477 65 414 q 177 585 123 540 q 306 656 231 631 q 474 682 381 682 q 602 663 544 682 q 703 611 661 645 q 769 528 745 577 q 793 417 793 479 q 784 357 793 380 q 757 321 776 334 q 708 304 738 309 q 636 300 679 300 l 356 300 q 421 164 372 214 q 557 115 471 115 z "},"f":{"ha":612,"x_min":26,"x_max":717,"o":"m 302 0 q 195 -2 252 0 q 73 -7 138 -4 l 77 82 l 93 84 q 131 91 117 87 q 153 101 145 94 q 163 120 161 109 q 165 152 165 132 l 165 559 l 26 559 l 26 609 q 36 640 26 629 q 61 657 46 652 q 93 665 75 663 q 126 667 111 667 l 165 667 l 165 710 q 506 958 165 958 q 616 946 564 958 q 717 915 668 935 l 717 763 l 558 763 q 551 785 555 775 q 545 804 548 795 l 536 830 q 530 850 530 848 q 499 849 513 850 q 475 839 486 847 q 459 816 465 831 q 452 773 453 800 l 452 667 l 625 667 l 625 617 q 599 572 625 586 q 532 559 573 559 l 450 559 l 450 176 q 452 131 450 147 q 465 105 455 115 q 495 91 475 96 q 549 81 515 86 l 556 -7 l 446 -3 q 361 -1 397 -2 q 302 0 326 -1 z "},"g":{"ha":794,"x_min":50,"x_max":787,"o":"m 389 674 q 545 649 478 674 l 787 663 l 787 552 l 651 552 q 676 517 665 534 q 695 486 688 501 q 706 453 702 470 q 709 417 709 437 q 689 326 709 367 q 629 257 669 286 q 527 213 588 229 q 385 198 466 198 q 323 201 354 198 q 262 209 293 203 q 252 155 252 191 q 266 122 252 132 q 309 113 280 113 l 568 113 q 650 103 613 113 q 715 71 688 92 q 757 18 742 50 q 772 -57 772 -14 q 755 -150 772 -111 q 711 -218 739 -190 q 643 -263 682 -245 q 558 -291 604 -281 q 461 -304 512 -300 q 359 -308 411 -308 q 125 -269 201 -308 q 50 -147 50 -230 q 86 -68 50 -102 q 203 -8 121 -34 q 139 34 164 5 q 115 105 115 62 q 186 225 115 186 q 94 300 127 248 q 60 427 60 351 q 84 537 60 491 q 152 614 109 584 q 255 660 195 645 q 389 674 316 674 m 266 -111 q 385 -197 266 -197 q 516 -175 473 -197 q 558 -111 558 -153 q 539 -48 558 -71 q 481 -26 520 -26 l 317 -26 q 266 -111 266 -77 m 460 425 q 441 539 460 498 q 386 581 422 581 q 317 425 317 581 q 334 318 317 355 q 386 282 351 282 q 460 425 460 282 z "},"h":{"ha":1002,"x_min":24,"x_max":966,"o":"m 576 422 q 575 464 576 441 q 569 505 574 486 q 553 536 564 524 q 524 548 543 548 q 480 537 504 548 q 425 501 456 527 l 425 158 q 428 127 425 139 q 438 107 431 115 q 458 95 446 100 q 488 86 470 90 l 496 -7 q 347 -2 402 -4 q 272 0 292 0 q 166 -2 218 0 q 61 -7 114 -4 l 64 85 q 101 93 87 89 q 125 106 116 97 q 137 133 134 116 q 140 180 140 150 l 140 805 q 138 848 140 832 l 24 848 l 24 925 q 295 958 157 958 l 336 958 q 381 955 364 958 q 409 943 399 951 q 422 920 418 935 q 425 880 425 905 l 425 598 q 541 658 478 635 q 667 682 603 682 q 753 665 717 682 q 814 616 790 648 q 849 539 838 585 q 861 437 861 494 l 861 168 q 867 100 861 124 l 957 100 l 966 16 q 726 -15 836 -15 q 572 58 572 -15 q 573 84 572 67 q 574 121 574 102 q 576 157 575 140 q 576 186 576 175 l 576 422 z "},"i":{"ha":553,"x_min":24,"x_max":530,"o":"m 121 852 q 134 900 121 880 q 170 932 147 920 q 221 951 192 945 q 281 958 250 958 q 344 951 315 958 q 396 930 374 944 q 430 897 418 917 q 443 852 443 878 q 429 804 443 823 q 391 772 414 784 q 339 754 368 760 q 281 748 311 748 q 219 755 249 748 q 168 775 190 762 q 134 807 146 788 q 121 852 121 827 m 24 644 q 273 674 161 674 q 385 658 345 674 q 425 610 425 642 l 425 162 q 431 100 425 125 l 521 100 l 530 22 q 290 -7 399 -7 q 177 10 218 -7 q 136 64 136 28 q 137 91 136 74 q 138 127 138 109 q 140 164 139 146 q 140 193 140 182 l 140 559 l 24 559 l 24 644 z "},"j":{"ha":632,"x_min":0,"x_max":511,"o":"m 91 644 q 218 667 158 659 q 334 674 279 674 q 399 670 370 674 q 449 658 429 666 q 481 638 470 650 q 492 610 492 626 l 492 -8 q 417 -233 492 -158 q 192 -308 342 -308 q 0 -256 56 -308 l 12 -52 l 151 -71 l 163 -189 q 184 -195 176 -195 q 249 -109 249 -195 q 242 -82 249 -104 q 229 -29 236 -60 q 215 36 221 1 q 208 100 208 70 l 208 559 l 91 559 l 91 644 m 189 873 q 202 921 189 901 q 237 954 215 941 q 289 972 260 966 q 350 979 318 979 q 413 971 384 979 q 465 951 443 964 q 498 918 486 938 q 511 873 511 898 q 496 825 511 844 q 459 793 482 805 q 407 775 436 781 q 350 769 378 769 q 287 776 316 769 q 236 796 258 783 q 201 828 214 809 q 189 873 189 848 z "},"k":{"ha":984,"x_min":24,"x_max":984,"o":"m 24 925 q 295 958 157 958 l 317 958 q 330 958 323 958 q 344 958 337 958 q 397 951 374 958 q 422 921 419 943 q 425 880 425 905 l 425 427 l 572 527 q 584 545 584 537 q 523 566 584 566 l 523 667 l 952 667 l 952 559 q 892 554 918 559 q 843 540 866 549 q 799 516 821 530 q 750 482 777 501 l 650 409 l 833 128 l 851 111 l 867 98 q 883 88 876 92 q 900 83 891 85 q 920 82 909 82 q 945 81 931 81 l 967 81 l 984 -7 q 884 -2 941 -4 q 757 0 828 0 l 716 0 q 624 -2 667 0 q 542 -7 581 -4 l 538 81 l 577 81 l 446 307 l 425 294 l 425 144 q 430 115 427 125 q 442 98 434 104 q 463 87 450 91 q 498 79 477 83 l 503 -7 q 347 -2 404 -4 q 271 0 290 0 q 165 -2 218 0 q 60 -7 113 -4 l 64 81 q 97 86 83 84 q 121 94 111 88 q 136 114 131 100 q 140 153 140 127 l 140 805 q 138 848 140 832 l 24 848 l 24 925 z "},"l":{"ha":560,"x_min":24,"x_max":536,"o":"m 24 926 q 282 958 155 958 q 334 956 313 958 q 371 950 355 954 q 400 937 387 945 q 425 913 412 928 l 425 154 q 429 98 425 113 l 536 98 l 536 23 q 290 -6 413 -6 q 197 8 233 -6 q 138 56 161 23 l 138 73 q 140 130 139 100 q 141 192 141 159 l 141 797 q 140 826 141 812 q 138 849 140 839 l 24 849 l 24 926 z "},"m":{"ha":1428,"x_min":28,"x_max":1392,"o":"m 998 58 q 999 84 998 67 q 1000 121 1000 102 q 1002 157 1001 140 q 1002 186 1002 175 l 1002 409 q 1001 474 1002 448 q 997 517 1000 500 q 988 540 994 533 q 972 547 983 547 q 860 497 914 547 l 860 140 q 866 112 862 123 q 879 95 870 101 q 902 84 887 88 q 940 77 916 81 l 940 -7 l 838 -3 q 761 -1 793 -2 q 706 0 728 0 q 612 -2 655 0 q 531 -7 570 -4 l 531 85 q 554 94 545 90 q 568 104 563 98 q 574 121 572 111 q 576 149 576 132 l 576 409 q 575 473 576 447 q 572 516 574 500 q 566 540 570 532 q 555 547 562 547 q 485 532 519 547 q 429 496 450 517 l 429 172 q 430 136 429 151 q 436 112 431 121 q 449 96 440 102 q 475 85 458 90 l 475 -7 q 367 -2 417 -4 q 275 0 317 0 q 173 -2 224 0 q 68 -7 121 -4 l 68 77 q 106 82 92 77 q 130 95 121 86 q 141 118 138 104 q 144 151 144 132 l 144 559 l 28 559 l 28 642 q 310 674 152 674 q 353 671 326 674 q 418 663 380 669 q 419 624 419 641 q 420 589 420 606 q 481 626 448 609 q 549 655 514 643 q 620 674 584 667 q 691 682 656 682 q 846 604 802 682 q 1090 682 975 682 q 1236 625 1186 682 q 1286 465 1286 567 l 1286 168 q 1293 100 1286 124 l 1383 100 l 1392 16 q 1152 -15 1262 -15 q 998 58 998 -15 z "},"n":{"ha":1016,"x_min":47,"x_max":1000,"o":"m 47 644 q 312 674 191 674 q 360 671 330 674 q 435 663 390 669 l 438 590 q 571 658 504 633 q 700 682 638 682 q 785 666 749 682 q 846 621 822 650 q 883 548 871 591 q 895 450 895 505 l 895 168 q 901 100 895 124 l 991 100 l 1000 16 q 760 -15 870 -15 q 606 58 606 -15 q 607 84 606 67 q 608 121 608 102 q 610 157 609 140 q 610 186 610 175 l 610 440 q 551 548 610 548 q 448 501 505 548 l 448 158 q 451 127 448 139 q 461 107 454 115 q 481 95 469 100 q 511 86 493 90 l 519 -7 q 370 -2 425 -4 q 295 0 315 0 q 189 -2 241 0 q 84 -7 137 -4 l 88 85 q 125 93 111 89 q 149 106 140 97 q 161 133 157 116 q 164 180 164 150 l 164 559 l 47 559 l 47 644 z "},"o":{"ha":935,"x_min":65,"x_max":869,"o":"m 869 331 q 835 175 869 240 q 745 67 801 110 q 616 5 689 25 q 468 -15 544 -15 q 305 9 379 -15 q 177 78 231 33 q 95 187 124 123 q 65 331 65 251 q 99 489 65 422 q 190 598 134 555 q 319 661 247 641 q 468 682 391 682 q 631 657 557 682 q 758 587 705 633 q 840 476 810 541 q 869 331 869 412 m 359 332 q 386 157 359 214 q 467 100 412 100 q 550 159 526 100 q 575 332 575 218 q 549 510 575 452 q 467 567 523 567 q 385 509 410 567 q 359 332 359 452 z "},"p":{"ha":967,"x_min":18,"x_max":902,"o":"m 542 559 q 420 522 476 559 l 420 279 q 444 142 420 184 q 511 100 467 100 q 563 123 544 100 q 593 181 583 146 q 606 256 603 216 q 609 330 609 296 q 593 502 609 444 q 542 559 577 559 m 267 -291 q 182 -295 235 -291 q 56 -308 130 -299 l 60 -218 l 82 -214 q 107 -209 97 -212 q 124 -198 118 -205 q 134 -179 131 -191 q 136 -146 136 -167 l 136 559 l 18 559 l 18 642 q 303 674 146 674 q 352 672 328 674 q 408 664 376 669 q 408 655 408 661 q 408 643 408 649 q 408 630 408 636 q 408 621 408 624 q 589 682 489 682 q 723 657 665 682 q 821 589 781 633 q 881 480 861 544 q 902 338 902 417 q 878 191 902 256 q 811 80 854 125 q 704 9 767 34 q 564 -15 642 -15 q 420 24 475 -15 l 420 -123 q 422 -168 420 -151 q 431 -193 424 -184 q 453 -207 438 -202 q 494 -219 468 -212 l 502 -308 l 424 -300 q 375 -296 396 -298 q 336 -294 353 -295 q 302 -292 318 -293 q 267 -291 286 -292 z "},"q":{"ha":912,"x_min":64,"x_max":911,"o":"m 545 558 q 531 558 541 558 q 513 559 522 559 q 494 559 503 559 q 481 559 485 559 l 460 559 q 384 503 412 559 q 356 334 356 447 q 375 160 356 220 q 433 100 394 100 q 482 106 454 100 q 544 125 510 112 q 545 190 545 158 q 545 258 545 222 q 545 316 545 286 q 545 384 545 347 q 545 463 545 420 q 545 558 545 506 m 676 -291 q 591 -295 644 -291 q 465 -308 539 -299 l 469 -218 l 491 -214 q 516 -209 506 -212 q 533 -198 527 -205 q 543 -179 540 -191 q 545 -146 545 -167 l 545 23 q 362 -15 453 -15 q 236 12 291 -15 q 142 86 180 39 q 84 195 104 133 q 64 328 64 257 q 91 469 64 404 q 168 581 117 534 q 290 655 218 628 q 452 682 362 682 q 615 676 515 682 q 853 660 714 671 l 853 619 q 829 449 829 568 l 829 -144 q 836 -184 829 -171 q 852 -204 842 -198 q 875 -213 862 -211 q 903 -219 888 -215 l 911 -308 l 833 -300 q 784 -296 805 -298 q 745 -293 762 -294 q 711 -292 727 -292 q 676 -291 694 -291 z "},"r":{"ha":772,"x_min":28,"x_max":751,"o":"m 648 682 q 751 667 705 682 l 738 451 l 597 451 l 581 553 q 527 545 554 553 q 478 524 500 537 q 443 494 456 511 q 429 458 429 477 l 429 175 q 431 131 429 148 q 441 104 433 115 q 468 89 450 94 q 516 79 486 83 l 524 -7 q 358 -2 419 -4 q 275 0 296 0 q 170 -2 222 0 q 64 -7 117 -4 l 68 79 q 110 86 95 83 q 133 97 125 90 q 142 116 140 104 q 144 152 144 129 l 144 559 l 28 559 l 28 642 q 169 666 98 658 q 316 674 240 674 q 355 671 331 674 q 411 663 378 669 l 411 576 q 648 682 505 682 z "},"s":{"ha":746,"x_min":41,"x_max":691,"o":"m 384 573 q 333 559 353 573 q 313 516 313 545 q 332 475 313 488 q 386 450 351 461 q 615 340 540 401 q 691 201 691 279 q 665 99 691 140 q 596 32 640 58 q 496 -4 553 7 q 378 -15 440 -15 q 98 35 231 -15 q 65 49 79 42 q 41 63 51 56 l 75 238 l 262 197 l 271 113 q 326 99 296 99 q 379 116 359 99 q 400 161 400 132 q 386 198 400 183 q 347 225 372 213 q 291 249 323 237 q 224 275 259 260 q 149 313 182 292 q 91 359 115 334 q 55 415 67 385 q 42 481 42 445 q 124 630 42 578 q 372 682 205 682 q 657 608 558 682 l 620 449 l 463 473 l 454 564 q 384 573 423 573 z "},"t":{"ha":725,"x_min":0,"x_max":697,"o":"m 410 -15 q 291 -2 344 -15 q 200 38 237 11 q 143 109 163 66 q 123 211 123 151 l 123 569 l 0 569 l 0 618 q 13 646 0 636 q 46 660 26 655 q 90 665 66 664 q 133 667 113 665 l 149 771 q 152 791 150 781 q 160 814 155 802 l 185 872 l 409 872 l 409 667 l 607 667 l 607 630 q 598 595 607 608 q 575 577 589 583 q 543 570 561 571 q 506 569 525 569 l 409 569 l 409 174 q 452 107 409 107 q 484 116 471 107 q 506 137 497 124 q 521 165 515 151 q 530 194 526 180 l 538 226 l 697 226 l 697 64 q 410 -15 584 -15 z "},"u":{"ha":926,"x_min":-12,"x_max":930,"o":"m 439 644 q 680 674 570 674 q 734 670 709 674 q 780 659 760 667 q 810 639 799 651 q 821 610 821 627 l 821 184 q 827 100 821 123 l 930 100 l 930 24 q 677 -7 793 -7 q 620 -5 645 -7 q 577 5 595 -3 q 550 30 560 14 q 539 74 541 46 q 312 -15 424 -15 q 221 0 262 -15 q 153 43 181 15 q 109 111 124 71 q 94 201 94 151 l 94 559 l -3 559 l -12 644 q 233 674 123 674 q 339 658 300 674 q 378 610 378 642 l 378 189 q 380 160 378 175 q 385 132 381 144 q 397 110 389 119 q 419 102 405 102 q 450 106 433 102 q 481 118 466 111 q 511 135 497 125 q 534 153 524 144 q 535 168 534 160 q 535 188 535 176 q 536 216 536 199 q 536 256 536 233 q 536 263 536 258 q 536 278 536 267 q 536 307 536 288 q 536 359 536 326 q 536 440 536 392 q 536 559 536 489 l 446 559 l 439 644 z "},"v":{"ha":865,"x_min":0,"x_max":865,"o":"m 0 659 q 117 670 55 667 q 249 674 179 674 q 315 670 275 674 q 413 659 355 667 q 429 559 423 624 l 378 559 q 441 374 417 444 q 475 278 465 304 q 519 421 498 352 q 559 559 540 491 l 490 559 l 503 659 q 610 670 561 667 q 702 674 659 674 q 730 673 716 674 q 762 671 744 673 q 805 667 781 670 q 865 659 829 664 l 865 559 l 775 559 q 684 288 734 426 q 572 0 634 150 q 511 -5 543 -3 q 444 -7 479 -7 q 389 -5 420 -7 q 321 0 358 -3 l 86 559 l 14 559 l 0 659 z "},"w":{"ha":1254,"x_min":-4,"x_max":1255,"o":"m -4 659 q 113 670 51 667 q 245 674 175 674 q 309 670 270 674 q 402 659 347 667 q 418 559 412 624 l 367 559 q 387 486 368 555 q 444 278 406 417 l 549 617 q 586 656 559 646 q 663 667 614 667 q 716 664 694 667 q 754 655 739 662 q 780 634 770 648 q 797 598 789 621 l 899 278 l 962 559 l 894 559 q 896 576 895 562 q 900 607 898 590 q 904 639 902 624 q 907 659 906 654 q 1006 670 960 667 q 1093 674 1052 674 q 1121 673 1107 674 q 1153 671 1135 673 q 1196 667 1171 670 q 1255 659 1220 664 l 1255 559 l 1167 559 q 1090 279 1131 417 q 1004 0 1050 142 q 943 -5 975 -3 q 876 -7 911 -7 q 825 -5 854 -7 q 759 0 795 -3 l 647 345 q 584 134 610 219 q 541 0 557 49 q 480 -5 512 -3 q 413 -7 448 -7 q 362 -5 391 -7 q 296 0 333 -3 l 81 559 l -4 559 l -4 659 z "},"x":{"ha":944,"x_min":16,"x_max":935,"o":"m 751 674 q 780 673 766 674 q 812 671 793 673 q 854 667 830 670 q 914 659 879 664 l 914 559 l 818 559 l 654 351 l 851 100 l 935 100 l 935 -7 q 826 -2 884 -4 q 703 0 768 0 q 598 -2 652 0 q 488 -7 545 -4 q 483 13 485 5 q 479 31 481 20 q 476 56 478 41 q 471 100 474 72 l 525 100 l 419 246 l 313 100 l 384 100 q 380 78 382 94 q 376 46 378 63 q 373 14 374 29 q 370 -7 371 -1 q 272 -2 319 -4 q 178 0 225 0 q 116 -2 157 0 q 16 -7 75 -4 l 16 100 l 102 100 l 281 320 l 116 559 l 22 559 l 22 659 q 139 670 77 667 q 271 674 201 674 q 343 670 300 674 q 449 659 387 667 q 465 559 459 624 l 420 559 l 511 427 l 608 559 l 546 559 l 559 659 q 662 670 614 667 q 751 674 710 674 z "},"y":{"ha":865,"x_min":0,"x_max":865,"o":"m 702 674 q 730 673 716 674 q 762 671 744 673 q 805 667 781 670 q 865 659 829 664 l 865 559 l 776 559 l 580 7 q 530 -105 557 -56 q 461 -188 503 -154 q 359 -238 420 -221 q 209 -256 298 -256 q 43 -231 112 -256 l 75 -115 q 229 -147 161 -147 q 276 -134 258 -147 q 306 -99 294 -120 q 322 -51 317 -77 q 332 1 328 -25 l 87 559 l 0 559 l 0 659 q 117 670 55 667 q 249 674 179 674 q 315 670 275 674 q 413 659 355 667 q 429 559 423 624 l 378 559 l 475 267 q 520 418 499 346 q 558 559 541 491 l 489 559 l 503 659 q 610 670 561 667 q 702 674 659 674 z "},"z":{"ha":721,"x_min":25,"x_max":680,"o":"m 155 0 q 71 6 87 1 q 25 67 25 19 l 25 137 l 408 559 l 208 559 q 189 557 201 559 q 173 550 177 555 q 158 509 163 536 q 153 438 154 481 l 36 431 l 36 667 l 602 667 q 643 663 628 667 q 665 649 658 658 q 675 629 673 641 q 677 603 677 617 l 677 511 l 321 111 l 505 111 q 528 118 518 111 q 547 141 538 125 q 564 182 555 157 q 583 244 572 208 l 680 250 l 680 0 l 155 0 z "},"{":{"ha":541,"x_min":45,"x_max":499,"o":"m 368 1000 q 417 999 394 1000 q 458 992 441 998 q 486 977 475 987 q 499 948 497 966 l 499 923 q 443 918 467 921 q 404 905 419 914 q 380 878 388 895 q 372 829 372 860 l 372 578 q 281 428 372 475 q 349 367 326 404 q 372 279 372 330 l 372 28 q 376 -50 372 -50 q 499 -68 406 -58 l 499 -90 q 481 -119 499 -109 q 440 -135 463 -130 q 394 -142 416 -140 q 361 -143 371 -143 q 263 -136 307 -143 q 188 -110 219 -129 q 139 -57 156 -90 q 121 29 121 -23 l 121 275 q 118 319 121 300 q 107 354 115 339 q 83 379 98 369 q 45 395 68 389 l 45 467 q 89 484 73 469 q 112 519 104 498 q 120 564 119 540 q 121 608 121 587 l 121 835 q 139 918 121 886 q 188 968 156 950 q 266 994 220 987 q 368 1000 311 1000 z "},"|":{"ha":886,"x_min":338,"x_max":547,"o":"m 423 958 q 514 938 481 958 q 547 869 547 918 l 547 -153 l 460 -153 q 401 -146 425 -153 q 363 -124 377 -140 q 343 -84 349 -109 q 338 -21 338 -59 l 338 958 l 423 958 z "},"}":{"ha":536,"x_min":41,"x_max":495,"o":"m 172 1000 q 274 994 229 1000 q 352 968 319 987 q 401 918 384 950 q 418 835 418 886 l 418 608 q 420 564 418 587 q 428 519 421 540 q 451 484 435 498 q 495 467 467 469 l 495 395 q 456 379 471 389 q 433 354 441 369 q 421 319 425 339 q 418 275 418 300 l 418 29 q 401 -57 418 -23 q 352 -110 384 -90 q 277 -136 321 -129 q 178 -143 233 -143 q 146 -142 169 -143 q 100 -135 123 -140 q 59 -119 77 -130 q 41 -90 41 -109 l 41 -68 q 164 -50 134 -58 q 168 28 168 -50 l 168 279 q 191 367 168 330 q 259 428 214 404 q 168 578 168 475 l 168 829 q 160 878 168 860 q 136 905 152 895 q 97 918 121 914 q 41 923 73 921 l 41 948 q 54 977 43 966 q 82 992 64 987 q 122 999 99 998 q 172 1000 146 1000 z "},"~":{"ha":816,"x_min":77,"x_max":739,"o":"m 558 365 q 641 385 605 365 q 696 437 677 405 q 723 400 711 417 q 739 368 734 382 q 716 326 732 345 q 680 294 701 307 q 632 274 659 281 q 574 267 605 267 q 535 269 553 267 q 499 276 517 271 q 460 288 481 281 q 414 307 440 296 q 351 334 376 323 q 307 350 325 345 q 276 357 288 355 q 254 359 264 359 q 128 270 183 359 q 77 336 87 311 q 100 381 83 359 q 142 419 118 403 q 195 445 166 435 q 251 455 223 455 q 321 446 285 455 q 383 426 357 437 q 455 394 427 406 q 502 376 484 382 q 533 367 521 369 q 558 365 545 365 z "},"":{"ha":386,"x_min":0,"x_max":0,"o":""},"":{"ha":593,"x_min":140,"x_max":448,"o":"m 302 -15 q 358 -14 332 -15 q 404 -5 385 -12 q 436 19 424 3 q 448 64 448 35 q 448 74 448 69 q 447 85 448 79 q 405 415 422 281 q 379 624 388 549 q 351 635 368 631 q 320 639 335 639 q 271 637 290 639 q 239 628 251 635 q 220 607 227 621 q 212 572 214 594 q 188 381 201 465 q 164 235 175 297 q 147 130 154 172 q 140 62 140 87 q 159 18 140 34 q 202 -5 177 2 q 256 -14 228 -12 q 302 -15 283 -15 m 441 828 q 432 882 441 858 q 405 923 422 906 q 361 948 387 939 q 306 958 336 958 q 250 948 275 958 q 207 923 225 939 q 180 882 189 906 q 170 828 170 858 q 180 776 170 800 q 209 735 191 752 q 252 710 227 719 q 306 701 277 701 q 360 710 335 701 q 403 737 385 720 q 431 778 421 754 q 441 828 441 801 z "},"":{"ha":835,"x_min":79,"x_max":778,"o":"m 530 100 q 591 107 562 101 q 648 123 620 113 q 703 147 675 133 q 761 180 731 161 l 772 71 q 530 -13 673 -1 l 530 -197 l 515 -197 q 475 -194 490 -197 q 451 -184 460 -191 q 440 -164 443 -177 q 437 -129 437 -151 l 437 -13 q 291 18 357 -7 q 178 87 225 43 q 105 192 131 131 q 79 330 79 253 q 109 478 79 415 q 189 584 139 541 q 303 649 239 626 q 437 679 368 673 l 437 867 l 452 867 q 488 865 473 867 q 512 857 503 863 q 526 837 522 850 q 530 802 530 825 l 530 680 q 671 652 606 675 q 778 591 735 629 l 766 457 l 583 457 q 555 507 568 486 q 530 541 542 528 l 530 100 m 437 553 q 368 350 368 505 q 437 121 368 177 l 437 553 z "},"":{"ha":865,"x_min":33,"x_max":825,"o":"m 34 98 q 90 118 64 106 q 133 147 115 130 q 161 190 151 165 q 171 249 171 214 q 169 334 171 290 q 163 429 167 378 l 33 429 l 33 478 q 39 508 33 497 q 56 524 45 519 q 81 531 67 530 q 111 532 96 532 l 150 532 q 137 637 141 594 q 133 708 133 680 q 161 826 133 779 q 239 903 190 874 q 352 945 288 932 q 490 958 417 958 q 819 873 699 958 l 819 660 l 652 643 q 580 794 616 746 q 497 842 543 842 q 416 699 416 842 q 429 532 416 661 l 639 532 l 639 483 q 623 441 639 454 q 576 429 607 429 l 441 429 q 443 379 442 400 q 444 344 444 359 q 440 281 444 310 q 427 225 435 252 q 405 170 418 197 q 376 113 393 143 l 468 113 q 557 124 522 113 q 616 159 593 136 q 655 217 640 182 q 684 299 670 252 l 825 284 q 820 160 825 227 q 805 14 814 94 q 458 0 651 0 l 59 0 q 34 98 34 43 z "},"":{"ha":924,"x_min":90,"x_max":758,"o":"m 671 680 q 732 495 732 600 q 670 313 732 389 l 758 224 l 753 218 q 724 191 739 205 q 694 171 709 177 q 675 183 686 174 q 652 204 664 193 q 630 228 641 216 q 608 250 618 240 q 522 205 569 222 q 423 189 474 189 q 327 205 372 189 q 242 250 281 221 l 153 163 q 122 193 138 177 q 99 222 106 209 q 125 258 108 241 l 180 313 q 119 496 119 391 q 180 678 119 601 l 90 767 q 122 798 106 781 q 153 821 138 814 q 170 810 161 816 q 187 795 178 804 l 241 741 q 424 803 324 803 q 519 787 473 803 q 607 741 566 771 l 696 830 l 703 824 q 731 793 719 808 q 744 760 744 778 q 743 751 744 753 l 671 680 m 209 496 q 226 408 209 448 q 272 338 243 368 q 341 293 302 309 q 425 277 380 277 q 511 294 471 277 q 580 340 551 311 q 626 410 609 370 q 642 496 642 450 q 626 583 642 543 q 580 652 609 623 q 511 699 551 682 q 425 715 471 715 q 340 699 379 715 q 271 653 300 682 q 225 583 242 623 q 209 496 209 543 z "},"":{"ha":1063,"x_min":-4,"x_max":1065,"o":"m 395 100 q 398 121 397 109 q 399 147 399 132 l 399 180 l 161 180 l 161 231 q 215 269 184 258 q 299 280 247 280 l 397 280 l 397 349 l 161 349 l 161 400 q 216 437 184 426 q 297 449 248 449 l 337 449 q 216 647 265 568 q 140 773 166 727 l 112 824 l 12 824 l -4 941 q 80 945 42 943 q 154 947 118 947 q 229 948 191 948 q 315 949 268 949 q 509 941 425 949 l 519 824 l 432 824 q 447 782 441 797 q 454 765 452 768 l 595 510 l 714 762 q 723 788 720 773 q 729 824 726 802 l 623 824 l 647 941 q 842 949 731 949 l 892 949 q 1065 941 972 949 l 1048 824 l 949 824 q 918 762 940 813 q 878 690 901 732 q 823 589 854 647 l 747 449 l 924 449 l 924 404 q 918 375 924 386 q 902 359 911 365 q 879 352 892 354 q 854 349 867 350 l 692 349 l 692 280 l 924 280 l 924 236 q 906 193 924 204 q 859 180 888 182 l 692 180 l 692 162 q 693 128 692 144 q 696 100 694 113 l 823 100 l 823 -7 q 681 -2 747 -4 q 554 0 614 0 q 422 -2 492 0 q 269 -7 351 -4 l 269 100 l 395 100 z "},"":{"ha":916,"x_min":340,"x_max":576,"o":"m 452 982 q 535 970 505 982 q 576 927 566 959 l 576 450 l 464 450 q 420 451 441 450 q 382 456 399 452 q 355 469 366 460 q 342 494 345 478 q 341 510 341 501 q 340 528 340 518 l 340 982 l 452 982 m 452 256 q 536 245 506 256 q 576 202 566 234 l 576 -275 l 435 -275 q 404 -274 420 -275 q 376 -268 389 -273 q 354 -255 363 -264 q 342 -231 345 -247 q 341 -216 341 -224 q 340 -198 340 -208 l 340 256 l 452 256 z "},"":{"ha":689,"x_min":89,"x_max":636,"o":"m 189 649 q 155 681 170 665 q 132 716 141 697 q 117 758 122 735 q 113 809 113 781 q 134 904 113 865 q 193 969 156 944 q 280 1006 230 995 q 387 1018 330 1018 q 459 1011 426 1018 q 520 996 493 1005 q 565 978 547 987 q 590 962 583 968 l 576 822 l 498 822 q 477 867 488 848 q 450 897 466 885 q 412 914 435 909 q 357 920 390 920 q 275 898 306 920 q 244 832 244 877 q 253 791 244 808 q 280 760 262 774 q 322 733 297 745 q 378 706 347 720 q 505 645 455 671 q 584 591 555 618 q 625 534 613 565 q 636 463 636 504 q 611 356 636 401 q 542 285 587 311 q 624 126 624 225 q 603 28 624 69 q 545 -39 582 -13 q 458 -78 508 -66 q 350 -90 408 -90 q 287 -85 323 -90 q 212 -69 250 -79 q 142 -44 175 -59 q 93 -10 110 -29 q 92 89 93 48 q 89 155 91 129 l 176 155 q 203 92 188 119 q 240 46 218 64 q 292 19 262 28 q 363 9 322 9 q 414 15 391 9 q 454 33 437 21 q 480 62 471 45 q 490 104 490 80 q 484 131 490 118 q 461 156 477 143 q 418 184 446 169 q 350 219 391 199 l 256 264 q 201 293 230 276 q 147 334 172 309 q 106 395 123 359 q 90 481 90 431 q 115 584 90 545 q 189 649 140 623 m 288 594 q 237 553 255 575 q 220 499 220 532 q 225 468 220 481 q 242 443 231 454 q 270 421 253 432 q 311 399 287 411 l 362 372 q 397 354 380 362 q 433 338 415 346 q 507 436 507 378 q 494 469 507 452 q 463 500 481 486 q 421 527 444 515 q 380 549 399 540 q 336 569 353 561 q 309 582 319 577 q 294 590 298 587 q 288 594 290 593 z "},"":{"ha":911,"x_min":175,"x_max":734,"o":"m 399 852 q 368 775 399 804 q 287 746 338 746 q 205 774 236 746 q 175 852 175 803 q 183 895 175 876 q 207 928 192 915 q 242 950 222 942 q 287 958 263 958 q 332 950 311 958 q 367 928 353 942 q 390 895 382 915 q 399 852 399 876 m 734 852 q 704 774 734 803 q 623 746 673 746 q 541 774 572 746 q 511 852 511 803 q 519 895 511 876 q 543 928 528 915 q 578 950 557 942 q 623 958 599 958 q 668 950 647 958 q 703 928 688 942 q 726 895 718 915 q 734 852 734 876 z "},"":{"ha":1132,"x_min":77,"x_max":1055,"o":"m 566 844 q 418 814 484 844 q 306 735 352 785 q 236 616 260 684 q 212 469 212 547 q 237 320 212 388 q 309 203 262 252 q 421 126 356 154 q 566 99 487 99 q 725 130 657 99 q 838 213 793 161 q 905 332 882 265 q 927 469 927 399 q 900 622 927 553 q 825 740 873 690 q 710 816 777 789 q 566 844 644 844 m 566 -15 q 363 22 454 -15 q 209 124 273 59 q 111 277 145 189 q 77 469 77 366 q 109 654 77 566 q 204 810 142 743 q 358 918 267 878 q 566 958 449 958 q 774 918 683 958 q 928 811 865 878 q 1023 655 990 744 q 1055 469 1055 567 q 933 136 1055 273 q 566 -15 799 -15 m 600 315 q 651 318 627 315 q 695 329 674 321 q 738 346 717 336 q 783 370 759 356 l 790 294 q 701 251 753 267 q 589 235 649 235 q 473 251 526 235 q 384 297 421 267 q 326 373 347 328 q 305 475 305 418 q 330 587 305 541 q 395 664 355 633 q 488 708 436 694 q 595 722 541 722 q 709 705 657 722 q 794 659 761 688 l 786 564 l 657 564 q 620 624 637 607 q 587 641 603 641 q 548 627 564 641 q 524 591 533 613 q 511 542 515 569 q 507 490 507 515 q 530 359 507 404 q 600 315 553 315 z "},"":{"ha":657,"x_min":40,"x_max":628,"o":"m 327 687 q 267 662 288 687 q 245 596 245 637 q 287 524 245 524 q 342 551 310 524 l 342 687 l 327 687 m 628 472 q 420 451 527 451 q 360 507 385 476 q 218 445 301 445 q 146 454 179 445 q 90 481 113 463 q 53 528 66 500 q 40 592 40 555 q 112 707 40 669 q 332 746 184 746 l 342 746 l 342 763 q 340 825 342 802 q 336 861 339 848 q 328 877 333 873 q 316 882 323 881 q 250 851 287 882 q 173 770 214 821 l 53 846 q 73 888 53 868 q 127 923 93 908 q 204 947 161 939 q 296 956 248 956 q 404 946 357 956 q 484 912 452 936 q 534 850 517 889 q 551 755 551 812 q 550 722 551 741 q 550 680 550 703 l 550 592 q 551 552 550 568 q 553 530 551 536 q 569 529 560 529 q 586 528 577 528 l 628 528 l 628 472 z "},"":{"ha":745,"x_min":90,"x_max":654,"o":"m 644 87 q 570 45 615 63 l 344 318 l 344 395 l 574 690 q 625 669 605 678 q 654 654 645 661 q 637 611 649 638 q 606 546 625 583 q 565 463 588 509 q 514 366 541 417 q 586 214 553 282 q 644 87 618 145 m 390 87 q 316 45 361 63 l 90 318 l 90 395 l 320 690 q 371 669 351 678 q 401 654 391 661 q 383 611 395 638 q 353 546 371 583 q 311 463 334 509 q 260 366 288 417 q 332 214 300 282 q 390 87 364 145 z "},"":{"ha":909,"x_min":90,"x_max":819,"o":"m 734 157 q 669 168 692 157 q 645 208 645 178 l 645 428 l 90 428 l 90 481 q 94 517 90 504 q 106 537 98 530 q 131 546 115 544 q 168 548 146 548 l 819 548 l 819 157 l 734 157 z "},"":{"ha":431,"x_min":35,"x_max":532,"o":"m 532 349 q 525 326 532 336 q 505 310 517 317 q 475 299 492 303 q 438 291 458 294 l 35 291 l 35 369 q 47 400 35 390 q 76 415 60 411 q 106 420 92 420 q 123 420 120 420 q 135 421 127 421 q 152 421 142 421 l 532 421 l 532 349 z "},"":{"ha":1132,"x_min":77,"x_max":1055,"o":"m 471 250 q 425 249 458 250 q 340 247 393 248 l 340 305 l 395 305 q 397 335 397 313 l 397 620 q 395 648 397 640 l 328 648 l 328 703 q 435 707 380 706 q 549 709 489 709 q 632 704 593 709 q 702 684 672 699 q 749 643 732 669 q 767 575 767 617 q 758 532 767 551 q 733 497 749 512 q 695 472 717 482 q 650 457 674 462 q 731 407 701 439 q 777 319 762 374 l 827 324 l 831 273 q 811 259 823 265 q 785 249 800 254 q 756 242 771 245 q 726 240 741 240 q 650 291 667 240 q 614 376 633 338 q 573 445 595 414 l 538 445 l 538 335 q 540 305 538 314 l 585 305 l 585 247 l 524 250 q 497 250 510 250 q 471 250 484 250 m 566 844 q 418 814 484 844 q 306 735 352 785 q 236 616 260 684 q 212 469 212 547 q 237 320 212 388 q 309 203 262 252 q 421 126 356 154 q 566 99 487 99 q 725 130 657 99 q 838 213 793 161 q 905 332 882 265 q 927 469 927 399 q 900 622 927 553 q 825 740 873 690 q 710 816 777 789 q 566 844 644 844 m 566 -15 q 363 22 454 -15 q 209 124 273 59 q 111 277 145 189 q 77 469 77 366 q 109 654 77 566 q 204 810 142 743 q 358 918 267 878 q 566 958 449 958 q 774 918 683 958 q 928 811 865 878 q 1023 655 990 744 q 1055 469 1055 567 q 933 136 1055 273 q 566 -15 799 -15 m 624 572 q 607 631 624 614 q 548 648 590 648 l 538 648 l 538 492 l 555 492 q 624 572 624 492 z "},"":{"ha":806,"x_min":146,"x_max":660,"o":"m 146 912 l 660 912 l 660 798 l 146 798 l 146 912 z "},"":{"ha":411,"x_min":66,"x_max":343,"o":"m 124 831 q 146 774 124 795 q 205 753 168 753 q 263 774 241 753 q 286 831 286 795 q 263 887 286 866 q 205 908 241 908 q 146 887 168 908 q 124 831 124 866 m 205 703 q 149 712 174 703 q 105 738 123 721 q 77 778 87 754 q 66 831 66 802 q 77 884 66 861 q 106 923 87 907 q 150 948 124 939 q 205 957 175 957 q 260 948 235 957 q 304 923 286 939 q 333 884 322 907 q 343 831 343 861 q 333 779 343 802 q 304 738 323 755 q 261 712 286 722 q 205 703 235 703 z "},"":{"ha":808,"x_min":90,"x_max":718,"o":"m 718 88 q 693 39 718 56 q 631 22 669 22 l 90 22 l 90 82 q 97 119 90 106 q 119 139 104 132 q 157 147 134 146 q 216 149 181 149 l 718 149 l 718 88 m 341 782 q 425 771 395 782 q 465 729 456 760 l 465 581 l 648 581 l 648 520 q 641 489 646 502 q 627 469 637 477 q 600 457 616 461 q 557 454 583 454 l 465 454 l 465 252 l 387 252 q 358 254 373 252 q 331 259 344 255 q 310 271 319 263 q 301 292 302 278 q 299 325 299 306 l 299 454 l 118 454 l 118 515 q 126 553 118 539 q 150 573 135 566 q 186 580 165 579 q 230 581 206 581 l 299 581 l 299 782 l 341 782 z "},"":{"ha":595,"x_min":54,"x_max":538,"o":"m 350 799 q 335 862 350 838 q 287 886 319 886 q 252 877 268 886 q 221 849 235 867 q 197 808 208 832 q 178 755 186 784 l 57 834 q 75 883 57 861 q 125 922 93 905 q 200 948 157 939 q 293 958 243 958 q 389 947 347 958 q 460 916 431 937 q 505 861 490 895 q 521 783 521 828 q 496 694 521 736 q 432 611 472 651 q 341 535 392 572 q 236 465 290 498 l 363 465 q 414 471 381 465 q 437 511 425 490 q 461 558 450 533 l 538 551 l 538 359 q 471 355 509 357 q 380 354 433 354 l 111 354 q 65 366 77 354 q 54 408 54 377 q 54 419 54 413 q 55 433 54 426 q 176 544 126 497 q 258 624 226 591 q 309 679 291 657 q 332 713 326 700 q 345 751 340 728 q 350 799 349 774 z "},"":{"ha":581,"x_min":54,"x_max":522,"o":"m 54 844 q 141 930 88 902 q 278 958 194 958 q 362 949 322 958 q 433 923 403 940 q 482 881 464 906 q 500 823 500 856 q 465 726 500 760 q 366 680 430 692 q 430 661 401 674 q 479 627 459 648 q 511 578 500 606 q 522 513 522 549 q 500 431 522 464 q 442 377 477 397 q 364 349 407 357 q 280 340 321 340 q 71 389 173 340 l 71 538 l 160 530 q 195 448 172 477 q 261 418 218 418 q 326 445 304 418 q 348 517 348 472 q 230 627 348 627 l 165 627 l 165 699 l 218 699 q 281 707 255 699 q 325 731 308 716 q 351 764 342 745 q 359 800 359 782 q 336 857 359 837 q 279 877 313 877 q 242 870 260 877 q 209 851 224 864 q 180 819 193 838 q 161 773 168 799 l 54 844 z "},"":{"ha":819,"x_min":224,"x_max":593,"o":"m 224 755 l 326 1005 l 593 1005 l 383 755 l 224 755 z "},"":{"ha":1090,"x_min":113,"x_max":1054,"o":"m 113 644 q 357 674 248 674 q 463 658 425 674 q 502 610 502 642 l 502 189 q 504 160 503 175 q 509 132 505 144 q 521 110 513 119 q 543 102 529 102 q 573 106 557 102 q 605 118 589 111 q 635 135 621 125 q 658 153 648 144 q 660 205 660 180 q 661 254 661 230 l 661 559 l 570 559 l 563 644 q 804 674 694 674 q 859 670 833 674 q 904 659 884 667 q 934 639 923 651 q 945 610 945 627 l 945 184 q 951 100 945 123 l 1054 100 l 1054 24 q 801 -7 917 -7 q 744 -5 769 -7 q 702 5 719 -3 q 674 30 684 14 q 663 74 665 46 q 460 -14 564 -4 l 460 -49 q 491 -148 460 -113 q 580 -199 522 -182 q 582 -231 581 -220 q 583 -243 583 -241 l 583 -249 q 394 -308 500 -308 q 264 -278 310 -308 q 218 -177 218 -248 l 218 559 l 121 559 l 113 644 z "},"":{"ha":818,"x_min":56,"x_max":762,"o":"m 56 681 q 70 775 56 735 q 110 845 84 816 q 171 892 136 874 q 250 922 207 911 q 343 937 294 932 q 444 941 392 941 l 541 941 q 762 930 704 941 l 762 863 l 700 863 q 630 855 651 863 q 620 774 620 825 l 620 43 q 631 -39 620 -9 q 701 -45 650 -45 l 761 -45 l 761 -137 q 637 -127 695 -130 q 525 -124 578 -124 l 525 889 l 420 889 l 420 -124 q 309 -127 367 -124 q 184 -137 250 -130 l 184 -45 l 245 -45 q 315 -39 295 -45 q 326 43 326 -9 l 326 404 q 123 474 190 404 q 56 681 56 544 z "},"":{"ha":466,"x_min":97,"x_max":368,"o":"m 368 393 q 359 339 368 363 q 331 298 349 315 q 288 272 313 281 q 233 263 263 263 q 177 272 202 263 q 134 298 152 281 q 106 339 116 315 q 97 393 97 363 q 107 445 97 421 q 136 485 117 469 q 179 511 154 502 q 233 520 203 520 q 289 510 264 520 q 332 482 315 500 q 359 441 349 465 q 368 393 368 418 z "},"":{"ha":444,"x_min":73,"x_max":368,"o":"m 368 -184 q 322 -299 368 -260 q 193 -338 275 -338 q 73 -310 117 -338 l 73 -248 q 164 -264 127 -264 q 230 -248 205 -264 q 255 -197 255 -231 q 187 -121 255 -132 q 162 -126 184 -121 q 152 -121 159 -123 q 127 -111 145 -118 l 185 7 l 254 7 l 216 -65 q 281 -74 252 -67 q 329 -95 309 -81 q 358 -131 348 -109 q 368 -184 368 -153 z "},"":{"ha":486,"x_min":65,"x_max":410,"o":"m 239 949 q 287 947 269 949 q 314 940 304 945 q 326 926 323 935 q 329 904 329 917 l 329 442 q 329 434 329 437 q 330 427 330 430 l 410 427 l 410 351 q 323 354 364 353 q 243 355 281 355 q 158 354 202 355 q 65 351 114 353 l 65 427 l 144 427 q 146 465 146 435 l 146 865 q 146 874 146 870 q 145 881 146 878 l 73 881 l 73 930 q 239 949 163 949 z "},"":{"ha":690,"x_min":49,"x_max":641,"o":"m 641 699 q 616 585 641 633 q 550 506 591 537 q 455 460 509 475 q 345 445 402 445 q 225 463 279 445 q 131 513 170 480 q 71 594 92 547 q 49 699 49 641 q 71 808 49 760 q 133 890 94 857 q 227 940 173 923 q 345 958 281 958 q 464 940 410 958 q 557 888 518 922 q 619 807 597 854 q 641 699 641 759 m 345 873 q 303 859 319 873 q 279 822 288 845 q 268 767 271 798 q 265 700 265 735 q 268 635 265 666 q 279 581 271 604 q 303 543 288 557 q 345 529 319 529 q 386 543 370 529 q 410 581 401 557 q 421 635 418 604 q 424 700 424 666 q 421 766 424 735 q 409 821 418 798 q 385 859 400 845 q 345 873 370 873 z "},"":{"ha":745,"x_min":90,"x_max":654,"o":"m 90 654 q 120 669 100 661 q 171 690 140 678 l 400 395 l 400 318 l 175 45 q 101 87 132 61 q 159 214 127 145 q 231 366 191 282 q 134 553 169 482 q 90 654 100 623 m 344 654 q 373 669 353 661 q 425 690 393 678 l 654 395 l 654 318 l 429 45 q 355 87 385 61 q 413 214 380 145 q 484 366 445 282 q 388 553 422 482 q 344 654 353 623 z "},"":{"ha":1400,"x_min":7,"x_max":1374,"o":"m 743 903 q 753 923 748 913 q 767 941 759 933 q 787 953 775 948 q 817 958 799 958 l 934 958 l 507 33 q 479 -3 495 8 q 435 -15 463 -15 l 319 -15 l 743 903 m 1069 247 l 1069 467 l 932 247 l 1069 247 m 1067 79 q 1069 97 1068 86 q 1069 123 1069 108 l 1069 165 l 840 165 l 817 203 q 804 238 811 216 q 797 283 797 261 l 1053 659 l 1172 659 q 1201 659 1187 659 q 1227 653 1215 658 q 1245 640 1238 649 q 1253 612 1253 630 l 1253 247 l 1374 247 l 1374 211 q 1368 185 1374 194 q 1352 171 1362 176 q 1329 166 1342 167 q 1300 165 1315 165 l 1253 165 l 1253 123 q 1253 97 1253 108 q 1255 79 1254 86 l 1344 79 l 1344 -5 q 1245 -1 1289 -3 q 1166 0 1201 0 q 1083 -1 1132 0 q 968 -5 1034 -3 l 968 79 l 1067 79 m 182 949 q 229 947 212 949 q 256 940 247 945 q 269 926 266 935 q 271 904 271 917 l 271 442 q 272 434 271 437 q 273 427 272 430 l 352 427 l 352 351 q 265 354 307 353 q 185 355 224 355 q 100 354 144 355 q 7 351 56 353 l 7 427 l 86 427 q 88 465 88 435 l 88 865 q 88 874 88 870 q 87 881 88 878 l 15 881 l 15 930 q 182 949 106 949 z "},"":{"ha":1379,"x_min":7,"x_max":1342,"o":"m 743 903 q 753 923 748 913 q 767 941 759 933 q 787 953 775 948 q 817 958 799 958 l 934 958 l 507 33 q 479 -3 495 8 q 435 -15 463 -15 l 319 -15 l 743 903 m 1154 445 q 1139 508 1154 484 q 1091 532 1124 532 q 1056 523 1072 532 q 1026 495 1040 513 q 1001 454 1012 478 q 982 401 990 430 l 861 480 q 879 529 861 507 q 929 568 897 551 q 1004 594 961 585 q 1097 604 1047 604 q 1193 593 1151 604 q 1265 562 1236 583 q 1310 507 1294 541 q 1325 429 1325 474 q 1301 340 1325 382 q 1236 257 1276 297 q 1145 181 1196 218 q 1040 111 1094 144 l 1168 111 q 1218 117 1185 111 q 1242 157 1230 136 q 1265 204 1254 179 l 1342 197 l 1342 5 q 1276 1 1314 3 q 1185 0 1238 0 l 915 0 q 870 11 883 0 q 858 54 858 22 q 858 65 858 59 q 859 79 859 72 q 980 190 930 143 q 1063 270 1030 237 q 1113 325 1095 303 q 1137 359 1131 346 q 1149 397 1144 374 q 1154 445 1154 420 m 182 949 q 229 947 212 949 q 256 940 247 945 q 269 926 266 935 q 271 904 271 917 l 271 442 q 272 434 271 437 q 273 427 272 430 l 352 427 l 352 351 q 265 354 307 353 q 185 355 224 355 q 100 354 144 355 q 7 351 56 353 l 7 427 l 86 427 q 88 465 88 435 l 88 865 q 88 874 88 870 q 87 881 88 878 l 15 881 l 15 930 q 182 949 106 949 z "},"":{"ha":1490,"x_min":54,"x_max":1463,"o":"m 857 903 q 867 923 861 913 q 880 941 872 933 q 900 953 888 948 q 930 958 912 958 l 1047 958 l 620 33 q 592 -3 608 8 q 549 -15 576 -15 l 433 -15 l 857 903 m 359 814 q 336 861 359 844 q 279 877 313 877 q 242 870 260 877 q 209 851 224 864 q 180 819 193 838 q 161 773 168 799 l 54 844 q 141 930 88 902 q 278 958 194 958 q 362 949 322 958 q 433 923 403 940 q 482 881 464 906 q 500 823 500 856 q 465 726 500 760 q 366 680 430 692 q 430 661 401 674 q 479 627 459 648 q 511 578 500 606 q 522 513 522 549 q 500 431 522 464 q 442 377 477 397 q 364 349 407 357 q 280 340 321 340 q 71 389 173 340 l 71 538 l 160 530 q 195 448 172 477 q 261 418 218 418 q 326 445 304 418 q 348 517 348 472 q 230 627 348 627 l 165 627 l 170 688 l 218 700 q 270 714 245 704 q 315 740 296 725 q 347 774 335 755 q 359 814 359 793 m 1149 247 l 1149 420 l 1036 247 l 1149 247 m 1147 79 q 1149 97 1148 86 q 1149 123 1149 108 l 1149 165 l 929 165 l 907 203 q 893 238 901 216 q 886 283 886 261 l 1143 659 l 1261 659 q 1291 659 1276 659 q 1316 653 1305 658 q 1335 640 1328 649 q 1342 612 1342 630 l 1342 247 l 1463 247 l 1463 211 q 1458 185 1463 194 q 1442 171 1452 176 q 1418 166 1432 167 q 1390 165 1404 165 l 1342 165 l 1342 123 q 1343 97 1342 108 q 1345 79 1343 86 l 1434 79 l 1434 -5 q 1335 -1 1379 -3 q 1256 0 1291 0 q 1173 -1 1221 0 q 1058 -5 1124 -3 l 1058 79 l 1147 79 z "},"":{"ha":767,"x_min":65,"x_max":650,"o":"m 284 692 l 393 692 q 431 668 411 683 q 467 634 450 653 q 494 594 484 616 q 505 551 505 573 q 497 506 505 527 q 474 465 489 485 q 440 426 460 446 q 397 385 420 406 q 357 343 374 364 q 329 303 340 323 q 312 260 317 282 q 306 213 306 238 q 331 134 306 161 q 395 107 357 107 q 449 111 420 107 q 512 124 477 115 l 512 216 l 650 216 l 650 32 q 560 5 606 18 q 473 -12 521 -4 q 380 -21 426 -21 q 254 -5 312 -21 q 154 41 196 10 q 89 116 113 71 q 66 219 66 161 q 80 292 66 259 q 118 356 94 326 q 174 415 142 386 q 244 475 207 444 q 265 495 256 485 q 278 517 273 505 q 286 546 284 529 q 288 587 288 562 q 288 639 288 610 q 284 692 287 669 m 349 743 q 302 752 323 743 q 267 779 281 762 q 246 815 253 795 q 238 857 238 836 q 245 894 238 876 q 264 926 251 912 q 298 949 277 941 q 347 958 318 958 q 399 948 377 958 q 435 924 421 939 q 456 890 450 909 q 463 851 463 871 q 456 811 463 831 q 435 777 449 792 q 399 752 420 762 q 349 743 378 743 z "},"":{"ha":1132,"x_min":5,"x_max":1132,"o":"m 425 1040 l 231 1291 l 482 1291 l 584 1040 l 425 1040 m 894 0 q 837 -1 871 0 q 758 -3 804 -2 l 649 -7 l 649 77 q 673 79 662 79 q 693 82 685 80 q 707 89 702 84 q 711 102 711 93 q 711 109 711 106 q 709 117 710 113 l 661 264 l 433 264 l 406 174 q 399 143 401 157 q 397 117 397 129 q 402 101 397 107 q 416 91 408 95 q 437 84 425 87 q 463 80 449 82 l 446 -7 q 357 -2 408 -4 q 237 0 305 0 q 98 -2 155 0 q 5 -7 40 -4 l 31 83 l 48 85 q 85 95 71 89 q 110 110 100 100 q 126 134 119 119 q 141 170 133 149 q 226 394 186 289 q 304 593 267 498 q 375 773 341 687 q 442 941 410 859 l 566 941 q 624 939 597 941 q 672 930 651 937 q 708 913 694 924 q 730 882 723 901 q 823 634 783 742 q 892 445 863 526 q 943 307 922 364 q 979 212 964 250 q 1001 152 993 174 q 1013 119 1009 130 q 1018 104 1017 108 q 1019 100 1019 101 l 1114 87 l 1132 -7 q 963 -2 1022 -4 q 894 0 905 0 m 543 682 l 454 368 l 633 368 q 614 433 625 395 q 592 514 604 471 q 568 600 581 557 q 545 682 556 644 l 543 682 z "},"":{"ha":1132,"x_min":5,"x_max":1132,"o":"m 425 1040 l 526 1291 l 794 1291 l 584 1040 l 425 1040 m 894 0 q 837 -1 871 0 q 758 -3 804 -2 l 649 -7 l 649 77 q 673 79 662 79 q 693 82 685 80 q 707 89 702 84 q 711 102 711 93 q 711 109 711 106 q 709 117 710 113 l 661 264 l 433 264 l 406 174 q 399 143 401 157 q 397 117 397 129 q 402 101 397 107 q 416 91 408 95 q 437 84 425 87 q 463 80 449 82 l 446 -7 q 357 -2 408 -4 q 237 0 305 0 q 98 -2 155 0 q 5 -7 40 -4 l 31 83 l 48 85 q 85 95 71 89 q 110 110 100 100 q 126 134 119 119 q 141 170 133 149 q 226 394 186 289 q 304 593 267 498 q 375 773 341 687 q 442 941 410 859 l 566 941 q 624 939 597 941 q 672 930 651 937 q 708 913 694 924 q 730 882 723 901 q 823 634 783 742 q 892 445 863 526 q 943 307 922 364 q 979 212 964 250 q 1001 152 993 174 q 1013 119 1009 130 q 1018 104 1017 108 q 1019 100 1019 101 l 1114 87 l 1132 -7 q 963 -2 1022 -4 q 894 0 905 0 m 543 682 l 454 368 l 633 368 q 614 433 625 395 q 592 514 604 471 q 568 600 581 557 q 545 682 556 644 l 543 682 z "},"":{"ha":1132,"x_min":5,"x_max":1132,"o":"m 357 1040 q 323 1057 323 1040 q 328 1077 323 1066 q 336 1093 333 1088 l 453 1277 l 685 1277 l 789 1112 q 807 1084 799 1097 q 814 1057 814 1072 q 781 1040 814 1040 l 640 1040 l 569 1158 l 505 1040 l 357 1040 m 894 0 q 837 -1 871 0 q 758 -3 804 -2 l 649 -7 l 649 77 q 673 79 662 79 q 693 82 685 80 q 707 89 702 84 q 711 102 711 93 q 711 109 711 106 q 709 117 710 113 l 661 264 l 433 264 l 406 174 q 399 143 401 157 q 397 117 397 129 q 402 101 397 107 q 416 91 408 95 q 437 84 425 87 q 463 80 449 82 l 446 -7 q 357 -2 408 -4 q 237 0 305 0 q 98 -2 155 0 q 5 -7 40 -4 l 31 83 l 48 85 q 85 95 71 89 q 110 110 100 100 q 126 134 119 119 q 141 170 133 149 q 226 394 186 289 q 304 593 267 498 q 375 773 341 687 q 442 941 410 859 l 566 941 q 624 939 597 941 q 672 930 651 937 q 708 913 694 924 q 730 882 723 901 q 823 634 783 742 q 892 445 863 526 q 943 307 922 364 q 979 212 964 250 q 1001 152 993 174 q 1013 119 1009 130 q 1018 104 1017 108 q 1019 100 1019 101 l 1114 87 l 1132 -7 q 963 -2 1022 -4 q 894 0 905 0 m 543 682 l 454 368 l 633 368 q 614 433 625 395 q 592 514 604 471 q 568 600 581 557 q 545 682 556 644 l 543 682 z "},"":{"ha":1132,"x_min":5,"x_max":1132,"o":"m 482 1228 q 554 1215 521 1228 q 625 1183 588 1202 q 650 1170 640 1175 q 666 1163 659 1166 q 677 1160 673 1160 q 684 1159 681 1159 q 762 1232 728 1159 l 848 1192 q 767 1080 808 1118 q 675 1042 726 1042 q 605 1055 637 1042 q 536 1086 572 1067 q 509 1100 519 1095 q 490 1107 498 1105 q 478 1111 483 1110 q 469 1112 473 1112 q 427 1093 445 1112 q 387 1040 410 1074 l 309 1081 q 384 1191 341 1153 q 482 1228 427 1228 m 894 0 q 837 -1 871 0 q 758 -3 804 -2 l 649 -7 l 649 77 q 673 79 662 79 q 693 82 685 80 q 707 89 702 84 q 711 102 711 93 q 711 109 711 106 q 709 117 710 113 l 661 264 l 433 264 l 406 174 q 399 143 401 157 q 397 117 397 129 q 402 101 397 107 q 416 91 408 95 q 437 84 425 87 q 463 80 449 82 l 446 -7 q 357 -2 408 -4 q 237 0 305 0 q 98 -2 155 0 q 5 -7 40 -4 l 31 83 l 48 85 q 85 95 71 89 q 110 110 100 100 q 126 134 119 119 q 141 170 133 149 q 226 394 186 289 q 304 593 267 498 q 375 773 341 687 q 442 941 410 859 l 566 941 q 624 939 597 941 q 672 930 651 937 q 708 913 694 924 q 730 882 723 901 q 823 634 783 742 q 892 445 863 526 q 943 307 922 364 q 979 212 964 250 q 1001 152 993 174 q 1013 119 1009 130 q 1018 104 1017 108 q 1019 100 1019 101 l 1114 87 l 1132 -7 q 963 -2 1022 -4 q 894 0 905 0 m 543 682 l 454 368 l 633 368 q 614 433 625 395 q 592 514 604 471 q 568 600 581 557 q 545 682 556 644 l 543 682 z "},"":{"ha":1132,"x_min":5,"x_max":1132,"o":"m 523 1147 q 492 1069 523 1098 q 411 1040 462 1040 q 330 1069 360 1040 q 299 1147 299 1097 q 308 1190 299 1170 q 331 1223 316 1209 q 367 1244 346 1236 q 411 1252 387 1252 q 456 1244 435 1252 q 491 1223 477 1236 q 514 1190 506 1209 q 523 1147 523 1170 m 859 1147 q 828 1069 859 1097 q 747 1040 798 1040 q 665 1069 696 1040 q 635 1147 635 1097 q 643 1190 635 1170 q 667 1223 652 1209 q 702 1244 682 1236 q 747 1252 723 1252 q 792 1244 771 1252 q 827 1223 812 1236 q 850 1190 842 1209 q 859 1147 859 1170 m 894 0 q 837 -1 871 0 q 758 -3 804 -2 l 649 -7 l 649 77 q 673 79 662 79 q 693 82 685 80 q 707 89 702 84 q 711 102 711 93 q 711 109 711 106 q 709 117 710 113 l 661 264 l 433 264 l 406 174 q 399 143 401 157 q 397 117 397 129 q 402 101 397 107 q 416 91 408 95 q 437 84 425 87 q 463 80 449 82 l 446 -7 q 357 -2 408 -4 q 237 0 305 0 q 98 -2 155 0 q 5 -7 40 -4 l 31 83 l 48 85 q 85 95 71 89 q 110 110 100 100 q 126 134 119 119 q 141 170 133 149 q 226 394 186 289 q 304 593 267 498 q 375 773 341 687 q 442 941 410 859 l 566 941 q 624 939 597 941 q 672 930 651 937 q 708 913 694 924 q 730 882 723 901 q 823 634 783 742 q 892 445 863 526 q 943 307 922 364 q 979 212 964 250 q 1001 152 993 174 q 1013 119 1009 130 q 1018 104 1017 108 q 1019 100 1019 101 l 1114 87 l 1132 -7 q 963 -2 1022 -4 q 894 0 905 0 m 543 682 l 454 368 l 633 368 q 614 433 625 395 q 592 514 604 471 q 568 600 581 557 q 545 682 556 644 l 543 682 z "},"":{"ha":1132,"x_min":5,"x_max":1132,"o":"m 505 1081 q 527 1023 505 1044 q 586 1002 549 1002 q 645 1023 623 1002 q 667 1081 667 1044 q 645 1137 667 1116 q 586 1158 623 1158 q 527 1137 549 1158 q 505 1081 505 1116 m 586 953 q 530 962 555 953 q 486 987 505 970 q 458 1027 468 1004 q 448 1081 448 1051 q 458 1133 448 1110 q 487 1173 469 1156 q 531 1198 505 1189 q 586 1206 556 1206 q 641 1198 616 1206 q 685 1173 667 1189 q 714 1133 703 1156 q 724 1081 724 1110 q 714 1028 724 1052 q 686 988 704 1004 q 642 962 667 971 q 586 953 616 953 m 894 0 q 837 -1 871 0 q 758 -3 804 -2 l 649 -7 l 649 77 q 673 79 662 79 q 693 82 685 80 q 707 89 702 84 q 711 102 711 93 q 711 109 711 106 q 709 117 710 113 l 661 264 l 433 264 l 406 174 q 399 143 401 157 q 397 117 397 129 q 402 101 397 107 q 416 91 408 95 q 437 84 425 87 q 463 80 449 82 l 446 -7 q 357 -2 408 -4 q 237 0 305 0 q 98 -2 155 0 q 5 -7 40 -4 l 31 83 l 48 85 q 85 95 71 89 q 110 110 100 100 q 126 134 119 119 q 141 170 133 149 q 226 394 186 289 q 304 593 267 498 q 375 773 341 687 q 442 941 410 859 l 566 941 q 624 939 597 941 q 672 930 651 937 q 708 913 694 924 q 730 882 723 901 q 823 634 783 742 q 892 445 863 526 q 943 307 922 364 q 979 212 964 250 q 1001 152 993 174 q 1013 119 1009 130 q 1018 104 1017 108 q 1019 100 1019 101 l 1114 87 l 1132 -7 q 963 -2 1022 -4 q 894 0 905 0 m 543 682 l 454 368 l 633 368 q 614 433 625 395 q 592 514 604 471 q 568 600 581 557 q 545 682 556 644 l 543 682 z "},"":{"ha":1474,"x_min":0,"x_max":1514,"o":"m 888 0 q 832 -1 865 0 q 753 -3 798 -2 l 644 -7 l 644 77 l 690 83 q 707 99 707 85 q 703 117 707 103 l 656 264 l 428 264 l 401 174 q 393 141 395 155 q 391 120 391 127 q 397 100 391 108 q 413 89 404 93 q 435 83 423 85 q 457 80 446 81 l 440 -7 q 351 -2 403 -4 q 232 0 300 0 q 92 -2 150 0 q 0 -7 35 -4 l 25 83 l 43 85 q 94 101 76 90 q 121 136 111 112 l 136 173 q 255 478 182 286 q 437 941 329 671 l 1141 941 l 1258 723 l 1114 704 q 1085 755 1101 730 q 1050 804 1069 780 q 901 816 957 816 l 754 816 l 860 527 l 977 527 q 992 534 989 527 q 996 557 996 541 q 990 618 996 580 l 1093 618 l 1200 323 q 1181 322 1191 322 q 1162 322 1172 322 l 1098 322 q 1052 396 1069 372 q 1016 420 1034 420 l 899 420 l 1010 113 l 1200 113 q 1280 122 1256 113 q 1275 168 1279 149 q 1264 213 1270 187 l 1257 245 q 1348 243 1303 243 q 1438 243 1393 243 q 1476 132 1457 190 q 1514 9 1495 73 q 1244 -1 1358 -1 l 888 0 m 448 368 l 627 368 l 526 644 l 448 368 z "},"":{"ha":1032,"x_min":77,"x_max":977,"o":"m 609 107 q 710 115 663 107 q 799 138 757 123 q 880 170 841 152 q 960 209 920 189 l 977 76 q 591 -24 806 -24 q 376 8 472 -24 q 214 100 281 39 q 112 248 148 161 q 77 448 77 336 q 113 667 77 572 q 217 827 149 762 q 383 924 285 891 q 606 958 481 958 q 700 952 653 958 q 793 936 747 947 q 882 907 839 924 q 962 867 924 890 l 947 680 l 724 680 l 705 726 q 690 763 699 743 q 669 800 682 783 q 641 828 657 817 q 604 840 625 840 q 441 748 498 840 q 384 475 384 656 q 440 202 384 298 q 609 107 496 107 m 663 -184 q 617 -299 663 -260 q 488 -338 570 -338 q 368 -310 412 -338 l 368 -248 q 459 -264 422 -264 q 525 -248 500 -264 q 550 -197 550 -231 q 482 -121 550 -132 q 457 -126 479 -121 q 447 -121 454 -123 q 422 -111 440 -118 l 480 7 l 549 7 l 511 -65 q 576 -74 547 -67 q 624 -95 604 -81 q 653 -131 643 -109 q 663 -184 663 -153 z "},"":{"ha":992,"x_min":39,"x_max":948,"o":"m 505 1040 l 311 1291 l 562 1291 l 664 1040 l 505 1040 m 39 924 q 503 941 290 941 q 649 941 588 941 q 753 941 711 941 q 822 941 795 941 q 865 941 849 941 q 890 941 882 941 q 906 941 899 941 l 943 723 l 792 704 q 782 756 789 731 q 764 804 775 781 q 621 816 679 816 l 473 816 l 473 527 l 591 527 q 611 536 604 527 q 624 560 619 546 q 631 589 628 574 q 637 618 633 605 l 739 618 l 739 323 q 720 322 730 322 q 701 322 711 322 l 637 322 q 626 370 631 351 q 615 400 621 389 q 604 416 610 412 q 591 420 598 420 l 473 420 l 473 113 l 663 113 q 745 122 719 113 q 755 166 750 136 q 767 245 760 196 q 854 243 810 243 q 948 243 897 243 q 945 125 947 184 q 939 9 943 67 q 665 -1 779 -1 q 512 -1 581 -1 q 386 -1 444 -1 q 281 -1 329 -1 q 192 0 233 -1 q 113 0 150 0 q 39 1 75 1 l 39 113 l 179 113 q 181 138 180 125 q 182 166 182 151 l 182 753 q 181 789 182 773 q 179 816 180 804 l 39 816 l 39 924 z "},"":{"ha":992,"x_min":39,"x_max":948,"o":"m 471 1040 l 572 1291 l 840 1291 l 630 1040 l 471 1040 m 39 924 q 503 941 290 941 q 649 941 588 941 q 753 941 711 941 q 822 941 795 941 q 865 941 849 941 q 890 941 882 941 q 906 941 899 941 l 943 723 l 792 704 q 782 756 789 731 q 764 804 775 781 q 621 816 679 816 l 473 816 l 473 527 l 591 527 q 611 536 604 527 q 624 560 619 546 q 631 589 628 574 q 637 618 633 605 l 739 618 l 739 323 q 720 322 730 322 q 701 322 711 322 l 637 322 q 626 370 631 351 q 615 400 621 389 q 604 416 610 412 q 591 420 598 420 l 473 420 l 473 113 l 663 113 q 745 122 719 113 q 755 166 750 136 q 767 245 760 196 q 854 243 810 243 q 948 243 897 243 q 945 125 947 184 q 939 9 943 67 q 665 -1 779 -1 q 512 -1 581 -1 q 386 -1 444 -1 q 281 -1 329 -1 q 192 0 233 -1 q 113 0 150 0 q 39 1 75 1 l 39 113 l 179 113 q 181 138 180 125 q 182 166 182 151 l 182 753 q 181 789 182 773 q 179 816 180 804 l 39 816 l 39 924 z "},"":{"ha":992,"x_min":39,"x_max":948,"o":"m 365 1040 q 332 1057 332 1040 q 336 1077 332 1066 q 345 1093 341 1088 l 461 1277 l 693 1277 l 798 1112 q 815 1084 807 1097 q 823 1057 823 1072 q 789 1040 823 1040 l 648 1040 l 577 1158 l 513 1040 l 365 1040 m 39 924 q 503 941 290 941 q 649 941 588 941 q 753 941 711 941 q 822 941 795 941 q 865 941 849 941 q 890 941 882 941 q 906 941 899 941 l 943 723 l 792 704 q 782 756 789 731 q 764 804 775 781 q 621 816 679 816 l 473 816 l 473 527 l 591 527 q 611 536 604 527 q 624 560 619 546 q 631 589 628 574 q 637 618 633 605 l 739 618 l 739 323 q 720 322 730 322 q 701 322 711 322 l 637 322 q 626 370 631 351 q 615 400 621 389 q 604 416 610 412 q 591 420 598 420 l 473 420 l 473 113 l 663 113 q 745 122 719 113 q 755 166 750 136 q 767 245 760 196 q 854 243 810 243 q 948 243 897 243 q 945 125 947 184 q 939 9 943 67 q 665 -1 779 -1 q 512 -1 581 -1 q 386 -1 444 -1 q 281 -1 329 -1 q 192 0 233 -1 q 113 0 150 0 q 39 1 75 1 l 39 113 l 179 113 q 181 138 180 125 q 182 166 182 151 l 182 753 q 181 789 182 773 q 179 816 180 804 l 39 816 l 39 924 z "},"":{"ha":992,"x_min":39,"x_max":948,"o":"m 467 1147 q 437 1069 467 1098 q 355 1040 406 1040 q 274 1069 304 1040 q 243 1147 243 1097 q 252 1190 243 1170 q 275 1223 260 1209 q 311 1244 290 1236 q 355 1252 332 1252 q 400 1244 380 1252 q 436 1223 421 1236 q 459 1190 450 1209 q 467 1147 467 1170 m 803 1147 q 772 1069 803 1097 q 691 1040 742 1040 q 610 1069 640 1040 q 579 1147 579 1097 q 588 1190 579 1170 q 611 1223 596 1209 q 647 1244 626 1236 q 691 1252 667 1252 q 736 1244 715 1252 q 771 1223 757 1236 q 794 1190 786 1209 q 803 1147 803 1170 m 39 924 q 503 941 290 941 q 649 941 588 941 q 753 941 711 941 q 822 941 795 941 q 865 941 849 941 q 890 941 882 941 q 906 941 899 941 l 943 723 l 792 704 q 782 756 789 731 q 764 804 775 781 q 621 816 679 816 l 473 816 l 473 527 l 591 527 q 611 536 604 527 q 624 560 619 546 q 631 589 628 574 q 637 618 633 605 l 739 618 l 739 323 q 720 322 730 322 q 701 322 711 322 l 637 322 q 626 370 631 351 q 615 400 621 389 q 604 416 610 412 q 591 420 598 420 l 473 420 l 473 113 l 663 113 q 745 122 719 113 q 755 166 750 136 q 767 245 760 196 q 854 243 810 243 q 948 243 897 243 q 945 125 947 184 q 939 9 943 67 q 665 -1 779 -1 q 512 -1 581 -1 q 386 -1 444 -1 q 281 -1 329 -1 q 192 0 233 -1 q 113 0 150 0 q 39 1 75 1 l 39 113 l 179 113 q 181 138 180 125 q 182 166 182 151 l 182 753 q 181 789 182 773 q 179 816 180 804 l 39 816 l 39 924 z "},"":{"ha":629,"x_min":28,"x_max":591,"o":"m 222 1040 l 28 1291 l 280 1291 l 382 1040 l 222 1040 m 323 0 q 191 -2 262 0 q 39 -7 121 -4 l 39 113 l 165 113 q 169 176 169 132 l 169 762 q 168 798 169 783 q 165 824 167 814 l 39 824 l 39 934 q 178 945 113 941 q 302 949 243 949 q 463 946 392 949 q 591 938 534 943 l 591 824 l 463 824 q 461 797 462 812 q 460 762 460 781 l 460 176 q 461 141 460 157 q 463 113 462 126 l 591 113 l 591 -7 q 448 -2 515 -4 q 323 0 381 0 z "},"":{"ha":629,"x_min":39,"x_max":593,"o":"m 222 1040 l 324 1291 l 592 1291 l 382 1040 l 222 1040 m 323 0 q 191 -2 262 0 q 39 -7 121 -4 l 39 113 l 165 113 q 169 176 169 132 l 169 762 q 168 798 169 783 q 165 824 167 814 l 39 824 l 39 934 q 178 945 113 941 q 302 949 243 949 q 463 946 392 949 q 591 938 534 943 l 591 824 l 463 824 q 461 797 462 812 q 460 762 460 781 l 460 176 q 461 141 460 157 q 463 113 462 126 l 591 113 l 591 -7 q 448 -2 515 -4 q 323 0 381 0 z "},"":{"ha":629,"x_min":39,"x_max":591,"o":"m 90 1040 q 57 1057 57 1040 q 62 1077 57 1066 q 70 1093 66 1088 l 186 1277 l 418 1277 l 523 1112 q 540 1084 532 1097 q 548 1057 548 1072 q 514 1040 548 1040 l 374 1040 l 302 1158 l 238 1040 l 90 1040 m 323 0 q 191 -2 262 0 q 39 -7 121 -4 l 39 113 l 165 113 q 169 176 169 132 l 169 762 q 168 798 169 783 q 165 824 167 814 l 39 824 l 39 934 q 178 945 113 941 q 302 949 243 949 q 463 946 392 949 q 591 938 534 943 l 591 824 l 463 824 q 461 797 462 812 q 460 762 460 781 l 460 176 q 461 141 460 157 q 463 113 462 126 l 591 113 l 591 -7 q 448 -2 515 -4 q 323 0 381 0 z "},"":{"ha":629,"x_min":22,"x_max":591,"o":"m 247 1147 q 216 1069 247 1098 q 135 1040 186 1040 q 54 1069 84 1040 q 23 1147 23 1097 q 32 1190 23 1170 q 55 1223 40 1209 q 91 1244 70 1236 q 135 1252 111 1252 q 180 1244 159 1252 q 215 1223 201 1236 q 238 1190 230 1209 q 247 1147 247 1170 m 583 1147 q 552 1069 583 1097 q 471 1040 522 1040 q 389 1069 420 1040 q 359 1147 359 1097 q 367 1190 359 1170 q 391 1223 376 1209 q 426 1244 406 1236 q 471 1252 447 1252 q 516 1244 495 1252 q 551 1223 536 1236 q 574 1190 566 1209 q 583 1147 583 1170 m 323 0 q 191 -2 262 0 q 39 -7 121 -4 l 39 113 l 165 113 q 169 176 169 132 l 169 762 q 168 798 169 783 q 165 824 167 814 l 39 824 l 39 934 q 178 945 113 941 q 302 949 243 949 q 463 946 392 949 q 591 938 534 943 l 591 824 l 463 824 q 461 797 462 812 q 460 762 460 781 l 460 176 q 461 141 460 157 q 463 113 462 126 l 591 113 l 591 -7 q 448 -2 515 -4 q 323 0 381 0 z "},"":{"ha":1160,"x_min":39,"x_max":1084,"o":"m 633 534 l 633 480 q 629 461 633 471 q 616 442 625 451 q 591 428 607 433 q 552 422 575 422 l 39 422 l 39 475 q 46 505 39 493 q 63 523 52 516 q 88 531 74 529 q 117 534 102 534 l 633 534 m 556 941 q 784 912 686 941 q 949 826 883 884 q 1050 677 1016 768 q 1084 463 1084 587 q 1044 252 1084 339 q 933 108 1005 164 q 761 26 861 52 q 538 0 661 0 l 44 0 l 44 102 l 173 102 q 174 110 173 102 q 175 129 174 117 q 176 156 176 140 q 177 189 177 172 l 177 741 q 171 818 177 787 l 39 818 l 39 926 q 556 941 269 941 m 778 467 q 768 613 778 548 q 731 725 758 679 q 656 796 704 771 q 532 821 608 821 q 526 821 530 821 q 515 821 522 821 q 497 821 508 821 q 468 821 486 821 l 468 116 q 480 115 474 115 q 491 115 486 115 q 630 140 575 115 q 719 210 686 164 q 765 321 751 256 q 778 467 778 386 z "},"":{"ha":1190,"x_min":39,"x_max":1151,"o":"m 515 1228 q 587 1215 553 1228 q 658 1183 621 1202 q 682 1170 673 1175 q 699 1163 692 1166 q 709 1160 705 1160 q 717 1159 713 1159 q 795 1232 761 1159 l 881 1192 q 800 1080 841 1118 q 707 1042 758 1042 q 637 1055 670 1042 q 568 1086 605 1067 q 541 1100 552 1095 q 523 1107 530 1105 q 510 1111 515 1110 q 501 1112 505 1112 q 460 1093 477 1112 q 419 1040 442 1074 l 341 1081 q 417 1191 374 1153 q 515 1228 460 1228 m 293 0 q 178 -2 241 0 q 39 -9 115 -4 l 39 113 l 178 113 q 182 176 182 130 l 182 762 q 181 797 182 781 q 179 824 180 812 l 39 824 l 39 929 q 176 944 106 939 q 319 949 245 949 q 390 945 354 949 q 464 934 425 941 q 624 693 536 824 q 820 404 712 562 l 820 762 q 814 825 820 808 l 676 825 l 676 937 q 903 949 754 949 q 1031 947 970 949 q 1151 940 1092 945 l 1151 825 l 1027 825 q 1025 800 1026 816 q 1024 763 1024 785 l 1024 0 l 866 0 q 811 2 840 0 q 747 7 782 4 l 408 536 l 408 178 q 409 162 408 172 q 410 142 410 152 q 412 124 411 133 q 412 113 412 116 l 547 113 l 547 -9 q 406 -2 469 -4 q 293 0 342 0 z "},"":{"ha":1144,"x_min":77,"x_max":1067,"o":"m 492 1040 l 298 1291 l 550 1291 l 652 1040 l 492 1040 m 383 465 q 430 204 383 294 q 572 113 477 113 q 712 200 663 113 q 762 467 762 288 q 713 739 762 648 q 572 829 664 829 q 433 739 483 829 q 383 465 383 649 m 1067 467 q 1033 263 1067 353 q 934 112 998 174 q 778 18 869 50 q 572 -15 686 -15 q 364 19 456 -15 q 208 115 272 52 q 111 266 144 177 q 77 467 77 355 q 111 675 77 584 q 209 829 145 766 q 365 925 273 892 q 572 958 457 958 q 781 924 689 958 q 937 826 873 890 q 1034 672 1000 763 q 1067 467 1067 581 z "},"":{"ha":1144,"x_min":77,"x_max":1067,"o":"m 492 1040 l 594 1291 l 862 1291 l 652 1040 l 492 1040 m 383 465 q 430 204 383 294 q 572 113 477 113 q 712 200 663 113 q 762 467 762 288 q 713 739 762 648 q 572 829 664 829 q 433 739 483 829 q 383 465 383 649 m 1067 467 q 1033 263 1067 353 q 934 112 998 174 q 778 18 869 50 q 572 -15 686 -15 q 364 19 456 -15 q 208 115 272 52 q 111 266 144 177 q 77 467 77 355 q 111 675 77 584 q 209 829 145 766 q 365 925 273 892 q 572 958 457 958 q 781 924 689 958 q 937 826 873 890 q 1034 672 1000 763 q 1067 467 1067 581 z "},"":{"ha":1144,"x_min":77,"x_max":1067,"o":"m 360 1040 q 327 1057 327 1040 q 332 1077 327 1066 q 340 1093 336 1088 l 456 1277 l 688 1277 l 793 1112 q 810 1084 802 1097 q 818 1057 818 1072 q 784 1040 818 1040 l 644 1040 l 572 1158 l 508 1040 l 360 1040 m 383 465 q 430 204 383 294 q 572 113 477 113 q 712 200 663 113 q 762 467 762 288 q 713 739 762 648 q 572 829 664 829 q 433 739 483 829 q 383 465 383 649 m 1067 467 q 1033 263 1067 353 q 934 112 998 174 q 778 18 869 50 q 572 -15 686 -15 q 364 19 456 -15 q 208 115 272 52 q 111 266 144 177 q 77 467 77 355 q 111 675 77 584 q 209 829 145 766 q 365 925 273 892 q 572 958 457 958 q 781 924 689 958 q 937 826 873 890 q 1034 672 1000 763 q 1067 467 1067 581 z "},"":{"ha":1144,"x_min":77,"x_max":1067,"o":"m 476 1228 q 548 1215 515 1228 q 619 1183 582 1202 q 644 1170 634 1175 q 660 1163 653 1166 q 671 1160 667 1160 q 678 1159 675 1159 q 756 1232 722 1159 l 842 1192 q 761 1080 802 1118 q 669 1042 720 1042 q 599 1055 631 1042 q 530 1086 566 1067 q 503 1100 513 1095 q 484 1107 492 1105 q 472 1111 477 1110 q 463 1112 467 1112 q 421 1093 439 1112 q 380 1040 404 1074 l 302 1081 q 378 1191 335 1153 q 476 1228 421 1228 m 383 465 q 430 204 383 294 q 572 113 477 113 q 712 200 663 113 q 762 467 762 288 q 713 739 762 648 q 572 829 664 829 q 433 739 483 829 q 383 465 383 649 m 1067 467 q 1033 263 1067 353 q 934 112 998 174 q 778 18 869 50 q 572 -15 686 -15 q 364 19 456 -15 q 208 115 272 52 q 111 266 144 177 q 77 467 77 355 q 111 675 77 584 q 209 829 145 766 q 365 925 273 892 q 572 958 457 958 q 781 924 689 958 q 937 826 873 890 q 1034 672 1000 763 q 1067 467 1067 581 z "},"":{"ha":1144,"x_min":77,"x_max":1067,"o":"m 517 1147 q 486 1069 517 1098 q 405 1040 456 1040 q 323 1069 354 1040 q 293 1147 293 1097 q 301 1190 293 1170 q 325 1223 310 1209 q 360 1244 340 1236 q 405 1252 381 1252 q 450 1244 429 1252 q 485 1223 471 1236 q 508 1190 500 1209 q 517 1147 517 1170 m 852 1147 q 822 1069 852 1097 q 741 1040 791 1040 q 659 1069 690 1040 q 629 1147 629 1097 q 637 1190 629 1170 q 661 1223 646 1209 q 696 1244 675 1236 q 741 1252 717 1252 q 786 1244 765 1252 q 821 1223 806 1236 q 844 1190 836 1209 q 852 1147 852 1170 m 383 465 q 430 204 383 294 q 572 113 477 113 q 712 200 663 113 q 762 467 762 288 q 713 739 762 648 q 572 829 664 829 q 433 739 483 829 q 383 465 383 649 m 1067 467 q 1033 263 1067 353 q 934 112 998 174 q 778 18 869 50 q 572 -15 686 -15 q 364 19 456 -15 q 208 115 272 52 q 111 266 144 177 q 77 467 77 355 q 111 675 77 584 q 209 829 145 766 q 365 925 273 892 q 572 958 457 958 q 781 924 689 958 q 937 826 873 890 q 1034 672 1000 763 q 1067 467 1067 581 z "},"":{"ha":921,"x_min":113,"x_max":807,"o":"m 236 775 l 460 549 l 684 775 l 807 649 l 583 425 l 807 200 l 682 78 l 460 301 l 237 78 l 113 200 l 336 425 l 113 649 l 236 775 z "},"":{"ha":1144,"x_min":77,"x_max":1067,"o":"m 842 1005 l 419 -37 q 368 -62 409 -62 l 318 -62 l 739 975 q 756 998 745 991 q 791 1005 768 1005 l 842 1005 m 383 465 q 430 204 383 294 q 572 113 477 113 q 712 200 663 113 q 762 467 762 288 q 713 739 762 648 q 572 829 664 829 q 433 739 483 829 q 383 465 383 649 m 1067 467 q 1033 263 1067 353 q 934 112 998 174 q 778 18 869 50 q 572 -15 686 -15 q 364 19 456 -15 q 208 115 272 52 q 111 266 144 177 q 77 467 77 355 q 111 675 77 584 q 209 829 145 766 q 365 925 273 892 q 572 958 457 958 q 781 924 689 958 q 937 826 873 890 q 1034 672 1000 763 q 1067 467 1067 581 z "},"":{"ha":1164,"x_min":22,"x_max":1142,"o":"m 518 1040 l 324 1291 l 576 1291 l 677 1040 l 518 1040 m 1015 824 q 1012 797 1013 812 q 1011 762 1011 781 l 1011 349 q 976 183 1011 252 q 882 70 941 114 q 743 5 822 26 q 576 -15 664 -15 q 258 85 364 -15 q 153 392 153 185 l 153 762 q 152 798 153 783 q 149 824 151 814 l 22 824 l 22 941 q 302 949 178 949 q 395 948 356 949 q 464 946 435 947 q 515 944 494 945 q 556 941 537 943 l 556 824 l 449 824 q 445 792 446 807 q 444 762 444 777 l 444 346 q 454 250 444 293 q 483 176 464 207 q 530 130 502 146 q 595 113 559 113 q 672 135 642 113 q 719 195 702 157 q 743 283 736 233 q 749 391 749 334 l 749 762 q 748 798 749 783 q 746 824 747 814 l 646 824 l 646 941 q 894 949 762 949 q 981 948 943 949 q 1048 946 1019 947 q 1100 944 1077 945 q 1142 941 1122 943 l 1142 824 l 1015 824 z "},"":{"ha":1164,"x_min":22,"x_max":1142,"o":"m 518 1040 l 620 1291 l 888 1291 l 677 1040 l 518 1040 m 1015 824 q 1012 797 1013 812 q 1011 762 1011 781 l 1011 349 q 976 183 1011 252 q 882 70 941 114 q 743 5 822 26 q 576 -15 664 -15 q 258 85 364 -15 q 153 392 153 185 l 153 762 q 152 798 153 783 q 149 824 151 814 l 22 824 l 22 941 q 302 949 178 949 q 395 948 356 949 q 464 946 435 947 q 515 944 494 945 q 556 941 537 943 l 556 824 l 449 824 q 445 792 446 807 q 444 762 444 777 l 444 346 q 454 250 444 293 q 483 176 464 207 q 530 130 502 146 q 595 113 559 113 q 672 135 642 113 q 719 195 702 157 q 743 283 736 233 q 749 391 749 334 l 749 762 q 748 798 749 783 q 746 824 747 814 l 646 824 l 646 941 q 894 949 762 949 q 981 948 943 949 q 1048 946 1019 947 q 1100 944 1077 945 q 1142 941 1122 943 l 1142 824 l 1015 824 z "},"":{"ha":1164,"x_min":22,"x_max":1142,"o":"m 386 1040 q 353 1057 353 1040 q 357 1077 353 1066 q 366 1093 362 1088 l 482 1277 l 714 1277 l 819 1112 q 836 1084 828 1097 q 844 1057 844 1072 q 810 1040 844 1040 l 669 1040 l 598 1158 l 534 1040 l 386 1040 m 1015 824 q 1012 797 1013 812 q 1011 762 1011 781 l 1011 349 q 976 183 1011 252 q 882 70 941 114 q 743 5 822 26 q 576 -15 664 -15 q 258 85 364 -15 q 153 392 153 185 l 153 762 q 152 798 153 783 q 149 824 151 814 l 22 824 l 22 941 q 302 949 178 949 q 395 948 356 949 q 464 946 435 947 q 515 944 494 945 q 556 941 537 943 l 556 824 l 449 824 q 445 792 446 807 q 444 762 444 777 l 444 346 q 454 250 444 293 q 483 176 464 207 q 530 130 502 146 q 595 113 559 113 q 672 135 642 113 q 719 195 702 157 q 743 283 736 233 q 749 391 749 334 l 749 762 q 748 798 749 783 q 746 824 747 814 l 646 824 l 646 941 q 894 949 762 949 q 981 948 943 949 q 1048 946 1019 947 q 1100 944 1077 945 q 1142 941 1122 943 l 1142 824 l 1015 824 z "},"":{"ha":1164,"x_min":22,"x_max":1142,"o":"m 543 1147 q 512 1069 543 1098 q 431 1040 481 1040 q 349 1069 380 1040 q 319 1147 319 1097 q 327 1190 319 1170 q 351 1223 336 1209 q 386 1244 366 1236 q 431 1252 407 1252 q 476 1244 455 1252 q 511 1223 496 1236 q 534 1190 526 1209 q 543 1147 543 1170 m 878 1147 q 848 1069 878 1097 q 766 1040 817 1040 q 685 1069 715 1040 q 654 1147 654 1097 q 663 1190 654 1170 q 686 1223 671 1209 q 722 1244 701 1236 q 766 1252 743 1252 q 811 1244 791 1252 q 847 1223 832 1236 q 870 1190 861 1209 q 878 1147 878 1170 m 1015 824 q 1012 797 1013 812 q 1011 762 1011 781 l 1011 349 q 976 183 1011 252 q 882 70 941 114 q 743 5 822 26 q 576 -15 664 -15 q 258 85 364 -15 q 153 392 153 185 l 153 762 q 152 798 153 783 q 149 824 151 814 l 22 824 l 22 941 q 302 949 178 949 q 395 948 356 949 q 464 946 435 947 q 515 944 494 945 q 556 941 537 943 l 556 824 l 449 824 q 445 792 446 807 q 444 762 444 777 l 444 346 q 454 250 444 293 q 483 176 464 207 q 530 130 502 146 q 595 113 559 113 q 672 135 642 113 q 719 195 702 157 q 743 283 736 233 q 749 391 749 334 l 749 762 q 748 798 749 783 q 746 824 747 814 l 646 824 l 646 941 q 894 949 762 949 q 981 948 943 949 q 1048 946 1019 947 q 1100 944 1077 945 q 1142 941 1122 943 l 1142 824 l 1015 824 z "},"":{"ha":1069,"x_min":0,"x_max":1069,"o":"m 492 1040 l 594 1291 l 862 1291 l 652 1040 l 492 1040 m 399 100 q 402 121 401 109 q 403 147 403 132 l 403 334 l 147 762 q 132 789 138 777 q 122 809 126 801 q 113 820 117 817 q 102 824 109 824 l 16 824 l 0 941 q 248 949 133 949 l 319 949 q 513 941 429 949 l 523 824 l 436 824 q 451 782 446 797 q 458 765 456 768 l 599 510 l 718 762 q 727 788 724 773 q 733 824 730 802 l 627 824 l 651 941 q 846 949 735 949 l 896 949 q 1069 941 976 949 l 1053 824 l 953 824 q 941 803 948 818 q 922 762 934 787 q 916 752 920 760 q 903 728 912 745 q 878 682 894 711 q 838 608 862 653 q 778 498 813 562 q 696 348 743 435 l 696 162 q 697 128 696 144 q 700 100 699 113 l 827 100 l 827 -7 q 685 -2 751 -4 q 558 0 618 0 q 426 -2 496 0 q 273 -7 355 -4 l 273 100 l 399 100 z "},"":{"ha":886,"x_min":39,"x_max":923,"o":"m 923 487 q 483 197 923 197 q 472 198 479 197 q 461 199 465 198 l 461 132 q 463 111 461 119 q 465 100 464 103 l 593 100 l 593 7 q 459 -6 531 -2 q 302 -11 388 -11 q 176 -6 241 -11 q 39 10 111 -1 l 39 100 l 165 100 q 169 162 169 118 l 169 775 q 168 810 169 795 q 165 838 167 826 l 39 838 l 39 927 q 188 943 119 938 q 323 949 257 949 q 470 944 402 949 q 593 931 537 940 l 593 838 l 466 838 q 463 811 464 829 q 462 776 462 793 l 513 776 q 673 763 599 776 q 803 716 748 749 q 890 627 858 683 q 923 487 922 572 m 627 486 q 619 561 627 529 q 595 615 612 593 q 551 647 578 636 q 485 658 524 658 l 460 658 l 460 317 q 467 317 464 317 q 473 317 469 317 l 486 317 q 594 360 561 317 q 627 486 627 404 z "},"":{"ha":1000,"x_min":1,"x_max":994,"o":"m 538 862 q 474 844 498 862 q 437 795 450 825 q 420 725 425 764 q 416 644 416 686 l 416 0 l 377 0 q 208 -2 301 0 q 1 -7 115 -4 l 1 113 l 127 113 q 132 176 132 132 l 132 574 l 29 574 q 43 631 29 614 q 94 648 57 648 l 132 648 q 164 783 135 725 q 244 880 194 841 q 363 938 295 918 q 512 958 431 958 q 670 942 601 958 q 788 897 740 927 q 861 820 836 866 q 886 713 886 774 q 882 673 886 691 q 871 640 879 656 q 853 609 864 625 q 825 572 842 593 q 747 588 785 588 q 691 572 712 588 q 670 526 670 557 q 678 486 670 502 q 700 459 686 470 q 734 441 714 448 q 779 427 755 433 l 789 424 q 872 395 834 412 q 937 353 909 378 q 979 294 964 328 q 994 212 994 259 q 967 108 994 151 q 898 38 941 65 q 804 -2 856 10 q 701 -15 751 -15 q 600 -8 656 -15 q 474 13 543 -1 l 501 207 l 593 172 q 621 114 599 136 q 676 92 643 92 q 734 118 713 92 q 755 183 755 144 q 748 212 755 199 q 728 239 742 225 q 693 267 714 252 q 642 300 671 281 q 564 354 595 330 q 514 404 533 379 q 487 454 495 428 q 479 515 479 481 q 487 583 479 555 q 512 628 496 610 q 553 656 528 646 q 610 673 578 667 q 638 712 627 687 q 649 765 649 736 q 620 837 649 812 q 538 862 590 862 z "},"":{"ha":907,"x_min":62,"x_max":863,"o":"m 332 764 l 138 1015 l 390 1015 l 492 764 l 332 764 m 453 315 q 371 281 400 315 q 341 191 341 247 q 358 116 341 138 q 398 94 374 94 q 473 130 431 94 l 473 315 l 453 315 m 863 22 q 580 -7 733 -7 q 534 30 554 11 q 498 69 513 50 q 305 -15 418 -15 q 206 -2 251 -15 q 130 36 161 11 q 80 99 98 62 q 62 186 62 137 q 161 343 62 290 q 460 395 259 395 l 473 395 l 473 418 q 466 542 473 503 q 438 580 458 580 q 349 539 399 580 q 243 428 298 499 l 80 532 q 110 594 80 566 q 188 641 140 621 q 295 671 236 661 q 412 682 354 682 q 559 668 494 682 q 667 622 623 654 q 734 537 711 590 q 758 408 758 485 q 757 363 758 389 q 757 306 757 338 l 757 186 q 758 131 757 153 q 760 100 759 110 q 782 99 771 100 q 806 99 793 99 l 863 99 l 863 22 z "},"":{"ha":907,"x_min":62,"x_max":863,"o":"m 332 764 l 434 1015 l 702 1015 l 492 764 l 332 764 m 453 315 q 371 281 400 315 q 341 191 341 247 q 358 116 341 138 q 398 94 374 94 q 473 130 431 94 l 473 315 l 453 315 m 863 22 q 580 -7 733 -7 q 534 30 554 11 q 498 69 513 50 q 305 -15 418 -15 q 206 -2 251 -15 q 130 36 161 11 q 80 99 98 62 q 62 186 62 137 q 161 343 62 290 q 460 395 259 395 l 473 395 l 473 418 q 466 542 473 503 q 438 580 458 580 q 349 539 399 580 q 243 428 298 499 l 80 532 q 110 594 80 566 q 188 641 140 621 q 295 671 236 661 q 412 682 354 682 q 559 668 494 682 q 667 622 623 654 q 734 537 711 590 q 758 408 758 485 q 757 363 758 389 q 757 306 757 338 l 757 186 q 758 131 757 153 q 760 100 759 110 q 782 99 771 100 q 806 99 793 99 l 863 99 l 863 22 z "},"":{"ha":907,"x_min":62,"x_max":863,"o":"m 199 764 q 166 781 166 764 q 171 801 166 790 q 179 817 176 812 l 296 1001 l 528 1001 l 632 836 q 649 808 642 821 q 657 781 657 795 q 623 764 657 764 l 483 764 l 412 882 l 347 764 l 199 764 m 453 315 q 371 281 400 315 q 341 191 341 247 q 358 116 341 138 q 398 94 374 94 q 473 130 431 94 l 473 315 l 453 315 m 863 22 q 580 -7 733 -7 q 534 30 554 11 q 498 69 513 50 q 305 -15 418 -15 q 206 -2 251 -15 q 130 36 161 11 q 80 99 98 62 q 62 186 62 137 q 161 343 62 290 q 460 395 259 395 l 473 395 l 473 418 q 466 542 473 503 q 438 580 458 580 q 349 539 399 580 q 243 428 298 499 l 80 532 q 110 594 80 566 q 188 641 140 621 q 295 671 236 661 q 412 682 354 682 q 559 668 494 682 q 667 622 623 654 q 734 537 711 590 q 758 408 758 485 q 757 363 758 389 q 757 306 757 338 l 757 186 q 758 131 757 153 q 760 100 759 110 q 782 99 771 100 q 806 99 793 99 l 863 99 l 863 22 z "},"":{"ha":907,"x_min":62,"x_max":863,"o":"m 315 952 q 388 939 354 952 q 458 907 421 926 q 483 894 473 899 q 499 887 492 890 q 510 884 506 884 q 517 883 514 883 q 595 956 562 883 l 682 916 q 600 804 642 842 q 508 766 559 766 q 438 779 471 766 q 369 810 406 791 q 342 824 353 819 q 323 831 331 829 q 311 835 316 834 q 302 836 306 836 q 260 817 278 836 q 220 764 243 798 l 142 805 q 217 915 174 877 q 315 952 260 952 m 453 315 q 371 281 400 315 q 341 191 341 247 q 358 116 341 138 q 398 94 374 94 q 473 130 431 94 l 473 315 l 453 315 m 863 22 q 580 -7 733 -7 q 534 30 554 11 q 498 69 513 50 q 305 -15 418 -15 q 206 -2 251 -15 q 130 36 161 11 q 80 99 98 62 q 62 186 62 137 q 161 343 62 290 q 460 395 259 395 l 473 395 l 473 418 q 466 542 473 503 q 438 580 458 580 q 349 539 399 580 q 243 428 298 499 l 80 532 q 110 594 80 566 q 188 641 140 621 q 295 671 236 661 q 412 682 354 682 q 559 668 494 682 q 667 622 623 654 q 734 537 711 590 q 758 408 758 485 q 757 363 758 389 q 757 306 757 338 l 757 186 q 758 131 757 153 q 760 100 759 110 q 782 99 771 100 q 806 99 793 99 l 863 99 l 863 22 z "},"":{"ha":907,"x_min":62,"x_max":863,"o":"m 355 871 q 325 793 355 822 q 243 764 294 764 q 162 793 193 764 q 132 871 132 821 q 140 913 132 894 q 163 947 149 933 q 199 968 178 960 q 243 976 220 976 q 289 968 268 976 q 324 947 309 960 q 347 913 338 933 q 355 871 355 894 m 691 871 q 661 793 691 821 q 579 764 630 764 q 498 793 528 764 q 467 871 467 821 q 476 913 467 894 q 499 947 484 933 q 535 968 514 960 q 579 976 555 976 q 624 968 604 976 q 660 947 645 960 q 683 913 674 933 q 691 871 691 894 m 453 315 q 371 281 400 315 q 341 191 341 247 q 358 116 341 138 q 398 94 374 94 q 473 130 431 94 l 473 315 l 453 315 m 863 22 q 580 -7 733 -7 q 534 30 554 11 q 498 69 513 50 q 305 -15 418 -15 q 206 -2 251 -15 q 130 36 161 11 q 80 99 98 62 q 62 186 62 137 q 161 343 62 290 q 460 395 259 395 l 473 395 l 473 418 q 466 542 473 503 q 438 580 458 580 q 349 539 399 580 q 243 428 298 499 l 80 532 q 110 594 80 566 q 188 641 140 621 q 295 671 236 661 q 412 682 354 682 q 559 668 494 682 q 667 622 623 654 q 734 537 711 590 q 758 408 758 485 q 757 363 758 389 q 757 306 757 338 l 757 186 q 758 131 757 153 q 760 100 759 110 q 782 99 771 100 q 806 99 793 99 l 863 99 l 863 22 z "},"":{"ha":907,"x_min":62,"x_max":863,"o":"m 331 892 q 353 835 331 856 q 412 814 375 814 q 470 835 448 814 q 492 892 492 856 q 470 948 492 927 q 412 969 448 969 q 353 948 375 969 q 331 892 331 927 m 412 764 q 356 773 381 764 q 312 799 330 782 q 283 839 294 815 q 273 892 273 863 q 284 945 273 922 q 313 984 294 968 q 356 1009 331 1000 q 412 1018 382 1018 q 467 1009 441 1018 q 511 984 492 1000 q 539 945 529 968 q 550 892 550 922 q 540 840 550 863 q 511 799 530 816 q 468 773 493 783 q 412 764 442 764 m 453 315 q 371 281 400 315 q 341 191 341 247 q 358 116 341 138 q 398 94 374 94 q 473 130 431 94 l 473 315 l 453 315 m 863 22 q 580 -7 733 -7 q 534 30 554 11 q 498 69 513 50 q 305 -15 418 -15 q 206 -2 251 -15 q 130 36 161 11 q 80 99 98 62 q 62 186 62 137 q 161 343 62 290 q 460 395 259 395 l 473 395 l 473 418 q 466 542 473 503 q 438 580 458 580 q 349 539 399 580 q 243 428 298 499 l 80 532 q 110 594 80 566 q 188 641 140 621 q 295 671 236 661 q 412 682 354 682 q 559 668 494 682 q 667 622 623 654 q 734 537 711 590 q 758 408 758 485 q 757 363 758 389 q 757 306 757 338 l 757 186 q 758 131 757 153 q 760 100 759 110 q 782 99 771 100 q 806 99 793 99 l 863 99 l 863 22 z "},"":{"ha":1215,"x_min":62,"x_max":1201,"o":"m 965 115 q 1155 166 1050 115 l 1167 64 q 880 -15 1056 -15 q 600 64 709 -15 q 534 33 568 47 q 465 8 500 19 q 394 -9 429 -3 q 326 -15 359 -15 q 220 -2 268 -15 q 137 36 172 11 q 82 99 102 61 q 62 186 62 136 q 161 343 62 290 q 460 395 259 395 l 473 395 l 473 418 q 466 542 473 503 q 438 580 458 580 q 349 539 399 580 q 243 428 298 499 l 80 532 q 110 594 80 566 q 188 641 140 621 q 295 671 236 661 q 412 682 354 682 q 654 610 570 682 q 882 682 751 682 q 1010 663 952 682 q 1111 611 1069 645 q 1177 528 1154 577 q 1201 417 1201 479 q 1193 357 1201 380 q 1165 321 1184 334 q 1117 304 1146 309 q 1044 300 1087 300 l 764 300 q 829 164 780 214 q 965 115 879 115 m 453 315 q 371 281 400 315 q 341 191 341 247 q 418 94 341 94 q 544 117 465 94 q 474 312 481 195 l 473 315 l 453 315 m 936 400 l 936 412 q 930 476 936 447 q 915 527 925 506 q 889 561 905 549 q 855 573 874 573 q 764 400 780 573 l 936 400 z "},"":{"ha":814,"x_min":65,"x_max":764,"o":"m 486 100 q 558 105 525 100 q 623 120 591 110 q 684 144 654 130 q 747 180 714 159 l 758 71 q 471 -15 642 -15 q 305 8 380 -15 q 177 75 230 31 q 94 183 123 119 q 65 330 65 248 q 100 489 65 422 q 193 598 135 555 q 325 661 250 641 q 480 682 400 682 q 764 591 659 682 l 752 457 l 568 457 q 515 542 538 517 q 468 567 491 567 q 423 553 444 567 q 387 512 402 539 q 363 444 372 485 q 354 350 354 404 q 387 164 354 229 q 486 100 420 100 m 555 -184 q 508 -299 555 -260 q 380 -338 462 -338 q 260 -310 304 -338 l 260 -248 q 351 -264 313 -264 q 416 -248 391 -264 q 441 -197 441 -231 q 374 -121 441 -132 q 349 -126 370 -121 q 338 -121 345 -123 q 314 -111 332 -118 l 372 7 l 440 7 l 402 -65 q 467 -74 439 -67 q 515 -95 496 -81 q 545 -131 534 -109 q 555 -184 555 -153 z "},"":{"ha":851,"x_min":65,"x_max":793,"o":"m 395 764 l 201 1015 l 452 1015 l 554 764 l 395 764 m 528 400 l 528 412 q 522 476 528 447 q 507 527 517 506 q 481 561 496 549 q 447 573 466 573 q 355 400 372 573 l 528 400 m 557 115 q 747 166 642 115 l 759 64 q 471 -15 648 -15 q 303 8 378 -15 q 175 77 228 32 q 94 188 122 122 q 65 338 65 254 q 94 477 65 414 q 177 585 123 540 q 306 656 231 631 q 474 682 381 682 q 602 663 544 682 q 703 611 661 645 q 769 528 745 577 q 793 417 793 479 q 784 357 793 380 q 757 321 776 334 q 708 304 738 309 q 636 300 679 300 l 356 300 q 421 164 372 214 q 557 115 471 115 z "},"":{"ha":851,"x_min":65,"x_max":793,"o":"m 395 764 l 496 1015 l 764 1015 l 554 764 l 395 764 m 528 400 l 528 412 q 522 476 528 447 q 507 527 517 506 q 481 561 496 549 q 447 573 466 573 q 355 400 372 573 l 528 400 m 557 115 q 747 166 642 115 l 759 64 q 471 -15 648 -15 q 303 8 378 -15 q 175 77 228 32 q 94 188 122 122 q 65 338 65 254 q 94 477 65 414 q 177 585 123 540 q 306 656 231 631 q 474 682 381 682 q 602 663 544 682 q 703 611 661 645 q 769 528 745 577 q 793 417 793 479 q 784 357 793 380 q 757 321 776 334 q 708 304 738 309 q 636 300 679 300 l 356 300 q 421 164 372 214 q 557 115 471 115 z "},"":{"ha":851,"x_min":65,"x_max":793,"o":"m 262 764 q 229 781 229 764 q 233 801 229 790 q 241 817 238 812 l 358 1001 l 590 1001 l 694 836 q 712 808 704 821 q 720 781 720 795 q 686 764 720 764 l 545 764 l 474 882 l 410 764 l 262 764 m 528 400 l 528 412 q 522 476 528 447 q 507 527 517 506 q 481 561 496 549 q 447 573 466 573 q 355 400 372 573 l 528 400 m 557 115 q 747 166 642 115 l 759 64 q 471 -15 648 -15 q 303 8 378 -15 q 175 77 228 32 q 94 188 122 122 q 65 338 65 254 q 94 477 65 414 q 177 585 123 540 q 306 656 231 631 q 474 682 381 682 q 602 663 544 682 q 703 611 661 645 q 769 528 745 577 q 793 417 793 479 q 784 357 793 380 q 757 321 776 334 q 708 304 738 309 q 636 300 679 300 l 356 300 q 421 164 372 214 q 557 115 471 115 z "},"":{"ha":851,"x_min":65,"x_max":793,"o":"m 418 871 q 387 793 418 822 q 306 764 357 764 q 224 793 255 764 q 194 871 194 821 q 202 913 194 894 q 226 947 211 933 q 261 968 241 960 q 306 976 282 976 q 351 968 330 976 q 386 947 372 960 q 409 913 401 933 q 418 871 418 894 m 753 871 q 723 793 753 821 q 642 764 692 764 q 560 793 591 764 q 530 871 530 821 q 538 913 530 894 q 562 947 547 933 q 597 968 576 960 q 642 976 618 976 q 687 968 666 976 q 722 947 707 960 q 745 913 736 933 q 753 871 753 894 m 528 400 l 528 412 q 522 476 528 447 q 507 527 517 506 q 481 561 496 549 q 447 573 466 573 q 355 400 372 573 l 528 400 m 557 115 q 747 166 642 115 l 759 64 q 471 -15 648 -15 q 303 8 378 -15 q 175 77 228 32 q 94 188 122 122 q 65 338 65 254 q 94 477 65 414 q 177 585 123 540 q 306 656 231 631 q 474 682 381 682 q 602 663 544 682 q 703 611 661 645 q 769 528 745 577 q 793 417 793 479 q 784 357 793 380 q 757 321 776 334 q 708 304 738 309 q 636 300 679 300 l 356 300 q 421 164 372 214 q 557 115 471 115 z "},"":{"ha":489,"x_min":-1,"x_max":530,"o":"m 193 764 l -1 1015 l 250 1015 l 352 764 l 193 764 m 24 644 q 273 674 161 674 q 385 658 345 674 q 425 610 425 642 l 425 162 q 431 100 425 125 l 521 100 l 530 22 q 290 -7 399 -7 q 177 10 218 -7 q 136 64 136 28 q 137 91 136 74 q 138 127 138 109 q 140 164 139 146 q 140 193 140 182 l 140 559 l 24 559 l 24 644 z "},"":{"ha":489,"x_min":24,"x_max":563,"o":"m 193 764 l 294 1015 l 562 1015 l 352 764 l 193 764 m 24 644 q 273 674 161 674 q 385 658 345 674 q 425 610 425 642 l 425 162 q 431 100 425 125 l 521 100 l 530 22 q 290 -7 399 -7 q 177 10 218 -7 q 136 64 136 28 q 137 91 136 74 q 138 127 138 109 q 140 164 139 146 q 140 193 140 182 l 140 559 l 24 559 l 24 644 z "},"":{"ha":489,"x_min":24,"x_max":530,"o":"m 60 764 q 27 781 27 764 q 32 801 27 790 q 40 817 37 812 l 157 1001 l 389 1001 l 493 836 q 510 808 503 821 q 518 781 518 795 q 484 764 518 764 l 344 764 l 273 882 l 208 764 l 60 764 m 24 644 q 273 674 161 674 q 385 658 345 674 q 425 610 425 642 l 425 162 q 431 100 425 125 l 521 100 l 530 22 q 290 -7 399 -7 q 177 10 218 -7 q 136 64 136 28 q 137 91 136 74 q 138 127 138 109 q 140 164 139 146 q 140 193 140 182 l 140 559 l 24 559 l 24 644 z "},"":{"ha":489,"x_min":-7,"x_max":553,"o":"m 217 871 q 186 793 217 822 q 105 764 156 764 q 24 793 54 764 q -7 871 -7 821 q 2 913 -7 894 q 25 947 10 933 q 61 968 40 960 q 105 976 81 976 q 150 968 130 976 q 185 947 171 960 q 209 913 200 933 q 217 871 217 894 m 553 871 q 522 793 553 821 q 441 764 492 764 q 359 793 390 764 q 329 871 329 821 q 337 913 329 894 q 361 947 346 933 q 396 968 376 960 q 441 976 417 976 q 486 968 465 976 q 521 947 507 960 q 544 913 536 933 q 553 871 553 894 m 24 644 q 273 674 161 674 q 385 658 345 674 q 425 610 425 642 l 425 162 q 431 100 425 125 l 521 100 l 530 22 q 290 -7 399 -7 q 177 10 218 -7 q 136 64 136 28 q 137 91 136 74 q 138 127 138 109 q 140 164 139 146 q 140 193 140 182 l 140 559 l 24 559 l 24 644 z "},"":{"ha":850,"x_min":52,"x_max":837,"o":"m 353 860 q 162 916 272 900 l 213 1004 q 506 949 414 988 l 683 1055 l 768 954 q 689 908 724 929 q 631 876 654 888 q 837 407 837 703 q 810 230 837 309 q 732 96 783 151 q 608 12 682 41 q 440 -18 534 -18 q 281 7 353 -18 q 159 76 210 31 q 80 186 108 121 q 52 330 52 250 q 67 436 52 389 q 109 522 82 484 q 173 586 136 559 q 253 631 210 613 q 344 657 296 649 q 440 666 391 666 q 484 665 464 666 q 519 661 504 664 q 462 774 494 736 l 300 679 l 218 783 l 353 860 m 454 89 q 495 108 477 89 q 525 162 513 127 q 542 247 536 197 q 548 359 548 297 q 547 441 548 404 q 540 511 545 478 q 495 551 523 540 q 440 562 467 562 q 370 504 393 562 q 346 332 346 445 q 351 222 346 268 q 369 146 356 176 q 402 103 381 117 q 454 89 422 89 z "},"":{"ha":1016,"x_min":47,"x_max":1000,"o":"m 427 953 q 499 940 466 953 q 570 907 533 927 q 595 895 585 899 q 611 888 604 890 q 622 884 618 885 q 629 884 626 884 q 707 957 673 884 l 793 917 q 712 805 753 843 q 620 767 671 767 q 550 780 583 767 q 481 811 517 792 q 454 824 465 819 q 435 832 443 829 q 423 836 428 835 q 414 837 418 837 q 372 818 390 837 q 332 765 355 798 l 254 806 q 329 915 286 878 q 427 953 372 953 m 47 644 q 312 674 191 674 q 360 671 330 674 q 435 663 390 669 l 438 590 q 571 658 504 633 q 700 682 638 682 q 785 666 749 682 q 846 621 822 650 q 883 548 871 591 q 895 450 895 505 l 895 168 q 901 100 895 124 l 991 100 l 1000 16 q 760 -15 870 -15 q 606 58 606 -15 q 607 84 606 67 q 608 121 608 102 q 610 157 609 140 q 610 186 610 175 l 610 440 q 551 548 610 548 q 448 501 505 548 l 448 158 q 451 127 448 139 q 461 107 454 115 q 481 95 469 100 q 511 86 493 90 l 519 -7 q 370 -2 425 -4 q 295 0 315 0 q 189 -2 241 0 q 84 -7 137 -4 l 88 85 q 125 93 111 89 q 149 106 140 97 q 161 133 157 116 q 164 180 164 150 l 164 559 l 47 559 l 47 644 z "},"":{"ha":935,"x_min":65,"x_max":869,"o":"m 388 764 l 194 1015 l 446 1015 l 547 764 l 388 764 m 869 331 q 835 175 869 240 q 745 67 801 110 q 616 5 689 25 q 468 -15 544 -15 q 305 9 379 -15 q 177 78 231 33 q 95 187 124 123 q 65 331 65 251 q 99 489 65 422 q 190 598 134 555 q 319 661 247 641 q 468 682 391 682 q 631 657 557 682 q 758 587 705 633 q 840 476 810 541 q 869 331 869 412 m 359 332 q 386 157 359 214 q 467 100 412 100 q 550 159 526 100 q 575 332 575 218 q 549 510 575 452 q 467 567 523 567 q 385 509 410 567 q 359 332 359 452 z "},"":{"ha":935,"x_min":65,"x_max":869,"o":"m 388 764 l 490 1015 l 758 1015 l 547 764 l 388 764 m 869 331 q 835 175 869 240 q 745 67 801 110 q 616 5 689 25 q 468 -15 544 -15 q 305 9 379 -15 q 177 78 231 33 q 95 187 124 123 q 65 331 65 251 q 99 489 65 422 q 190 598 134 555 q 319 661 247 641 q 468 682 391 682 q 631 657 557 682 q 758 587 705 633 q 840 476 810 541 q 869 331 869 412 m 359 332 q 386 157 359 214 q 467 100 412 100 q 550 159 526 100 q 575 332 575 218 q 549 510 575 452 q 467 567 523 567 q 385 509 410 567 q 359 332 359 452 z "},"":{"ha":935,"x_min":65,"x_max":869,"o":"m 256 764 q 222 781 222 764 q 227 801 222 790 q 235 817 232 812 l 352 1001 l 584 1001 l 688 836 q 706 808 698 821 q 713 781 713 795 q 680 764 713 764 l 539 764 l 468 882 l 404 764 l 256 764 m 869 331 q 835 175 869 240 q 745 67 801 110 q 616 5 689 25 q 468 -15 544 -15 q 305 9 379 -15 q 177 78 231 33 q 95 187 124 123 q 65 331 65 251 q 99 489 65 422 q 190 598 134 555 q 319 661 247 641 q 468 682 391 682 q 631 657 557 682 q 758 587 705 633 q 840 476 810 541 q 869 331 869 412 m 359 332 q 386 157 359 214 q 467 100 412 100 q 550 159 526 100 q 575 332 575 218 q 549 510 575 452 q 467 567 523 567 q 385 509 410 567 q 359 332 359 452 z "},"":{"ha":935,"x_min":65,"x_max":869,"o":"m 372 952 q 444 939 410 952 q 515 907 477 926 q 539 894 530 899 q 555 887 549 890 q 566 884 562 884 q 574 883 570 883 q 652 956 618 883 l 738 916 q 656 804 698 842 q 564 766 615 766 q 494 779 527 766 q 425 810 462 791 q 398 824 409 819 q 380 831 387 829 q 367 835 372 834 q 358 836 362 836 q 317 817 334 836 q 276 764 299 798 l 198 805 q 274 915 231 877 q 372 952 317 952 m 869 331 q 835 175 869 240 q 745 67 801 110 q 616 5 689 25 q 468 -15 544 -15 q 305 9 379 -15 q 177 78 231 33 q 95 187 124 123 q 65 331 65 251 q 99 489 65 422 q 190 598 134 555 q 319 661 247 641 q 468 682 391 682 q 631 657 557 682 q 758 587 705 633 q 840 476 810 541 q 869 331 869 412 m 359 332 q 386 157 359 214 q 467 100 412 100 q 550 159 526 100 q 575 332 575 218 q 549 510 575 452 q 467 567 523 567 q 385 509 410 567 q 359 332 359 452 z "},"":{"ha":935,"x_min":65,"x_max":869,"o":"m 412 871 q 382 793 412 822 q 300 764 351 764 q 219 793 250 764 q 189 871 189 821 q 197 913 189 894 q 220 947 205 933 q 256 968 235 960 q 300 976 277 976 q 346 968 325 976 q 381 947 366 960 q 404 913 395 933 q 412 871 412 894 m 748 871 q 718 793 748 821 q 636 764 687 764 q 555 793 585 764 q 524 871 524 821 q 533 913 524 894 q 556 947 541 933 q 592 968 571 960 q 636 976 612 976 q 681 968 661 976 q 716 947 702 960 q 740 913 731 933 q 748 871 748 894 m 869 331 q 835 175 869 240 q 745 67 801 110 q 616 5 689 25 q 468 -15 544 -15 q 305 9 379 -15 q 177 78 231 33 q 95 187 124 123 q 65 331 65 251 q 99 489 65 422 q 190 598 134 555 q 319 661 247 641 q 468 682 391 682 q 631 657 557 682 q 758 587 705 633 q 840 476 810 541 q 869 331 869 412 m 359 332 q 386 157 359 214 q 467 100 412 100 q 550 159 526 100 q 575 332 575 218 q 549 510 575 452 q 467 567 523 567 q 385 509 410 567 q 359 332 359 452 z "},"":{"ha":718,"x_min":90,"x_max":627,"o":"m 466 583 q 437 508 466 536 q 360 481 409 481 q 283 508 311 481 q 254 583 254 536 q 262 623 254 605 q 284 655 270 642 q 318 675 298 668 q 360 682 337 682 q 402 675 383 682 q 436 655 422 668 q 458 623 450 642 q 466 583 466 605 m 463 101 q 435 27 463 54 q 357 0 406 0 q 280 27 309 0 q 252 101 252 54 q 259 142 252 123 q 281 173 267 160 q 315 194 296 186 q 357 201 334 201 q 400 194 380 201 q 433 173 419 186 q 455 142 448 160 q 463 101 463 123 m 627 349 q 614 301 627 321 q 576 281 601 281 l 90 281 l 90 343 q 94 372 90 361 q 106 389 98 383 q 129 398 115 395 q 163 400 142 400 l 627 400 l 627 349 z "},"":{"ha":935,"x_min":65,"x_max":869,"o":"m 682 756 l 374 -64 q 323 -89 365 -89 l 273 -89 l 579 726 q 597 749 585 742 q 631 756 608 756 l 682 756 m 869 331 q 835 175 869 240 q 745 67 801 110 q 616 5 689 25 q 468 -15 544 -15 q 305 9 379 -15 q 177 78 231 33 q 95 187 124 123 q 65 331 65 251 q 99 489 65 422 q 190 598 134 555 q 319 661 247 641 q 468 682 391 682 q 631 657 557 682 q 758 587 705 633 q 840 476 810 541 q 869 331 869 412 m 359 332 q 386 157 359 214 q 467 100 412 100 q 550 159 526 100 q 575 332 575 218 q 549 510 575 452 q 467 567 523 567 q 385 509 410 567 q 359 332 359 452 z "},"":{"ha":926,"x_min":-12,"x_max":930,"o":"m 376 764 l 182 1015 l 434 1015 l 536 764 l 376 764 m 439 644 q 680 674 570 674 q 734 670 709 674 q 780 659 760 667 q 810 639 799 651 q 821 610 821 627 l 821 184 q 827 100 821 123 l 930 100 l 930 24 q 677 -7 793 -7 q 620 -5 645 -7 q 577 5 595 -3 q 550 30 560 14 q 539 74 541 46 q 312 -15 424 -15 q 221 0 262 -15 q 153 43 181 15 q 109 111 124 71 q 94 201 94 151 l 94 559 l -3 559 l -12 644 q 233 674 123 674 q 339 658 300 674 q 378 610 378 642 l 378 189 q 380 160 378 175 q 385 132 381 144 q 397 110 389 119 q 419 102 405 102 q 450 106 433 102 q 481 118 466 111 q 511 135 497 125 q 534 153 524 144 q 535 168 534 160 q 535 188 535 176 q 536 216 536 199 q 536 256 536 233 q 536 263 536 258 q 536 278 536 267 q 536 307 536 288 q 536 359 536 326 q 536 440 536 392 q 536 559 536 489 l 446 559 l 439 644 z "},"":{"ha":926,"x_min":-12,"x_max":930,"o":"m 376 764 l 478 1015 l 746 1015 l 536 764 l 376 764 m 439 644 q 680 674 570 674 q 734 670 709 674 q 780 659 760 667 q 810 639 799 651 q 821 610 821 627 l 821 184 q 827 100 821 123 l 930 100 l 930 24 q 677 -7 793 -7 q 620 -5 645 -7 q 577 5 595 -3 q 550 30 560 14 q 539 74 541 46 q 312 -15 424 -15 q 221 0 262 -15 q 153 43 181 15 q 109 111 124 71 q 94 201 94 151 l 94 559 l -3 559 l -12 644 q 233 674 123 674 q 339 658 300 674 q 378 610 378 642 l 378 189 q 380 160 378 175 q 385 132 381 144 q 397 110 389 119 q 419 102 405 102 q 450 106 433 102 q 481 118 466 111 q 511 135 497 125 q 534 153 524 144 q 535 168 534 160 q 535 188 535 176 q 536 216 536 199 q 536 256 536 233 q 536 263 536 258 q 536 278 536 267 q 536 307 536 288 q 536 359 536 326 q 536 440 536 392 q 536 559 536 489 l 446 559 l 439 644 z "},"":{"ha":926,"x_min":-12,"x_max":930,"o":"m 244 764 q 211 781 211 764 q 216 801 211 790 q 224 817 220 812 l 340 1001 l 572 1001 l 677 836 q 694 808 686 821 q 702 781 702 795 q 668 764 702 764 l 528 764 l 456 882 l 392 764 l 244 764 m 439 644 q 680 674 570 674 q 734 670 709 674 q 780 659 760 667 q 810 639 799 651 q 821 610 821 627 l 821 184 q 827 100 821 123 l 930 100 l 930 24 q 677 -7 793 -7 q 620 -5 645 -7 q 577 5 595 -3 q 550 30 560 14 q 539 74 541 46 q 312 -15 424 -15 q 221 0 262 -15 q 153 43 181 15 q 109 111 124 71 q 94 201 94 151 l 94 559 l -3 559 l -12 644 q 233 674 123 674 q 339 658 300 674 q 378 610 378 642 l 378 189 q 380 160 378 175 q 385 132 381 144 q 397 110 389 119 q 419 102 405 102 q 450 106 433 102 q 481 118 466 111 q 511 135 497 125 q 534 153 524 144 q 535 168 534 160 q 535 188 535 176 q 536 216 536 199 q 536 256 536 233 q 536 263 536 258 q 536 278 536 267 q 536 307 536 288 q 536 359 536 326 q 536 440 536 392 q 536 559 536 489 l 446 559 l 439 644 z "},"":{"ha":926,"x_min":-12,"x_max":930,"o":"m 400 871 q 370 793 400 822 q 288 764 339 764 q 207 793 237 764 q 176 871 176 821 q 185 913 176 894 q 208 947 193 933 q 244 968 223 960 q 288 976 264 976 q 333 968 313 976 q 369 947 354 960 q 392 913 383 933 q 400 871 400 894 m 736 871 q 705 793 736 821 q 624 764 675 764 q 543 793 573 764 q 512 871 512 821 q 520 913 512 894 q 544 947 529 933 q 579 968 559 960 q 624 976 600 976 q 669 968 648 976 q 704 947 690 960 q 727 913 719 933 q 736 871 736 894 m 439 644 q 680 674 570 674 q 734 670 709 674 q 780 659 760 667 q 810 639 799 651 q 821 610 821 627 l 821 184 q 827 100 821 123 l 930 100 l 930 24 q 677 -7 793 -7 q 620 -5 645 -7 q 577 5 595 -3 q 550 30 560 14 q 539 74 541 46 q 312 -15 424 -15 q 221 0 262 -15 q 153 43 181 15 q 109 111 124 71 q 94 201 94 151 l 94 559 l -3 559 l -12 644 q 233 674 123 674 q 339 658 300 674 q 378 610 378 642 l 378 189 q 380 160 378 175 q 385 132 381 144 q 397 110 389 119 q 419 102 405 102 q 450 106 433 102 q 481 118 466 111 q 511 135 497 125 q 534 153 524 144 q 535 168 534 160 q 535 188 535 176 q 536 216 536 199 q 536 256 536 233 q 536 263 536 258 q 536 278 536 267 q 536 307 536 288 q 536 359 536 326 q 536 440 536 392 q 536 559 536 489 l 446 559 l 439 644 z "},"":{"ha":865,"x_min":0,"x_max":865,"o":"m 396 764 l 498 1015 l 766 1015 l 555 764 l 396 764 m 702 674 q 730 673 716 674 q 762 671 744 673 q 805 667 781 670 q 865 659 829 664 l 865 559 l 776 559 l 580 7 q 530 -105 557 -56 q 461 -188 503 -154 q 359 -238 420 -221 q 209 -256 298 -256 q 43 -231 112 -256 l 75 -115 q 229 -147 161 -147 q 276 -134 258 -147 q 306 -99 294 -120 q 322 -51 317 -77 q 332 1 328 -25 l 87 559 l 0 559 l 0 659 q 117 670 55 667 q 249 674 179 674 q 315 670 275 674 q 413 659 355 667 q 429 559 423 624 l 378 559 l 475 267 q 520 418 499 346 q 558 559 541 491 l 489 559 l 503 659 q 610 670 561 667 q 702 674 659 674 z "},"":{"ha":886,"x_min":1,"x_max":884,"o":"m 403 635 q 586 682 498 682 q 718 653 662 682 q 811 577 774 624 q 866 469 848 530 q 884 345 884 409 q 852 189 884 256 q 766 79 820 123 q 642 14 712 35 q 496 -7 572 -7 q 455 -7 479 -7 q 403 -5 431 -6 l 403 -123 q 405 -168 403 -151 q 413 -193 406 -184 q 435 -207 420 -202 q 477 -219 450 -212 l 484 -308 l 406 -300 q 357 -296 378 -298 q 318 -293 336 -294 q 284 -292 300 -292 q 250 -291 268 -291 q 165 -295 217 -291 q 39 -308 113 -299 l 43 -218 l 64 -214 q 90 -209 79 -212 q 107 -198 100 -205 q 116 -179 113 -191 q 119 -146 119 -167 l 119 848 l 1 848 l 1 925 q 273 958 134 958 l 313 958 q 359 955 342 958 q 386 943 376 951 q 399 920 396 935 q 403 880 403 905 l 403 635 m 515 567 q 403 535 473 567 l 403 95 q 421 94 412 94 q 439 94 430 94 l 488 94 q 564 156 536 94 q 592 342 592 218 q 515 567 592 567 z "},"":{"ha":865,"x_min":0,"x_max":865,"o":"m 419 871 q 389 793 419 822 q 307 764 358 764 q 226 793 256 764 q 195 871 195 821 q 204 913 195 894 q 227 947 212 933 q 263 968 242 960 q 307 976 283 976 q 352 968 332 976 q 388 947 373 960 q 411 913 402 933 q 419 871 419 894 m 755 871 q 724 793 755 821 q 643 764 694 764 q 562 793 592 764 q 531 871 531 821 q 539 913 531 894 q 563 947 548 933 q 598 968 578 960 q 643 976 619 976 q 688 968 667 976 q 723 947 709 960 q 746 913 738 933 q 755 871 755 894 m 702 674 q 730 673 716 674 q 762 671 744 673 q 805 667 781 670 q 865 659 829 664 l 865 559 l 776 559 l 580 7 q 530 -105 557 -56 q 461 -188 503 -154 q 359 -238 420 -221 q 209 -256 298 -256 q 43 -231 112 -256 l 75 -115 q 229 -147 161 -147 q 276 -134 258 -147 q 306 -99 294 -120 q 322 -51 317 -77 q 332 1 328 -25 l 87 559 l 0 559 l 0 659 q 117 670 55 667 q 249 674 179 674 q 315 670 275 674 q 413 659 355 667 q 429 559 423 624 l 378 559 l 475 267 q 520 418 499 346 q 558 559 541 491 l 489 559 l 503 659 q 610 670 561 667 q 702 674 659 674 z "},"":{"ha":940,"x_min":18,"x_max":960,"o":"m 267 0 q 161 -2 213 0 q 56 -7 109 -4 l 59 85 q 96 93 81 89 q 119 106 111 97 q 132 133 128 116 q 135 180 135 150 l 135 709 l 33 709 l 33 790 l 135 790 l 135 805 q 133 848 135 832 l 18 848 l 18 925 q 290 958 151 958 l 330 958 q 376 955 359 958 q 403 943 393 951 q 416 920 413 935 q 420 880 420 905 l 420 790 l 519 790 l 519 709 l 420 709 l 420 598 q 535 658 473 635 q 661 682 597 682 q 748 665 711 682 q 808 616 785 648 q 844 539 832 585 q 855 437 855 494 l 855 168 q 861 100 855 124 l 951 100 l 960 16 q 720 -15 831 -15 q 567 58 567 -15 q 568 84 567 67 q 569 121 568 102 q 570 157 570 140 q 571 186 571 175 l 571 422 q 570 464 571 441 q 564 505 569 486 q 548 536 559 524 q 518 548 537 548 q 474 537 498 548 q 420 501 450 527 l 420 158 q 423 127 420 139 q 433 107 426 115 q 452 95 440 100 q 483 86 465 90 l 490 -7 q 341 -2 397 -4 q 267 0 286 0 z "},"":{"ha":629,"x_min":33,"x_max":591,"o":"m 206 1228 q 278 1215 245 1228 q 349 1183 312 1202 q 374 1170 364 1175 q 390 1163 383 1166 q 401 1160 397 1160 q 408 1159 405 1159 q 486 1232 452 1159 l 572 1192 q 491 1080 532 1118 q 399 1042 450 1042 q 329 1055 361 1042 q 260 1086 296 1067 q 233 1100 243 1095 q 214 1107 222 1105 q 202 1111 207 1110 q 193 1112 197 1112 q 151 1093 169 1112 q 111 1040 134 1074 l 33 1081 q 108 1191 65 1153 q 206 1228 151 1228 m 323 0 q 191 -2 262 0 q 39 -7 121 -4 l 39 113 l 165 113 q 169 176 169 132 l 169 762 q 168 798 169 783 q 165 824 167 814 l 39 824 l 39 934 q 178 945 113 941 q 302 949 243 949 q 463 946 392 949 q 591 938 534 943 l 591 824 l 463 824 q 461 797 462 812 q 460 762 460 781 l 460 176 q 461 141 460 157 q 463 113 462 126 l 591 113 l 591 -7 q 448 -2 515 -4 q 323 0 381 0 z "},"":{"ha":489,"x_min":3,"x_max":543,"o":"m 176 952 q 249 939 215 952 q 319 907 282 926 q 344 894 334 899 q 360 887 353 890 q 371 884 367 884 q 378 883 375 883 q 456 956 422 883 l 543 916 q 461 804 503 842 q 369 766 420 766 q 299 779 332 766 q 230 810 267 791 q 203 824 214 819 q 184 831 192 829 q 172 835 177 834 q 163 836 167 836 q 121 817 139 836 q 81 764 104 798 l 3 805 q 78 915 35 877 q 176 952 121 952 m 24 644 q 273 674 161 674 q 385 658 345 674 q 425 610 425 642 l 425 162 q 431 100 425 125 l 521 100 l 530 22 q 290 -7 399 -7 q 177 10 218 -7 q 136 64 136 28 q 137 91 136 74 q 138 127 138 109 q 140 164 139 146 q 140 193 140 182 l 140 559 l 24 559 l 24 644 z "},"":{"ha":489,"x_min":24,"x_max":530,"o":"m 24 644 q 273 674 161 674 q 385 658 345 674 q 425 610 425 642 l 425 162 q 431 100 425 125 l 521 100 l 530 22 q 290 -7 399 -7 q 177 10 218 -7 q 136 64 136 28 q 137 91 136 74 q 138 127 138 109 q 140 164 139 146 q 140 193 140 182 l 140 559 l 24 559 l 24 644 z "},"":{"ha":1262,"x_min":69,"x_max":1240,"o":"m 354 0 q 222 -2 292 0 q 69 -7 151 -4 l 69 113 l 195 113 q 199 176 199 132 l 199 762 q 198 798 199 783 q 196 824 197 814 l 69 824 l 69 934 q 208 945 143 941 q 333 949 273 949 q 493 946 422 949 q 621 938 564 943 l 621 824 l 494 824 q 491 797 492 812 q 490 762 490 781 l 490 176 q 491 141 490 157 q 494 113 492 126 l 621 113 l 621 -7 q 478 -2 545 -4 q 354 0 412 0 m 1112 825 q 1110 800 1111 815 q 1109 762 1109 784 l 1109 146 q 1027 -101 1109 -15 q 787 -187 944 -187 q 562 -150 649 -187 q 565 -105 562 -137 q 572 -20 567 -73 l 581 97 l 747 97 l 756 -63 q 791 -71 774 -71 q 861 1 861 -71 q 857 47 861 22 q 848 88 853 72 l 825 170 q 818 212 818 193 l 818 762 q 817 799 818 783 q 814 825 816 814 l 688 825 l 688 935 q 827 946 762 942 q 951 949 892 949 q 1112 947 1041 949 q 1240 939 1183 944 l 1240 825 l 1112 825 z "},"":{"ha":1185,"x_min":24,"x_max":1064,"o":"m 121 852 q 134 900 121 880 q 170 932 147 920 q 221 951 192 945 q 281 958 250 958 q 344 951 315 958 q 396 930 374 944 q 430 897 418 917 q 443 852 443 878 q 429 804 443 823 q 391 772 414 784 q 339 754 368 760 q 281 748 311 748 q 219 755 249 748 q 168 775 190 762 q 134 807 146 788 q 121 852 121 827 m 24 644 q 273 674 161 674 q 385 658 345 674 q 425 610 425 642 l 425 162 q 431 100 425 125 l 521 100 l 530 22 q 290 -7 399 -7 q 177 10 218 -7 q 136 64 136 28 q 137 91 136 74 q 138 127 138 109 q 140 164 139 146 q 140 193 140 182 l 140 559 l 24 559 l 24 644 m 644 644 q 772 667 711 659 q 887 674 832 674 q 952 670 923 674 q 1003 658 982 666 q 1035 638 1023 650 q 1046 610 1046 626 l 1046 -8 q 970 -233 1046 -158 q 745 -308 895 -308 q 553 -256 610 -308 l 565 -52 l 704 -71 l 717 -189 q 738 -195 729 -195 q 802 -109 802 -195 q 796 -82 802 -104 q 782 -29 789 -60 q 768 36 774 1 q 762 100 762 70 l 762 559 l 644 559 l 644 644 m 742 873 q 755 921 742 901 q 791 954 768 941 q 842 972 813 966 q 903 979 871 979 q 967 971 937 979 q 1018 951 996 964 q 1052 918 1040 938 q 1064 873 1064 898 q 1050 825 1064 844 q 1013 793 1036 805 q 961 775 989 781 q 903 769 932 769 q 840 776 869 769 q 789 796 811 783 q 754 828 767 809 q 742 873 742 848 z "},"":{"ha":691,"x_min":14,"x_max":691,"o":"m 191 1040 q 157 1057 157 1040 q 162 1077 157 1066 q 170 1093 167 1088 l 287 1277 l 519 1277 l 623 1112 q 641 1084 633 1097 q 648 1057 648 1072 q 614 1040 648 1040 l 474 1040 l 403 1158 l 338 1040 l 191 1040 m 564 825 q 562 800 562 815 q 561 762 561 784 l 561 146 q 478 -101 561 -15 q 238 -187 395 -187 q 14 -150 100 -187 q 16 -105 14 -137 q 23 -20 18 -73 l 33 97 l 198 97 l 208 -63 q 242 -71 226 -71 q 313 1 313 -71 q 309 47 313 22 q 300 88 304 72 l 276 170 q 269 212 269 193 l 269 762 q 268 799 269 783 q 266 825 267 814 l 139 825 l 139 935 q 278 946 213 942 q 403 949 343 949 q 563 947 492 949 q 691 939 634 944 l 691 825 l 564 825 z "},"":{"ha":601,"x_min":-5,"x_max":648,"o":"m 191 764 q 157 781 157 764 q 162 801 157 790 q 170 817 167 812 l 287 1001 l 519 1001 l 623 836 q 641 808 633 821 q 648 781 648 795 q 614 764 648 764 l 474 764 l 403 882 l 338 764 l 191 764 m 160 644 q 288 667 227 659 q 403 674 348 674 q 468 670 439 674 q 518 658 498 666 q 550 638 539 650 q 562 610 562 626 l 562 -8 q 480 -235 562 -160 q 241 -309 399 -309 q -5 -256 68 -309 l 33 -72 l 199 -92 l 212 -189 q 254 -195 237 -195 q 318 -109 318 -195 q 314 -63 318 -87 q 306 -22 311 -39 l 283 58 q 279 81 280 71 q 277 100 277 92 l 277 559 l 160 559 l 160 644 z "},"":{"ha":984,"x_min":24,"x_max":984,"o":"m 531 -90 q 643 -134 605 -90 q 682 -253 682 -177 q 665 -347 682 -303 q 617 -432 649 -391 q 537 -511 585 -473 q 427 -588 490 -549 l 363 -525 q 479 -343 442 -450 q 408 -301 435 -334 q 381 -218 381 -269 q 393 -165 381 -189 q 426 -124 406 -141 q 474 -99 447 -108 q 531 -90 501 -90 m 24 925 q 295 958 157 958 l 317 958 q 330 958 323 958 q 344 958 337 958 q 397 951 374 958 q 422 921 419 943 q 425 880 425 905 l 425 427 l 572 527 q 584 545 584 537 q 523 566 584 566 l 523 667 l 952 667 l 952 559 q 892 554 918 559 q 843 540 866 549 q 799 516 821 530 q 750 482 777 501 l 650 409 l 833 128 l 851 111 l 867 98 q 883 88 876 92 q 900 83 891 85 q 920 82 909 82 q 945 81 931 81 l 967 81 l 984 -7 q 884 -2 941 -4 q 757 0 828 0 l 716 0 q 624 -2 667 0 q 542 -7 581 -4 l 538 81 l 577 81 l 446 307 l 425 294 l 425 144 q 430 115 427 125 q 442 98 434 104 q 463 87 450 91 q 498 79 477 83 l 503 -7 q 347 -2 404 -4 q 271 0 290 0 q 165 -2 218 0 q 60 -7 113 -4 l 64 81 q 97 86 83 84 q 121 94 111 88 q 136 114 131 100 q 140 153 140 127 l 140 805 q 138 848 140 832 l 24 848 l 24 925 z "},"":{"ha":953,"x_min":24,"x_max":984,"o":"m 24 642 q 177 668 101 661 q 333 675 253 675 q 365 674 349 675 q 393 669 380 673 q 413 658 405 665 q 422 637 421 650 q 425 597 425 622 l 425 427 l 572 527 q 584 545 584 537 q 523 566 584 566 l 523 667 l 952 667 l 952 559 q 892 554 918 559 q 843 540 866 549 q 799 516 821 530 q 750 482 777 501 l 650 409 l 833 128 q 853 103 844 113 q 872 89 863 94 q 891 82 882 83 q 909 80 900 80 q 930 81 918 80 q 967 81 941 81 l 984 -7 q 884 -2 941 -4 q 757 0 828 0 q 686 0 717 0 q 629 -2 654 -1 q 582 -4 604 -3 q 542 -7 561 -5 l 538 81 l 577 81 l 446 307 l 425 294 l 425 144 q 430 115 427 125 q 442 98 434 104 q 463 87 450 91 q 498 79 477 83 l 503 -7 q 347 -2 404 -4 q 271 0 290 0 q 165 -2 218 0 q 60 -7 113 -4 l 64 81 q 97 86 83 84 q 121 94 111 88 q 136 114 131 100 q 140 153 140 127 l 140 522 q 138 565 140 549 l 24 565 l 24 642 z "},"":{"ha":948,"x_min":39,"x_max":903,"o":"m 465 824 q 460 766 460 804 l 460 113 l 615 113 q 655 122 640 113 q 682 145 671 132 q 698 175 692 159 q 708 205 704 191 q 724 256 715 229 q 743 319 732 283 l 903 298 l 874 0 l 589 0 q 257 -1 384 0 q 83 -8 130 -3 l 83 113 l 166 113 q 168 171 168 144 q 169 221 169 197 l 169 766 q 168 799 169 784 q 165 824 167 813 l 39 824 l 39 934 q 178 945 113 941 q 302 949 243 949 q 463 946 392 949 q 591 938 534 943 l 591 824 l 465 824 m 858 541 q 848 487 858 511 q 821 446 839 463 q 778 420 803 429 q 722 411 753 411 q 667 420 692 411 q 624 446 642 429 q 596 487 606 463 q 587 541 587 511 q 597 593 587 569 q 625 633 607 616 q 668 659 644 650 q 722 668 693 668 q 777 658 751 668 q 820 631 802 648 q 848 591 838 614 q 858 541 858 568 z "},"":{"ha":736,"x_min":24,"x_max":787,"o":"m 24 926 q 282 958 155 958 q 334 956 313 958 q 371 950 355 954 q 400 937 387 945 q 425 913 412 928 l 425 154 q 429 98 425 113 l 536 98 l 536 23 q 290 -6 413 -6 q 197 8 233 -6 q 138 56 161 23 l 138 73 q 140 130 139 100 q 141 192 141 159 l 141 797 q 140 826 141 812 q 138 849 140 839 l 24 849 l 24 926 m 787 393 q 777 339 787 363 q 750 298 768 315 q 707 272 732 281 q 651 263 682 263 q 595 272 621 263 q 552 298 570 281 q 525 339 534 315 q 515 393 515 363 q 526 445 515 421 q 554 485 536 469 q 597 511 572 502 q 651 520 622 520 q 708 510 682 520 q 750 482 733 500 q 777 441 768 465 q 787 393 787 418 z "},"":{"ha":948,"x_min":39,"x_max":903,"o":"m 720 735 l 720 583 l 64 256 l 64 408 l 720 735 m 465 824 q 460 766 460 804 l 460 113 l 615 113 q 655 122 640 113 q 682 145 671 132 q 698 175 692 159 q 708 205 704 191 q 724 256 715 229 q 743 319 732 283 l 903 298 l 874 0 l 589 0 q 257 -1 384 0 q 83 -8 130 -3 l 83 113 l 166 113 q 168 171 168 144 q 169 221 169 197 l 169 766 q 168 799 169 784 q 165 824 167 813 l 39 824 l 39 934 q 178 945 113 941 q 302 949 243 949 q 463 946 392 949 q 591 938 534 943 l 591 824 l 465 824 z "},"":{"ha":560,"x_min":24,"x_max":536,"o":"m 528 781 l 528 614 l 31 299 l 31 463 l 528 781 m 24 926 q 282 958 155 958 q 334 956 313 958 q 371 950 355 954 q 400 937 387 945 q 425 913 412 928 l 425 154 q 429 98 425 113 l 536 98 l 536 23 q 290 -6 413 -6 q 197 8 233 -6 q 138 56 161 23 l 138 73 q 140 130 139 100 q 141 192 141 159 l 141 797 q 140 826 141 812 q 138 849 140 839 l 24 849 l 24 926 z "},"":{"ha":1190,"x_min":39,"x_max":1151,"o":"m 532 1040 l 633 1291 l 901 1291 l 691 1040 l 532 1040 m 293 0 q 178 -2 241 0 q 39 -9 115 -4 l 39 113 l 178 113 q 182 176 182 130 l 182 762 q 181 797 182 781 q 179 824 180 812 l 39 824 l 39 929 q 176 944 106 939 q 319 949 245 949 q 390 945 354 949 q 464 934 425 941 q 624 693 536 824 q 820 404 712 562 l 820 762 q 814 825 820 808 l 676 825 l 676 937 q 903 949 754 949 q 1031 947 970 949 q 1151 940 1092 945 l 1151 825 l 1027 825 q 1025 800 1026 816 q 1024 763 1024 785 l 1024 0 l 866 0 q 811 2 840 0 q 747 7 782 4 l 408 536 l 408 178 q 409 162 408 172 q 410 142 410 152 q 412 124 411 133 q 412 113 412 116 l 547 113 l 547 -9 q 406 -2 469 -4 q 293 0 342 0 z "},"":{"ha":1016,"x_min":47,"x_max":1000,"o":"m 444 765 l 545 1015 l 813 1015 l 603 765 l 444 765 m 47 644 q 312 674 191 674 q 360 671 330 674 q 435 663 390 669 l 438 590 q 571 658 504 633 q 700 682 638 682 q 785 666 749 682 q 846 621 822 650 q 883 548 871 591 q 895 450 895 505 l 895 168 q 901 100 895 124 l 991 100 l 1000 16 q 760 -15 870 -15 q 606 58 606 -15 q 607 84 606 67 q 608 121 608 102 q 610 157 609 140 q 610 186 610 175 l 610 440 q 551 548 610 548 q 448 501 505 548 l 448 158 q 451 127 448 139 q 461 107 454 115 q 481 95 469 100 q 511 86 493 90 l 519 -7 q 370 -2 425 -4 q 295 0 315 0 q 189 -2 241 0 q 84 -7 137 -4 l 88 85 q 125 93 111 89 q 149 106 140 97 q 161 133 157 116 q 164 180 164 150 l 164 559 l 47 559 l 47 644 z "},"":{"ha":1542,"x_min":77,"x_max":1527,"o":"m 762 -8 q 657 -13 704 -12 q 572 -15 610 -15 q 366 17 458 -15 q 210 111 274 50 q 111 260 146 172 q 77 460 77 349 q 112 662 77 574 q 211 810 146 750 q 367 902 275 871 q 572 933 458 933 l 1485 933 l 1522 715 l 1371 696 q 1361 748 1368 723 q 1343 795 1354 772 q 1200 808 1258 808 l 1053 808 l 1053 519 l 1170 519 q 1190 528 1183 519 q 1202 551 1198 537 q 1210 581 1207 565 q 1216 610 1213 596 l 1318 610 l 1318 315 q 1299 314 1309 314 q 1280 314 1290 314 l 1216 314 q 1205 362 1210 343 q 1194 392 1200 381 q 1183 408 1189 404 q 1170 412 1177 412 l 1053 412 l 1053 105 l 1242 105 q 1324 114 1298 105 q 1334 158 1329 127 q 1346 237 1339 188 q 1391 236 1370 236 q 1432 236 1413 236 q 1488 236 1465 236 q 1527 235 1510 235 q 1524 117 1526 176 q 1518 1 1522 59 q 1244 -9 1358 -9 q 1092 -9 1157 -9 q 979 -9 1027 -9 q 898 -9 931 -9 q 840 -9 864 -9 q 797 -8 815 -9 q 762 -8 779 -8 m 383 458 q 430 201 383 290 q 572 113 477 113 l 762 113 l 762 805 l 572 805 q 433 718 483 805 q 383 458 383 631 z "},"":{"ha":1299,"x_min":65,"x_max":1232,"o":"m 996 115 q 1186 166 1081 115 l 1198 64 q 911 -15 1087 -15 q 688 59 772 -15 q 454 -15 594 -15 q 297 9 368 -15 q 174 78 225 33 q 94 188 122 123 q 65 331 65 252 q 98 487 65 420 q 184 596 130 553 q 309 661 239 640 q 454 682 379 682 q 684 602 589 682 q 913 682 777 682 q 1042 663 983 682 q 1142 611 1100 645 q 1208 528 1185 577 q 1232 417 1232 479 q 1224 357 1232 380 q 1196 321 1215 334 q 1148 304 1177 309 q 1076 300 1118 300 l 795 300 q 861 164 811 214 q 996 115 910 115 m 359 332 q 386 157 359 214 q 467 100 412 100 q 550 159 526 100 q 575 332 575 218 q 549 510 575 452 q 467 567 523 567 q 385 509 410 567 q 359 332 359 452 m 967 400 l 967 412 q 962 476 967 447 q 946 527 956 506 q 921 561 936 549 q 886 573 905 573 q 795 400 811 573 l 967 400 z "},"":{"ha":1072,"x_min":39,"x_max":1065,"o":"m 416 1040 l 518 1291 l 786 1291 l 576 1040 l 416 1040 m 336 0 q 211 -2 278 0 q 64 -7 144 -4 l 64 113 l 177 113 q 181 176 181 132 l 181 764 q 180 800 181 785 q 178 824 179 814 l 39 824 l 39 937 q 267 946 154 943 q 496 949 380 949 q 609 945 553 949 q 715 930 665 941 q 808 900 765 920 q 881 850 850 881 q 930 776 912 820 q 947 672 947 732 q 892 539 947 598 q 726 441 837 480 q 819 387 783 416 q 878 321 854 358 q 918 237 902 284 q 951 131 934 191 l 1065 131 l 1065 -1 q 980 -9 1023 -4 q 893 -14 938 -14 q 793 4 835 -14 q 723 49 752 21 q 675 113 694 77 q 643 187 656 149 q 620 261 630 224 q 598 325 610 297 q 571 371 586 353 q 532 388 555 388 l 474 388 l 474 176 q 475 141 474 157 q 477 113 476 126 l 571 113 l 571 -7 q 447 -2 505 -4 q 336 0 389 0 m 509 501 q 652 667 652 501 q 643 739 652 709 q 615 788 634 769 q 566 815 596 806 q 494 824 536 824 l 474 824 l 474 501 l 509 501 z "},"":{"ha":1072,"x_min":39,"x_max":1065,"o":"m 901 -96 q 1014 -140 975 -96 q 1052 -259 1052 -183 q 1036 -353 1052 -309 q 987 -438 1019 -397 q 907 -517 955 -479 q 798 -594 860 -555 l 734 -531 q 850 -349 812 -456 q 778 -307 805 -340 q 751 -224 751 -275 q 764 -171 751 -195 q 797 -131 776 -147 q 844 -105 817 -114 q 901 -96 871 -96 m 336 0 q 211 -2 278 0 q 64 -7 144 -4 l 64 113 l 177 113 q 181 176 181 132 l 181 764 q 180 800 181 785 q 178 824 179 814 l 39 824 l 39 937 q 267 946 154 943 q 496 949 380 949 q 609 945 553 949 q 715 930 665 941 q 808 900 765 920 q 881 850 850 881 q 930 776 912 820 q 947 672 947 732 q 892 539 947 598 q 726 441 837 480 q 819 387 783 416 q 878 321 854 358 q 918 237 902 284 q 951 131 934 191 l 1065 131 l 1065 -1 q 980 -9 1023 -4 q 893 -14 938 -14 q 793 4 835 -14 q 723 49 752 21 q 675 113 694 77 q 643 187 656 149 q 620 261 630 224 q 598 325 610 297 q 571 371 586 353 q 532 388 555 388 l 474 388 l 474 176 q 475 141 474 157 q 477 113 476 126 l 571 113 l 571 -7 q 447 -2 505 -4 q 336 0 389 0 m 509 501 q 652 667 652 501 q 643 739 652 709 q 615 788 634 769 q 566 815 596 806 q 494 824 536 824 l 474 824 l 474 501 l 509 501 z "},"":{"ha":772,"x_min":28,"x_max":751,"o":"m 302 -90 q 415 -134 376 -90 q 453 -253 453 -177 q 437 -347 453 -303 q 388 -432 420 -391 q 309 -511 356 -473 q 199 -588 261 -549 l 135 -525 q 251 -343 214 -450 q 179 -301 206 -334 q 153 -218 153 -269 q 165 -165 153 -189 q 198 -124 177 -141 q 245 -99 218 -108 q 302 -90 273 -90 m 648 682 q 751 667 705 682 l 738 451 l 597 451 l 581 553 q 527 545 554 553 q 478 524 500 537 q 443 494 456 511 q 429 458 429 477 l 429 175 q 431 131 429 148 q 441 104 433 115 q 468 89 450 94 q 516 79 486 83 l 524 -7 q 358 -2 419 -4 q 275 0 296 0 q 170 -2 222 0 q 64 -7 117 -4 l 68 79 q 110 86 95 83 q 133 97 125 90 q 142 116 140 104 q 144 152 144 129 l 144 559 l 28 559 l 28 642 q 169 666 98 658 q 316 674 240 674 q 355 671 331 674 q 411 663 378 669 l 411 576 q 648 682 505 682 z "},"":{"ha":1072,"x_min":39,"x_max":1065,"o":"m 707 1277 q 741 1261 741 1277 q 739 1246 741 1253 q 733 1232 738 1239 l 722 1214 l 612 1040 l 380 1040 l 275 1206 q 258 1233 266 1219 q 250 1261 250 1246 q 283 1277 250 1277 l 431 1277 l 496 1159 l 567 1277 l 707 1277 m 336 0 q 211 -2 278 0 q 64 -7 144 -4 l 64 113 l 177 113 q 181 176 181 132 l 181 764 q 180 800 181 785 q 178 824 179 814 l 39 824 l 39 937 q 267 946 154 943 q 496 949 380 949 q 609 945 553 949 q 715 930 665 941 q 808 900 765 920 q 881 850 850 881 q 930 776 912 820 q 947 672 947 732 q 892 539 947 598 q 726 441 837 480 q 819 387 783 416 q 878 321 854 358 q 918 237 902 284 q 951 131 934 191 l 1065 131 l 1065 -1 q 980 -9 1023 -4 q 893 -14 938 -14 q 793 4 835 -14 q 723 49 752 21 q 675 113 694 77 q 643 187 656 149 q 620 261 630 224 q 598 325 610 297 q 571 371 586 353 q 532 388 555 388 l 474 388 l 474 176 q 475 141 474 157 q 477 113 476 126 l 571 113 l 571 -7 q 447 -2 505 -4 q 336 0 389 0 m 509 501 q 652 667 652 501 q 643 739 652 709 q 615 788 634 769 q 566 815 596 806 q 494 824 536 824 l 474 824 l 474 501 l 509 501 z "},"":{"ha":772,"x_min":28,"x_max":751,"o":"m 602 1001 q 635 985 635 1001 q 633 970 635 977 q 627 956 632 963 l 616 938 l 506 764 l 274 764 l 170 930 q 152 957 160 943 q 144 985 144 970 q 178 1001 144 1001 l 326 1001 l 390 883 l 461 1001 l 602 1001 m 648 682 q 751 667 705 682 l 738 451 l 597 451 l 581 553 q 527 545 554 553 q 478 524 500 537 q 443 494 456 511 q 429 458 429 477 l 429 175 q 431 131 429 148 q 441 104 433 115 q 468 89 450 94 q 516 79 486 83 l 524 -7 q 358 -2 419 -4 q 275 0 296 0 q 170 -2 222 0 q 64 -7 117 -4 l 68 79 q 110 86 95 83 q 133 97 125 90 q 142 116 140 104 q 144 152 144 129 l 144 559 l 28 559 l 28 642 q 169 666 98 658 q 316 674 240 674 q 355 671 331 674 q 411 663 378 669 l 411 576 q 648 682 505 682 z "},"":{"ha":906,"x_min":41,"x_max":837,"o":"m 694 1277 q 728 1261 728 1277 q 726 1246 727 1253 q 720 1232 724 1239 l 708 1214 l 598 1040 l 366 1040 l 262 1206 q 244 1233 252 1219 q 237 1261 237 1246 q 270 1277 237 1277 l 418 1277 l 482 1159 l 553 1277 l 694 1277 m 432 841 q 396 832 412 841 q 371 808 381 823 q 355 771 360 792 q 350 725 350 749 q 359 670 350 693 q 387 628 368 646 q 434 594 406 610 q 500 564 463 579 q 574 533 536 549 q 651 497 613 517 q 722 454 688 477 q 781 404 755 431 q 822 342 807 376 q 837 270 837 309 q 809 154 837 207 q 730 64 782 102 q 606 6 679 26 q 442 -15 533 -15 q 73 88 220 -15 q 48 110 55 100 q 41 132 41 119 q 42 146 41 138 q 46 163 43 153 l 106 316 l 311 235 q 376 133 342 163 q 448 103 409 103 q 489 114 471 103 q 518 142 507 124 q 536 183 530 160 q 542 232 542 206 q 528 302 542 273 q 488 352 514 331 q 427 391 463 374 q 347 427 391 408 q 220 489 274 458 q 131 552 166 519 q 77 621 95 585 q 59 700 59 657 q 88 806 59 759 q 172 887 117 854 q 306 939 227 921 q 482 958 384 958 q 587 952 536 958 q 678 936 637 947 q 750 909 720 925 q 795 870 780 892 l 753 685 l 547 734 q 491 812 519 783 q 432 841 463 841 z "},"":{"ha":746,"x_min":41,"x_max":691,"o":"m 583 1001 q 617 985 617 1001 q 615 970 616 977 q 609 956 614 963 l 597 938 l 488 764 l 256 764 l 151 930 q 134 957 142 943 q 126 985 126 970 q 159 1001 126 1001 l 307 1001 l 372 883 l 443 1001 l 583 1001 m 384 573 q 333 559 353 573 q 313 516 313 545 q 332 475 313 488 q 386 450 351 461 q 615 340 540 401 q 691 201 691 279 q 665 99 691 140 q 596 32 640 58 q 496 -4 553 7 q 378 -15 440 -15 q 98 35 231 -15 q 65 49 79 42 q 41 63 51 56 l 75 238 l 262 197 l 271 113 q 326 99 296 99 q 379 116 359 99 q 400 161 400 132 q 386 198 400 183 q 347 225 372 213 q 291 249 323 237 q 224 275 259 260 q 149 313 182 292 q 91 359 115 334 q 55 415 67 385 q 42 481 42 445 q 124 630 42 578 q 372 682 205 682 q 657 608 558 682 l 620 449 l 463 473 l 454 564 q 384 573 423 573 z "},"":{"ha":1069,"x_min":0,"x_max":1069,"o":"m 516 1147 q 486 1069 516 1098 q 404 1040 455 1040 q 323 1069 353 1040 q 292 1147 292 1097 q 301 1190 292 1170 q 324 1223 309 1209 q 360 1244 339 1236 q 404 1252 380 1252 q 449 1244 429 1252 q 485 1223 470 1236 q 508 1190 499 1209 q 516 1147 516 1170 m 852 1147 q 821 1069 852 1097 q 740 1040 791 1040 q 659 1069 689 1040 q 628 1147 628 1097 q 636 1190 628 1170 q 660 1223 645 1209 q 695 1244 675 1236 q 740 1252 716 1252 q 785 1244 764 1252 q 820 1223 806 1236 q 843 1190 835 1209 q 852 1147 852 1170 m 399 100 q 402 121 401 109 q 403 147 403 132 l 403 334 l 147 762 q 132 789 138 777 q 122 809 126 801 q 113 820 117 817 q 102 824 109 824 l 16 824 l 0 941 q 248 949 133 949 l 319 949 q 513 941 429 949 l 523 824 l 436 824 q 451 782 446 797 q 458 765 456 768 l 599 510 l 718 762 q 727 788 724 773 q 733 824 730 802 l 627 824 l 651 941 q 846 949 735 949 l 896 949 q 1069 941 976 949 l 1053 824 l 953 824 q 941 803 948 818 q 922 762 934 787 q 916 752 920 760 q 903 728 912 745 q 878 682 894 711 q 838 608 862 653 q 778 498 813 562 q 696 348 743 435 l 696 162 q 697 128 696 144 q 700 100 699 113 l 827 100 l 827 -7 q 685 -2 751 -4 q 558 0 618 0 q 426 -2 496 0 q 273 -7 355 -4 l 273 100 l 399 100 z "},"":{"ha":961,"x_min":58,"x_max":900,"o":"m 731 1277 q 765 1261 765 1277 q 763 1246 764 1253 q 757 1232 762 1239 l 745 1214 l 635 1040 l 404 1040 l 299 1206 q 282 1233 290 1219 q 274 1261 274 1246 q 307 1277 274 1277 l 455 1277 l 519 1159 l 591 1277 l 731 1277 m 58 931 q 301 938 202 936 q 460 941 400 941 l 823 941 q 878 925 859 941 q 897 890 897 910 l 897 804 l 390 122 l 558 122 q 688 132 621 122 q 714 334 714 246 q 768 332 737 334 q 827 329 799 331 q 892 324 859 326 q 896 225 894 272 q 897 185 897 205 q 899 146 898 165 q 900 113 899 128 q 900 88 900 98 q 898 64 900 87 q 893 1 897 41 q 620 0 736 0 q 421 0 504 0 q 284 0 338 0 q 198 0 231 0 q 150 1 165 1 q 127 1 134 1 q 99 7 109 1 q 83 24 89 14 q 77 47 78 35 q 75 70 75 59 l 75 149 l 572 812 l 444 812 q 384 808 420 812 q 296 795 347 804 q 293 774 294 789 q 291 734 292 759 l 291 656 l 85 656 l 58 931 z "},"":{"ha":721,"x_min":25,"x_max":680,"o":"m 530 1001 q 564 985 564 1001 q 562 970 564 977 q 556 956 561 963 l 545 938 l 435 764 l 203 764 l 98 930 q 81 957 89 943 q 73 985 73 970 q 106 1001 73 1001 l 254 1001 l 319 883 l 390 1001 l 530 1001 m 155 0 q 71 6 87 1 q 25 67 25 19 l 25 137 l 408 559 l 208 559 q 189 557 201 559 q 173 550 177 555 q 158 509 163 536 q 153 438 154 481 l 36 431 l 36 667 l 602 667 q 643 663 628 667 q 665 649 658 658 q 675 629 673 641 q 677 603 677 617 l 677 511 l 321 111 l 505 111 q 528 118 518 111 q 547 141 538 125 q 564 182 555 157 q 583 244 572 208 l 680 250 l 680 0 l 155 0 z "},"":{"ha":753,"x_min":25,"x_max":749,"o":"m 732 832 q 660 846 677 846 q 621 834 636 846 q 594 801 605 822 q 577 751 584 780 q 564 689 570 722 l 541 567 l 680 567 l 661 460 l 522 460 l 458 115 q 425 5 446 51 q 370 -71 404 -41 q 285 -114 335 -100 q 164 -128 235 -128 q 97 -126 132 -128 q 25 -121 62 -125 l 39 -15 q 114 -9 85 -15 q 161 14 143 -3 q 190 62 179 31 q 210 142 200 92 l 269 460 l 144 460 l 163 567 l 289 567 l 326 758 q 418 910 345 862 q 619 958 491 958 q 749 931 672 958 l 732 832 z "},"":{"ha":1132,"x_min":5,"x_max":1132,"o":"m 44 1255 q 62 1282 44 1274 q 107 1291 81 1291 l 312 1291 l 414 1040 l 254 1040 l 44 1255 m 385 1255 q 403 1282 385 1274 q 448 1291 421 1291 l 652 1291 l 754 1040 l 595 1040 l 385 1255 m 894 0 q 837 -1 871 0 q 758 -3 804 -2 l 649 -7 l 649 77 q 673 79 662 79 q 693 82 685 80 q 707 89 702 84 q 711 102 711 93 q 711 109 711 106 q 709 117 710 113 l 661 264 l 433 264 l 406 174 q 399 143 401 157 q 397 117 397 129 q 402 101 397 107 q 416 91 408 95 q 437 84 425 87 q 463 80 449 82 l 446 -7 q 357 -2 408 -4 q 237 0 305 0 q 98 -2 155 0 q 5 -7 40 -4 l 31 83 l 48 85 q 85 95 71 89 q 110 110 100 100 q 126 134 119 119 q 141 170 133 149 q 226 394 186 289 q 304 593 267 498 q 375 773 341 687 q 442 941 410 859 l 566 941 q 624 939 597 941 q 672 930 651 937 q 708 913 694 924 q 730 882 723 901 q 823 634 783 742 q 892 445 863 526 q 943 307 922 364 q 979 212 964 250 q 1001 152 993 174 q 1013 119 1009 130 q 1018 104 1017 108 q 1019 100 1019 101 l 1114 87 l 1132 -7 q 963 -2 1022 -4 q 894 0 905 0 m 543 682 l 454 368 l 633 368 q 614 433 625 395 q 592 514 604 471 q 568 600 581 557 q 545 682 556 644 l 543 682 z "},"":{"ha":907,"x_min":-49,"x_max":863,"o":"m -48 979 q -30 1006 -48 998 q 15 1015 -12 1015 l 220 1015 l 321 764 l 162 764 l -48 979 m 292 979 q 311 1006 292 998 q 355 1015 329 1015 l 560 1015 l 662 764 l 503 764 l 292 979 m 453 315 q 371 281 400 315 q 341 191 341 247 q 358 116 341 138 q 398 94 374 94 q 473 130 431 94 l 473 315 l 453 315 m 863 22 q 580 -7 733 -7 q 534 30 554 11 q 498 69 513 50 q 305 -15 418 -15 q 206 -2 251 -15 q 130 36 161 11 q 80 99 98 62 q 62 186 62 137 q 161 343 62 290 q 460 395 259 395 l 473 395 l 473 418 q 466 542 473 503 q 438 580 458 580 q 349 539 399 580 q 243 428 298 499 l 80 532 q 110 594 80 566 q 188 641 140 621 q 295 671 236 661 q 412 682 354 682 q 559 668 494 682 q 667 622 623 654 q 734 537 711 590 q 758 408 758 485 q 757 363 758 389 q 757 306 757 338 l 757 186 q 758 131 757 153 q 760 100 759 110 q 782 99 771 100 q 806 99 793 99 l 863 99 l 863 22 z "},"":{"ha":1132,"x_min":5,"x_max":1132,"o":"m 569 1109 q 507 1040 507 1109 l 291 1040 q 314 1129 291 1093 q 375 1189 336 1166 q 464 1222 413 1212 q 569 1233 514 1233 q 680 1221 629 1233 q 768 1184 730 1208 q 826 1124 805 1160 q 847 1040 847 1088 l 631 1040 q 569 1109 631 1109 m 894 0 q 837 -1 871 0 q 758 -3 804 -2 l 649 -7 l 649 77 q 673 79 662 79 q 693 82 685 80 q 707 89 702 84 q 711 102 711 93 q 711 109 711 106 q 709 117 710 113 l 661 264 l 433 264 l 406 174 q 399 143 401 157 q 397 117 397 129 q 402 101 397 107 q 416 91 408 95 q 437 84 425 87 q 463 80 449 82 l 446 -7 q 357 -2 408 -4 q 237 0 305 0 q 98 -2 155 0 q 5 -7 40 -4 l 31 83 l 48 85 q 85 95 71 89 q 110 110 100 100 q 126 134 119 119 q 141 170 133 149 q 226 394 186 289 q 304 593 267 498 q 375 773 341 687 q 442 941 410 859 l 566 941 q 624 939 597 941 q 672 930 651 937 q 708 913 694 924 q 730 882 723 901 q 823 634 783 742 q 892 445 863 526 q 943 307 922 364 q 979 212 964 250 q 1001 152 993 174 q 1013 119 1009 130 q 1018 104 1017 108 q 1019 100 1019 101 l 1114 87 l 1132 -7 q 963 -2 1022 -4 q 894 0 905 0 m 543 682 l 454 368 l 633 368 q 614 433 625 395 q 592 514 604 471 q 568 600 581 557 q 545 682 556 644 l 543 682 z "},"":{"ha":907,"x_min":62,"x_max":863,"o":"m 412 833 q 350 764 350 833 l 134 764 q 156 853 134 817 q 217 913 179 890 q 306 946 256 936 q 412 957 357 957 q 522 945 471 957 q 610 908 573 932 q 669 848 648 884 q 690 764 690 812 l 473 764 q 412 833 473 833 m 453 315 q 371 281 400 315 q 341 191 341 247 q 358 116 341 138 q 398 94 374 94 q 473 130 431 94 l 473 315 l 453 315 m 863 22 q 580 -7 733 -7 q 534 30 554 11 q 498 69 513 50 q 305 -15 418 -15 q 206 -2 251 -15 q 130 36 161 11 q 80 99 98 62 q 62 186 62 137 q 161 343 62 290 q 460 395 259 395 l 473 395 l 473 418 q 466 542 473 503 q 438 580 458 580 q 349 539 399 580 q 243 428 298 499 l 80 532 q 110 594 80 566 q 188 641 140 621 q 295 671 236 661 q 412 682 354 682 q 559 668 494 682 q 667 622 623 654 q 734 537 711 590 q 758 408 758 485 q 757 363 758 389 q 757 306 757 338 l 757 186 q 758 131 757 153 q 760 100 759 110 q 782 99 771 100 q 806 99 793 99 l 863 99 l 863 22 z "},"":{"ha":992,"x_min":39,"x_max":1156,"o":"m 446 1255 q 464 1282 446 1274 q 509 1291 482 1291 l 713 1291 l 815 1040 l 656 1040 l 446 1255 m 786 1255 q 804 1282 786 1274 q 849 1291 823 1291 l 1054 1291 l 1156 1040 l 996 1040 l 786 1255 m 39 924 q 503 941 290 941 q 649 941 588 941 q 753 941 711 941 q 822 941 795 941 q 865 941 849 941 q 890 941 882 941 q 906 941 899 941 l 943 723 l 792 704 q 782 756 789 731 q 764 804 775 781 q 621 816 679 816 l 473 816 l 473 527 l 591 527 q 611 536 604 527 q 624 560 619 546 q 631 589 628 574 q 637 618 633 605 l 739 618 l 739 323 q 720 322 730 322 q 701 322 711 322 l 637 322 q 626 370 631 351 q 615 400 621 389 q 604 416 610 412 q 591 420 598 420 l 473 420 l 473 113 l 663 113 q 745 122 719 113 q 755 166 750 136 q 767 245 760 196 q 854 243 810 243 q 948 243 897 243 q 945 125 947 184 q 939 9 943 67 q 665 -1 779 -1 q 512 -1 581 -1 q 386 -1 444 -1 q 281 -1 329 -1 q 192 0 233 -1 q 113 0 150 0 q 39 1 75 1 l 39 113 l 179 113 q 181 138 180 125 q 182 166 182 151 l 182 753 q 181 789 182 773 q 179 816 180 804 l 39 816 l 39 924 z "},"":{"ha":851,"x_min":14,"x_max":793,"o":"m 14 979 q 33 1006 14 998 q 77 1015 51 1015 l 282 1015 l 384 764 l 224 764 l 14 979 m 355 979 q 373 1006 355 998 q 418 1015 391 1015 l 623 1015 l 724 764 l 565 764 l 355 979 m 528 400 l 528 412 q 522 476 528 447 q 507 527 517 506 q 481 561 496 549 q 447 573 466 573 q 355 400 372 573 l 528 400 m 557 115 q 747 166 642 115 l 759 64 q 471 -15 648 -15 q 303 8 378 -15 q 175 77 228 32 q 94 188 122 122 q 65 338 65 254 q 94 477 65 414 q 177 585 123 540 q 306 656 231 631 q 474 682 381 682 q 602 663 544 682 q 703 611 661 645 q 769 528 745 577 q 793 417 793 479 q 784 357 793 380 q 757 321 776 334 q 708 304 738 309 q 636 300 679 300 l 356 300 q 421 164 372 214 q 557 115 471 115 z "},"":{"ha":992,"x_min":39,"x_max":948,"o":"m 509 1109 q 448 1040 448 1109 l 231 1040 q 254 1129 231 1093 q 315 1189 277 1166 q 404 1222 353 1212 q 509 1233 454 1233 q 620 1221 569 1233 q 708 1184 671 1208 q 766 1124 745 1160 q 787 1040 787 1088 l 571 1040 q 509 1109 571 1109 m 39 924 q 503 941 290 941 q 649 941 588 941 q 753 941 711 941 q 822 941 795 941 q 865 941 849 941 q 890 941 882 941 q 906 941 899 941 l 943 723 l 792 704 q 782 756 789 731 q 764 804 775 781 q 621 816 679 816 l 473 816 l 473 527 l 591 527 q 611 536 604 527 q 624 560 619 546 q 631 589 628 574 q 637 618 633 605 l 739 618 l 739 323 q 720 322 730 322 q 701 322 711 322 l 637 322 q 626 370 631 351 q 615 400 621 389 q 604 416 610 412 q 591 420 598 420 l 473 420 l 473 113 l 663 113 q 745 122 719 113 q 755 166 750 136 q 767 245 760 196 q 854 243 810 243 q 948 243 897 243 q 945 125 947 184 q 939 9 943 67 q 665 -1 779 -1 q 512 -1 581 -1 q 386 -1 444 -1 q 281 -1 329 -1 q 192 0 233 -1 q 113 0 150 0 q 39 1 75 1 l 39 113 l 179 113 q 181 138 180 125 q 182 166 182 151 l 182 753 q 181 789 182 773 q 179 816 180 804 l 39 816 l 39 924 z "},"":{"ha":851,"x_min":65,"x_max":793,"o":"m 474 833 q 412 764 412 833 l 196 764 q 219 853 196 817 q 280 913 241 890 q 369 946 318 936 q 474 957 419 957 q 585 945 534 957 q 673 908 635 932 q 731 848 710 884 q 752 764 752 812 l 536 764 q 474 833 536 833 m 528 400 l 528 412 q 522 476 528 447 q 507 527 517 506 q 481 561 496 549 q 447 573 466 573 q 355 400 372 573 l 528 400 m 557 115 q 747 166 642 115 l 759 64 q 471 -15 648 -15 q 303 8 378 -15 q 175 77 228 32 q 94 188 122 122 q 65 338 65 254 q 94 477 65 414 q 177 585 123 540 q 306 656 231 631 q 474 682 381 682 q 602 663 544 682 q 703 611 661 645 q 769 528 745 577 q 793 417 793 479 q 784 357 793 380 q 757 321 776 334 q 708 304 738 309 q 636 300 679 300 l 356 300 q 421 164 372 214 q 557 115 471 115 z "},"":{"ha":629,"x_min":-158,"x_max":591,"o":"m -158 1255 q -140 1282 -158 1274 q -95 1291 -121 1291 l 110 1291 l 212 1040 l 52 1040 l -158 1255 m 182 1255 q 201 1282 182 1274 q 245 1291 219 1291 l 450 1291 l 552 1040 l 393 1040 l 182 1255 m 323 0 q 191 -2 262 0 q 39 -7 121 -4 l 39 113 l 165 113 q 169 176 169 132 l 169 762 q 168 798 169 783 q 165 824 167 814 l 39 824 l 39 934 q 178 945 113 941 q 302 949 243 949 q 463 946 392 949 q 591 938 534 943 l 591 824 l 463 824 q 461 797 462 812 q 460 762 460 781 l 460 176 q 461 141 460 157 q 463 113 462 126 l 591 113 l 591 -7 q 448 -2 515 -4 q 323 0 381 0 z "},"":{"ha":489,"x_min":-188,"x_max":530,"o":"m -188 979 q -170 1006 -188 998 q -125 1015 -151 1015 l 80 1015 l 182 764 l 22 764 l -188 979 m 153 979 q 171 1006 153 998 q 216 1015 189 1015 l 420 1015 l 522 764 l 363 764 l 153 979 m 24 644 q 273 674 161 674 q 385 658 345 674 q 425 610 425 642 l 425 162 q 431 100 425 125 l 521 100 l 530 22 q 290 -7 399 -7 q 177 10 218 -7 q 136 64 136 28 q 137 91 136 74 q 138 127 138 109 q 140 164 139 146 q 140 193 140 182 l 140 559 l 24 559 l 24 644 z "},"":{"ha":629,"x_min":24,"x_max":591,"o":"m 302 1109 q 241 1040 241 1109 l 24 1040 q 47 1129 24 1093 q 108 1189 70 1166 q 197 1222 146 1212 q 302 1233 248 1233 q 413 1221 362 1233 q 501 1184 464 1208 q 559 1124 538 1160 q 581 1040 581 1088 l 364 1040 q 302 1109 364 1109 m 323 0 q 191 -2 262 0 q 39 -7 121 -4 l 39 113 l 165 113 q 169 176 169 132 l 169 762 q 168 798 169 783 q 165 824 167 814 l 39 824 l 39 934 q 178 945 113 941 q 302 949 243 949 q 463 946 392 949 q 591 938 534 943 l 591 824 l 463 824 q 461 797 462 812 q 460 762 460 781 l 460 176 q 461 141 460 157 q 463 113 462 126 l 591 113 l 591 -7 q 448 -2 515 -4 q 323 0 381 0 z "},"":{"ha":489,"x_min":-5,"x_max":551,"o":"m 273 833 q 211 764 211 833 l -5 764 q 17 853 -5 817 q 78 913 40 890 q 167 946 117 936 q 273 957 218 957 q 383 945 332 957 q 471 908 434 932 q 530 848 509 884 q 551 764 551 812 l 334 764 q 273 833 334 833 m 24 644 q 273 674 161 674 q 385 658 345 674 q 425 610 425 642 l 425 162 q 431 100 425 125 l 521 100 l 530 22 q 290 -7 399 -7 q 177 10 218 -7 q 136 64 136 28 q 137 91 136 74 q 138 127 138 109 q 140 164 139 146 q 140 193 140 182 l 140 559 l 24 559 l 24 644 z "},"":{"ha":1144,"x_min":77,"x_max":1067,"o":"m 112 1255 q 130 1282 112 1274 q 175 1291 149 1291 l 380 1291 l 481 1040 l 322 1040 l 112 1255 m 452 1255 q 471 1282 452 1274 q 515 1291 489 1291 l 720 1291 l 822 1040 l 663 1040 l 452 1255 m 383 465 q 430 204 383 294 q 572 113 477 113 q 712 200 663 113 q 762 467 762 288 q 713 739 762 648 q 572 829 664 829 q 433 739 483 829 q 383 465 383 649 m 1067 467 q 1033 263 1067 353 q 934 112 998 174 q 778 18 869 50 q 572 -15 686 -15 q 364 19 456 -15 q 208 115 272 52 q 111 266 144 177 q 77 467 77 355 q 111 675 77 584 q 209 829 145 766 q 365 925 273 892 q 572 958 457 958 q 781 924 689 958 q 937 826 873 890 q 1034 672 1000 763 q 1067 467 1067 581 z "},"":{"ha":935,"x_min":7,"x_max":869,"o":"m 7 979 q 26 1006 7 998 q 71 1015 44 1015 l 275 1015 l 377 764 l 218 764 l 7 979 m 348 979 q 366 1006 348 998 q 411 1015 385 1015 l 616 1015 l 718 764 l 558 764 l 348 979 m 869 331 q 835 175 869 240 q 745 67 801 110 q 616 5 689 25 q 468 -15 544 -15 q 305 9 379 -15 q 177 78 231 33 q 95 187 124 123 q 65 331 65 251 q 99 489 65 422 q 190 598 134 555 q 319 661 247 641 q 468 682 391 682 q 631 657 557 682 q 758 587 705 633 q 840 476 810 541 q 869 331 869 412 m 359 332 q 386 157 359 214 q 467 100 412 100 q 550 159 526 100 q 575 332 575 218 q 549 510 575 452 q 467 567 523 567 q 385 509 410 567 q 359 332 359 452 z "},"":{"ha":1144,"x_min":77,"x_max":1067,"o":"m 572 1109 q 511 1040 511 1109 l 294 1040 q 317 1129 294 1093 q 378 1189 340 1166 q 467 1222 416 1212 q 572 1233 517 1233 q 683 1221 632 1233 q 771 1184 734 1208 q 829 1124 808 1160 q 850 1040 850 1088 l 634 1040 q 572 1109 634 1109 m 383 465 q 430 204 383 294 q 572 113 477 113 q 712 200 663 113 q 762 467 762 288 q 713 739 762 648 q 572 829 664 829 q 433 739 483 829 q 383 465 383 649 m 1067 467 q 1033 263 1067 353 q 934 112 998 174 q 778 18 869 50 q 572 -15 686 -15 q 364 19 456 -15 q 208 115 272 52 q 111 266 144 177 q 77 467 77 355 q 111 675 77 584 q 209 829 145 766 q 365 925 273 892 q 572 958 457 958 q 781 924 689 958 q 937 826 873 890 q 1034 672 1000 763 q 1067 467 1067 581 z "},"":{"ha":935,"x_min":65,"x_max":869,"o":"m 468 833 q 406 764 406 833 l 190 764 q 213 853 190 817 q 274 913 235 890 q 362 946 312 936 q 468 957 413 957 q 578 945 528 957 q 667 908 629 932 q 725 848 704 884 q 746 764 746 812 l 530 764 q 468 833 530 833 m 869 331 q 835 175 869 240 q 745 67 801 110 q 616 5 689 25 q 468 -15 544 -15 q 305 9 379 -15 q 177 78 231 33 q 95 187 124 123 q 65 331 65 251 q 99 489 65 422 q 190 598 134 555 q 319 661 247 641 q 468 682 391 682 q 631 657 557 682 q 758 587 705 633 q 840 476 810 541 q 869 331 869 412 m 359 332 q 386 157 359 214 q 467 100 412 100 q 550 159 526 100 q 575 332 575 218 q 549 510 575 452 q 467 567 523 567 q 385 509 410 567 q 359 332 359 452 z "},"":{"ha":1072,"x_min":35,"x_max":1065,"o":"m 36 1255 q 54 1282 36 1274 q 99 1291 73 1291 l 304 1291 l 406 1040 l 246 1040 l 36 1255 m 376 1255 q 395 1282 376 1274 q 439 1291 413 1291 l 644 1291 l 746 1040 l 587 1040 l 376 1255 m 336 0 q 211 -2 278 0 q 64 -7 144 -4 l 64 113 l 177 113 q 181 176 181 132 l 181 764 q 180 800 181 785 q 178 824 179 814 l 39 824 l 39 937 q 267 946 154 943 q 496 949 380 949 q 609 945 553 949 q 715 930 665 941 q 808 900 765 920 q 881 850 850 881 q 930 776 912 820 q 947 672 947 732 q 892 539 947 598 q 726 441 837 480 q 819 387 783 416 q 878 321 854 358 q 918 237 902 284 q 951 131 934 191 l 1065 131 l 1065 -1 q 980 -9 1023 -4 q 893 -14 938 -14 q 793 4 835 -14 q 723 49 752 21 q 675 113 694 77 q 643 187 656 149 q 620 261 630 224 q 598 325 610 297 q 571 371 586 353 q 532 388 555 388 l 474 388 l 474 176 q 475 141 474 157 q 477 113 476 126 l 571 113 l 571 -7 q 447 -2 505 -4 q 336 0 389 0 m 509 501 q 652 667 652 501 q 643 739 652 709 q 615 788 634 769 q 566 815 596 806 q 494 824 536 824 l 474 824 l 474 501 l 509 501 z "},"":{"ha":772,"x_min":-71,"x_max":751,"o":"m -71 979 q -52 1006 -71 998 q -7 1015 -34 1015 l 197 1015 l 299 764 l 140 764 l -71 979 m 270 979 q 288 1006 270 998 q 333 1015 307 1015 l 538 1015 l 640 764 l 480 764 l 270 979 m 648 682 q 751 667 705 682 l 738 451 l 597 451 l 581 553 q 527 545 554 553 q 478 524 500 537 q 443 494 456 511 q 429 458 429 477 l 429 175 q 431 131 429 148 q 441 104 433 115 q 468 89 450 94 q 516 79 486 83 l 524 -7 q 358 -2 419 -4 q 275 0 296 0 q 170 -2 222 0 q 64 -7 117 -4 l 68 79 q 110 86 95 83 q 133 97 125 90 q 142 116 140 104 q 144 152 144 129 l 144 559 l 28 559 l 28 642 q 169 666 98 658 q 316 674 240 674 q 355 671 331 674 q 411 663 378 669 l 411 576 q 648 682 505 682 z "},"":{"ha":1072,"x_min":39,"x_max":1065,"o":"m 496 1109 q 434 1040 434 1109 l 218 1040 q 240 1129 218 1093 q 301 1189 263 1166 q 390 1222 340 1212 q 496 1233 441 1233 q 606 1221 555 1233 q 694 1184 657 1208 q 753 1124 732 1160 q 774 1040 774 1088 l 557 1040 q 496 1109 557 1109 m 336 0 q 211 -2 278 0 q 64 -7 144 -4 l 64 113 l 177 113 q 181 176 181 132 l 181 764 q 180 800 181 785 q 178 824 179 814 l 39 824 l 39 937 q 267 946 154 943 q 496 949 380 949 q 609 945 553 949 q 715 930 665 941 q 808 900 765 920 q 881 850 850 881 q 930 776 912 820 q 947 672 947 732 q 892 539 947 598 q 726 441 837 480 q 819 387 783 416 q 878 321 854 358 q 918 237 902 284 q 951 131 934 191 l 1065 131 l 1065 -1 q 980 -9 1023 -4 q 893 -14 938 -14 q 793 4 835 -14 q 723 49 752 21 q 675 113 694 77 q 643 187 656 149 q 620 261 630 224 q 598 325 610 297 q 571 371 586 353 q 532 388 555 388 l 474 388 l 474 176 q 475 141 474 157 q 477 113 476 126 l 571 113 l 571 -7 q 447 -2 505 -4 q 336 0 389 0 m 509 501 q 652 667 652 501 q 643 739 652 709 q 615 788 634 769 q 566 815 596 806 q 494 824 536 824 l 474 824 l 474 501 l 509 501 z "},"":{"ha":772,"x_min":28,"x_max":751,"o":"m 390 833 q 328 764 328 833 l 112 764 q 135 853 112 817 q 196 913 157 890 q 284 946 234 936 q 390 957 335 957 q 500 945 450 957 q 589 908 551 932 q 647 848 626 884 q 668 764 668 812 l 452 764 q 390 833 452 833 m 648 682 q 751 667 705 682 l 738 451 l 597 451 l 581 553 q 527 545 554 553 q 478 524 500 537 q 443 494 456 511 q 429 458 429 477 l 429 175 q 431 131 429 148 q 441 104 433 115 q 468 89 450 94 q 516 79 486 83 l 524 -7 q 358 -2 419 -4 q 275 0 296 0 q 170 -2 222 0 q 64 -7 117 -4 l 68 79 q 110 86 95 83 q 133 97 125 90 q 142 116 140 104 q 144 152 144 129 l 144 559 l 28 559 l 28 642 q 169 666 98 658 q 316 674 240 674 q 355 671 331 674 q 411 663 378 669 l 411 576 q 648 682 505 682 z "},"":{"ha":1164,"x_min":22,"x_max":1142,"o":"m 138 1255 q 156 1282 138 1274 q 201 1291 174 1291 l 406 1291 l 507 1040 l 348 1040 l 138 1255 m 478 1255 q 496 1282 478 1274 q 541 1291 515 1291 l 746 1291 l 848 1040 l 688 1040 l 478 1255 m 1015 824 q 1012 797 1013 812 q 1011 762 1011 781 l 1011 349 q 976 183 1011 252 q 882 70 941 114 q 743 5 822 26 q 576 -15 664 -15 q 258 85 364 -15 q 153 392 153 185 l 153 762 q 152 798 153 783 q 149 824 151 814 l 22 824 l 22 941 q 302 949 178 949 q 395 948 356 949 q 464 946 435 947 q 515 944 494 945 q 556 941 537 943 l 556 824 l 449 824 q 445 792 446 807 q 444 762 444 777 l 444 346 q 454 250 444 293 q 483 176 464 207 q 530 130 502 146 q 595 113 559 113 q 672 135 642 113 q 719 195 702 157 q 743 283 736 233 q 749 391 749 334 l 749 762 q 748 798 749 783 q 746 824 747 814 l 646 824 l 646 941 q 894 949 762 949 q 981 948 943 949 q 1048 946 1019 947 q 1100 944 1077 945 q 1142 941 1122 943 l 1142 824 l 1015 824 z "},"":{"ha":926,"x_min":-12,"x_max":930,"o":"m -4 979 q 14 1006 -4 998 q 59 1015 33 1015 l 264 1015 l 366 764 l 206 764 l -4 979 m 336 979 q 355 1006 336 998 q 399 1015 373 1015 l 604 1015 l 706 764 l 547 764 l 336 979 m 439 644 q 680 674 570 674 q 734 670 709 674 q 780 659 760 667 q 810 639 799 651 q 821 610 821 627 l 821 184 q 827 100 821 123 l 930 100 l 930 24 q 677 -7 793 -7 q 620 -5 645 -7 q 577 5 595 -3 q 550 30 560 14 q 539 74 541 46 q 312 -15 424 -15 q 221 0 262 -15 q 153 43 181 15 q 109 111 124 71 q 94 201 94 151 l 94 559 l -3 559 l -12 644 q 233 674 123 674 q 339 658 300 674 q 378 610 378 642 l 378 189 q 380 160 378 175 q 385 132 381 144 q 397 110 389 119 q 419 102 405 102 q 450 106 433 102 q 481 118 466 111 q 511 135 497 125 q 534 153 524 144 q 535 168 534 160 q 535 188 535 176 q 536 216 536 199 q 536 256 536 233 q 536 263 536 258 q 536 278 536 267 q 536 307 536 288 q 536 359 536 326 q 536 440 536 392 q 536 559 536 489 l 446 559 l 439 644 z "},"":{"ha":1164,"x_min":22,"x_max":1142,"o":"m 598 1109 q 536 1040 536 1109 l 320 1040 q 343 1129 320 1093 q 404 1189 366 1166 q 493 1222 442 1212 q 598 1233 543 1233 q 709 1221 658 1233 q 797 1184 760 1208 q 855 1124 834 1160 q 876 1040 876 1088 l 660 1040 q 598 1109 660 1109 m 1015 824 q 1012 797 1013 812 q 1011 762 1011 781 l 1011 349 q 976 183 1011 252 q 882 70 941 114 q 743 5 822 26 q 576 -15 664 -15 q 258 85 364 -15 q 153 392 153 185 l 153 762 q 152 798 153 783 q 149 824 151 814 l 22 824 l 22 941 q 302 949 178 949 q 395 948 356 949 q 464 946 435 947 q 515 944 494 945 q 556 941 537 943 l 556 824 l 449 824 q 445 792 446 807 q 444 762 444 777 l 444 346 q 454 250 444 293 q 483 176 464 207 q 530 130 502 146 q 595 113 559 113 q 672 135 642 113 q 719 195 702 157 q 743 283 736 233 q 749 391 749 334 l 749 762 q 748 798 749 783 q 746 824 747 814 l 646 824 l 646 941 q 894 949 762 949 q 981 948 943 949 q 1048 946 1019 947 q 1100 944 1077 945 q 1142 941 1122 943 l 1142 824 l 1015 824 z "},"":{"ha":926,"x_min":-12,"x_max":930,"o":"m 456 833 q 395 764 395 833 l 178 764 q 201 853 178 817 q 262 913 224 890 q 351 946 300 936 q 456 957 401 957 q 567 945 516 957 q 655 908 618 932 q 713 848 692 884 q 734 764 734 812 l 518 764 q 456 833 518 833 m 439 644 q 680 674 570 674 q 734 670 709 674 q 780 659 760 667 q 810 639 799 651 q 821 610 821 627 l 821 184 q 827 100 821 123 l 930 100 l 930 24 q 677 -7 793 -7 q 620 -5 645 -7 q 577 5 595 -3 q 550 30 560 14 q 539 74 541 46 q 312 -15 424 -15 q 221 0 262 -15 q 153 43 181 15 q 109 111 124 71 q 94 201 94 151 l 94 559 l -3 559 l -12 644 q 233 674 123 674 q 339 658 300 674 q 378 610 378 642 l 378 189 q 380 160 378 175 q 385 132 381 144 q 397 110 389 119 q 419 102 405 102 q 450 106 433 102 q 481 118 466 111 q 511 135 497 125 q 534 153 524 144 q 535 168 534 160 q 535 188 535 176 q 536 216 536 199 q 536 256 536 233 q 536 263 536 258 q 536 278 536 267 q 536 307 536 288 q 536 359 536 326 q 536 440 536 392 q 536 559 536 489 l 446 559 l 439 644 z "},"":{"ha":906,"x_min":41,"x_max":837,"o":"m 451 -98 q 563 -141 525 -98 q 602 -260 602 -184 q 585 -355 602 -311 q 537 -439 569 -399 q 457 -518 505 -480 q 347 -595 410 -557 l 283 -532 q 399 -351 362 -457 q 328 -309 355 -341 q 301 -225 301 -276 q 313 -172 301 -196 q 346 -132 326 -149 q 394 -106 367 -115 q 451 -98 421 -98 m 432 841 q 396 832 412 841 q 371 808 381 823 q 355 771 360 792 q 350 725 350 749 q 359 670 350 693 q 387 628 368 646 q 434 594 406 610 q 500 564 463 579 q 574 533 536 549 q 651 497 613 517 q 722 454 688 477 q 781 404 755 431 q 822 342 807 376 q 837 270 837 309 q 809 154 837 207 q 730 64 782 102 q 606 6 679 26 q 442 -15 533 -15 q 73 88 220 -15 q 48 110 55 100 q 41 132 41 119 q 42 146 41 138 q 46 163 43 153 l 106 316 l 311 235 q 376 133 342 163 q 448 103 409 103 q 489 114 471 103 q 518 142 507 124 q 536 183 530 160 q 542 232 542 206 q 528 302 542 273 q 488 352 514 331 q 427 391 463 374 q 347 427 391 408 q 220 489 274 458 q 131 552 166 519 q 77 621 95 585 q 59 700 59 657 q 88 806 59 759 q 172 887 117 854 q 306 939 227 921 q 482 958 384 958 q 587 952 536 958 q 678 936 637 947 q 750 909 720 925 q 795 870 780 892 l 753 685 l 547 734 q 491 812 519 783 q 432 841 463 841 z "},"":{"ha":746,"x_min":41,"x_max":691,"o":"m 387 -98 q 499 -141 461 -98 q 538 -260 538 -184 q 522 -355 538 -311 q 473 -439 505 -399 q 393 -518 441 -480 q 283 -595 346 -557 l 220 -532 q 336 -351 298 -457 q 264 -309 291 -341 q 237 -225 237 -276 q 250 -172 237 -196 q 282 -132 262 -149 q 330 -106 303 -115 q 387 -98 357 -98 m 384 573 q 333 559 353 573 q 313 516 313 545 q 332 475 313 488 q 386 450 351 461 q 615 340 540 401 q 691 201 691 279 q 665 99 691 140 q 596 32 640 58 q 496 -4 553 7 q 378 -15 440 -15 q 98 35 231 -15 q 65 49 79 42 q 41 63 51 56 l 75 238 l 262 197 l 271 113 q 326 99 296 99 q 379 116 359 99 q 400 161 400 132 q 386 198 400 183 q 347 225 372 213 q 291 249 323 237 q 224 275 259 260 q 149 313 182 292 q 91 359 115 334 q 55 415 67 385 q 42 481 42 445 q 124 630 42 578 q 372 682 205 682 q 657 608 558 682 l 620 449 l 463 473 l 454 564 q 384 573 423 573 z "},"":{"ha":981,"x_min":14,"x_max":967,"o":"m 499 -90 q 611 -134 573 -90 q 650 -253 650 -177 q 633 -347 650 -303 q 585 -432 617 -391 q 505 -511 553 -473 q 395 -588 458 -549 l 332 -525 q 448 -343 410 -450 q 376 -301 403 -334 q 349 -218 349 -269 q 361 -165 349 -189 q 394 -124 374 -141 q 442 -99 415 -108 q 499 -90 469 -90 m 498 0 q 366 -2 437 0 q 214 -7 296 -4 l 214 113 l 340 113 q 344 176 344 132 l 344 816 l 171 816 q 157 686 159 726 l 20 686 q 19 735 20 701 q 17 807 18 769 q 15 879 16 845 q 14 928 14 913 q 83 939 34 936 q 202 941 132 941 l 779 941 q 898 939 848 941 q 967 928 947 936 q 967 899 967 918 q 966 856 966 880 q 964 807 965 833 q 962 758 963 781 q 961 715 962 734 q 961 686 961 696 l 824 686 q 823 692 824 686 q 822 707 823 698 q 820 728 821 716 q 817 752 819 740 l 810 817 l 637 817 l 637 176 q 638 141 637 157 q 640 113 639 126 l 768 113 l 768 -7 q 625 -2 692 -4 q 498 0 558 0 z "},"":{"ha":725,"x_min":0,"x_max":697,"o":"m 418 -98 q 531 -141 492 -98 q 569 -260 569 -184 q 553 -355 569 -311 q 504 -439 536 -399 q 425 -518 472 -480 q 315 -595 377 -557 l 251 -532 q 367 -351 330 -457 q 295 -309 322 -341 q 269 -225 269 -276 q 281 -172 269 -196 q 314 -132 293 -149 q 361 -106 334 -115 q 418 -98 389 -98 m 410 -15 q 291 -2 344 -15 q 200 38 237 11 q 143 109 163 66 q 123 211 123 151 l 123 569 l 0 569 l 0 618 q 13 646 0 636 q 46 660 26 655 q 90 665 66 664 q 133 667 113 665 l 149 771 q 152 791 150 781 q 160 814 155 802 l 185 872 l 409 872 l 409 667 l 607 667 l 607 630 q 598 595 607 608 q 575 577 589 583 q 543 570 561 571 q 506 569 525 569 l 409 569 l 409 174 q 452 107 409 107 q 484 116 471 107 q 506 137 497 124 q 521 165 515 151 q 530 194 526 180 l 538 226 l 697 226 l 697 64 q 410 -15 584 -15 z "},"":{"ha":601,"x_min":-5,"x_max":562,"o":"m 160 644 q 288 667 227 659 q 403 674 348 674 q 468 670 439 674 q 518 658 498 666 q 550 638 539 650 q 562 610 562 626 l 562 -8 q 480 -235 562 -160 q 241 -309 399 -309 q -5 -256 68 -309 l 33 -72 l 199 -92 l 212 -189 q 254 -195 237 -195 q 318 -109 318 -195 q 314 -63 318 -87 q 306 -22 311 -39 l 283 58 q 279 81 280 71 q 277 100 277 92 l 277 559 l 160 559 l 160 644 z "},"":{"ha":800,"x_min":154,"x_max":645,"o":"m 187 777 q 154 793 154 777 q 159 814 154 803 q 167 830 163 825 l 283 1014 l 515 1014 l 620 848 q 637 821 629 834 q 645 793 645 808 q 611 777 645 777 l 471 777 l 399 895 l 335 777 l 187 777 z "},"":{"ha":802,"x_min":154,"x_max":645,"o":"m 611 1013 q 645 997 645 1013 q 643 982 644 989 q 637 968 642 975 l 625 950 l 515 777 l 283 777 l 179 942 q 162 969 170 956 q 154 997 154 982 q 187 1013 154 1013 l 335 1013 l 399 895 l 471 1013 l 611 1013 z "},"":{"ha":660,"x_min":73,"x_max":587,"o":"m 73 912 l 587 912 l 587 798 l 73 798 l 73 912 z "},"":{"ha":913,"x_min":178,"x_max":734,"o":"m 456 888 q 517 957 517 888 l 734 957 q 711 868 734 905 q 650 808 688 831 q 561 775 612 785 q 456 764 511 764 q 345 776 396 764 q 257 812 294 788 q 199 872 220 836 q 178 957 178 909 l 394 957 q 456 888 394 888 z "},"":{"ha":535,"x_min":127,"x_max":399,"o":"m 399 896 q 389 842 399 866 q 362 801 380 818 q 319 775 344 785 q 263 766 294 766 q 208 775 233 766 q 164 801 182 785 q 137 842 146 818 q 127 896 127 866 q 138 948 127 924 q 166 988 148 972 q 209 1014 184 1005 q 263 1023 234 1023 q 317 1014 292 1023 q 360 987 342 1004 q 389 946 378 970 q 399 896 399 923 z "},"":{"ha":463,"x_min":64,"x_max":340,"o":"m 121 880 q 143 823 121 844 q 202 802 165 802 q 261 823 239 802 q 283 880 283 844 q 261 936 283 915 q 202 957 239 957 q 143 936 165 957 q 121 880 121 915 m 202 752 q 146 761 172 752 q 102 786 121 770 q 74 827 84 803 q 64 880 64 850 q 74 932 64 909 q 103 972 85 956 q 147 997 121 988 q 202 1006 172 1006 q 257 997 232 1006 q 301 972 283 988 q 330 932 319 956 q 340 880 340 909 q 330 827 340 851 q 302 787 320 804 q 258 761 283 770 q 202 752 233 752 z "},"":{"ha":766,"x_min":211,"x_max":608,"o":"m 405 -269 q 211 -154 211 -269 q 229 -101 211 -129 q 278 -44 247 -73 q 352 14 309 -15 q 444 68 394 42 l 553 22 q 466 -123 466 -51 q 473 -140 466 -136 q 490 -145 480 -145 q 508 -143 498 -145 q 525 -138 517 -141 q 541 -132 534 -135 q 553 -128 549 -130 l 608 -205 q 405 -269 522 -269 z "},"":{"ha":778,"x_min":108,"x_max":648,"o":"m 281 1017 q 354 1004 320 1017 q 425 971 387 991 q 449 959 439 963 q 465 951 458 954 q 476 948 472 949 q 484 947 480 947 q 562 1021 528 947 l 648 981 q 566 869 608 907 q 474 831 525 831 q 404 843 437 831 q 335 875 372 856 q 308 888 319 883 q 290 896 297 893 q 277 900 282 899 q 268 901 272 901 q 227 881 244 901 q 186 829 209 862 l 108 869 q 183 979 140 941 q 281 1017 227 1017 z "},"":{"ha":954,"x_min":127,"x_max":838,"o":"m 127 754 l 229 1005 l 434 1005 q 497 968 494 1005 l 287 755 l 127 754 m 468 755 l 570 1005 l 774 1005 q 838 968 834 1005 l 627 755 l 468 755 z "},"":{"ha":427,"x_min":81,"x_max":352,"o":"m 352 896 q 342 842 352 866 q 315 801 333 818 q 272 775 297 785 q 216 766 247 766 q 161 775 186 766 q 118 801 136 785 q 90 842 100 818 q 81 896 81 866 q 91 948 81 924 q 119 988 101 972 q 162 1014 138 1005 q 216 1023 187 1023 q 271 1014 245 1023 q 314 987 296 1004 q 342 946 332 970 q 352 896 352 923 z "},"":{"ha":954,"x_min":116,"x_max":826,"o":"m 116 1044 q 134 1072 116 1063 q 179 1080 153 1080 l 384 1080 l 486 829 l 326 829 l 116 1044 m 456 1044 q 475 1072 456 1063 q 519 1080 493 1080 l 724 1080 l 826 829 l 667 829 l 456 1044 z "},"":{"ha":654,"x_min":50,"x_max":606,"o":"m 328 950 q 266 881 266 950 l 50 881 q 72 970 50 933 q 133 1029 95 1006 q 222 1063 172 1053 q 328 1074 273 1074 q 438 1061 387 1074 q 526 1025 489 1049 q 585 965 564 1001 q 606 881 606 928 l 389 881 q 328 950 389 950 z "},"":{"ha":382,"x_min":33,"x_max":351,"o":"m 200 -74 q 312 -117 274 -74 q 351 -237 351 -161 q 334 -331 351 -287 q 286 -416 318 -375 q 206 -495 254 -456 q 96 -572 159 -533 l 33 -509 q 149 -327 111 -433 q 77 -285 104 -317 q 50 -201 50 -252 q 62 -149 50 -172 q 95 -108 75 -125 q 143 -83 116 -92 q 200 -74 170 -74 z "},"":{"ha":972,"x_min":68,"x_max":866,"o":"m 68 0 l 68 50 l 427 937 l 498 954 l 866 50 l 866 0 l 68 0 m 429 740 l 172 89 l 688 89 l 429 740 z "},"":{"ha":1122,"x_min":61,"x_max":1006,"o":"m 119 218 l 122 211 q 135 175 128 192 q 152 145 142 158 q 177 125 162 132 q 215 117 193 117 l 324 117 q 172 301 224 203 q 119 517 119 399 q 150 696 119 616 q 236 834 180 777 q 368 922 292 891 q 536 953 445 953 q 709 921 632 953 q 839 833 785 890 q 920 699 892 777 q 948 529 948 621 q 936 427 948 476 q 898 328 924 378 q 831 226 872 278 q 732 117 789 174 l 852 117 q 887 122 873 117 q 910 139 901 127 q 928 171 920 151 q 946 219 937 191 l 1006 219 l 967 0 l 621 0 l 606 41 l 635 92 q 695 199 667 147 q 743 301 723 250 q 775 405 764 353 q 787 511 787 456 q 770 670 787 601 q 719 788 752 740 q 638 861 686 836 q 530 886 590 886 q 425 862 471 886 q 346 792 378 839 q 296 674 313 745 q 279 508 279 603 q 287 412 279 459 q 314 315 295 366 q 362 205 332 264 q 437 73 393 146 l 458 41 l 440 0 l 97 0 l 61 218 l 119 218 z "},"":{"ha":924,"x_min":4,"x_max":945,"o":"m 4 644 q 248 674 139 674 q 355 658 316 674 q 393 610 393 642 l 393 189 q 395 160 394 175 q 401 132 397 144 q 413 110 405 119 q 435 102 420 102 q 465 106 449 102 q 497 118 481 111 q 526 135 513 125 q 549 153 540 144 q 552 204 551 179 q 552 253 552 229 l 552 559 l 462 559 l 454 644 q 695 674 585 674 q 750 670 724 674 q 795 659 776 667 q 826 639 814 651 q 837 610 837 627 l 837 184 q 842 100 837 123 l 945 100 l 945 24 q 692 -7 808 -7 q 635 -5 661 -7 q 593 5 610 -3 q 566 30 576 14 q 555 74 556 46 q 352 -14 455 -4 l 352 -49 q 382 -148 352 -113 q 471 -199 413 -182 q 474 -231 473 -220 q 475 -243 475 -241 l 475 -249 q 286 -308 391 -308 q 155 -278 201 -308 q 109 -177 109 -248 l 109 559 l 13 559 l 4 644 z "},"":{"ha":928,"x_min":11,"x_max":922,"o":"m 209 500 q 173 478 192 491 q 144 458 155 466 l 77 407 l 11 517 q 65 578 38 550 q 128 625 93 606 q 210 656 163 645 q 326 667 258 667 l 922 667 l 922 524 l 774 524 q 771 479 772 506 q 769 419 770 452 q 768 348 768 386 q 767 270 767 309 q 770 212 767 229 q 783 194 773 194 q 804 203 791 194 q 836 231 817 213 l 917 102 q 833 16 884 47 q 703 -15 783 -15 q 614 -3 649 -15 q 558 33 579 8 q 530 95 538 57 q 522 186 522 133 q 525 337 522 254 q 535 524 528 421 l 433 524 q 389 170 433 326 q 354 73 372 108 q 328 28 336 38 q 98 -27 227 -9 l 79 26 q 209 500 197 168 z "},"":{"ha":694,"x_min":-7,"x_max":767,"o":"m 767 382 q 749 336 767 353 q 699 319 730 319 l -7 319 l -7 376 q 1 409 -7 397 q 24 428 8 421 q 64 436 40 434 q 121 438 88 438 l 767 438 l 767 382 z "},"":{"ha":1232,"x_min":-7,"x_max":1238,"o":"m 1238 382 q 1214 335 1238 351 q 1151 319 1190 319 l -7 319 l -7 376 q 1 409 -7 397 q 24 428 8 421 q 64 436 40 434 q 121 438 88 438 l 1238 438 l 1238 382 z "},"":{"ha":458,"x_min":78,"x_max":396,"o":"m 229 460 q 116 503 155 460 q 78 623 78 547 q 94 716 78 672 q 142 800 111 760 q 222 880 174 841 q 332 958 269 918 l 396 895 q 280 713 317 819 q 352 671 325 703 q 378 587 378 638 q 366 534 378 557 q 333 494 354 511 q 286 469 313 477 q 229 460 258 460 z "},"":{"ha":458,"x_min":62,"x_max":380,"o":"m 230 958 q 342 914 304 958 q 380 795 380 871 q 364 702 380 745 q 316 617 348 658 q 237 538 284 576 q 126 460 189 499 l 62 523 q 178 705 141 598 q 107 747 134 714 q 80 830 80 779 q 92 883 80 859 q 125 923 104 907 q 173 949 146 940 q 230 958 200 958 z "},"":{"ha":477,"x_min":62,"x_max":380,"o":"m 230 243 q 342 199 304 243 q 380 80 380 156 q 364 -13 380 31 q 316 -98 348 -57 q 237 -177 284 -138 q 126 -255 189 -216 l 62 -192 q 178 -10 141 -117 q 107 32 134 -1 q 80 115 80 64 q 92 168 80 144 q 125 209 104 192 q 173 234 146 225 q 230 243 200 243 z "},"":{"ha":829,"x_min":78,"x_max":767,"o":"m 600 460 q 487 503 526 460 q 449 623 449 547 q 465 716 449 672 q 513 800 481 760 q 593 880 545 841 q 703 958 640 918 l 767 895 q 651 713 688 819 q 723 671 696 703 q 749 587 749 638 q 737 534 749 557 q 704 494 725 511 q 656 469 684 477 q 600 460 629 460 m 229 460 q 116 503 155 460 q 78 623 78 547 q 94 716 78 672 q 142 800 111 760 q 222 880 174 841 q 332 958 269 918 l 396 895 q 280 713 317 819 q 352 671 325 703 q 378 587 378 638 q 366 534 378 557 q 333 494 354 511 q 286 469 313 477 q 229 460 258 460 z "},"":{"ha":829,"x_min":62,"x_max":751,"o":"m 230 958 q 342 914 304 958 q 380 795 380 871 q 364 702 380 745 q 316 617 348 658 q 237 538 284 576 q 126 460 189 499 l 62 523 q 178 705 141 598 q 107 747 134 714 q 80 830 80 779 q 92 883 80 859 q 125 923 104 907 q 173 949 146 940 q 230 958 200 958 m 601 958 q 713 914 675 958 q 751 795 751 871 q 735 702 751 745 q 687 617 719 658 q 608 538 655 576 q 497 460 560 499 l 433 523 q 549 705 512 598 q 478 747 505 714 q 451 830 451 779 q 463 883 451 859 q 496 923 475 907 q 544 949 517 940 q 601 958 571 958 z "},"":{"ha":831,"x_min":62,"x_max":734,"o":"m 230 243 q 342 199 304 243 q 380 80 380 156 q 364 -13 380 31 q 316 -98 348 -57 q 237 -177 284 -138 q 126 -255 189 -216 l 62 -192 q 178 -10 141 -117 q 107 32 134 -1 q 80 115 80 64 q 92 168 80 144 q 125 209 104 192 q 173 234 146 225 q 230 243 200 243 m 583 243 q 695 199 657 243 q 734 80 734 156 q 718 -13 734 31 q 669 -98 701 -57 q 590 -177 637 -138 q 479 -255 543 -216 l 416 -192 q 532 -10 494 -117 q 460 32 487 -1 q 433 115 433 64 q 446 168 433 144 q 478 209 458 192 q 526 234 499 225 q 583 243 553 243 z "},"":{"ha":664,"x_min":49,"x_max":585,"o":"m 49 722 l 252 722 l 252 930 l 384 930 l 384 722 l 585 722 l 585 623 l 384 623 l 384 0 l 252 0 l 252 623 l 49 623 l 49 722 z "},"":{"ha":664,"x_min":49,"x_max":585,"o":"m 49 747 l 252 747 l 252 930 l 384 930 l 384 747 l 585 747 l 585 648 l 384 648 l 384 282 l 585 282 l 585 182 l 384 182 l 384 0 l 252 0 l 252 182 l 49 182 l 49 282 l 252 282 l 252 648 l 49 648 l 49 747 z "},"":{"ha":633,"x_min":78,"x_max":556,"o":"m 317 214 q 221 228 265 214 q 145 268 177 242 q 96 330 113 294 q 78 412 78 367 q 97 495 78 458 q 148 557 115 532 q 223 597 180 583 q 317 610 267 610 q 414 596 370 610 q 489 556 458 582 q 538 494 521 530 q 556 412 556 457 q 538 329 556 366 q 487 267 519 292 q 411 227 455 241 q 317 214 368 214 z "},"":{"ha":1267,"x_min":97,"x_max":1223,"o":"m 368 115 q 359 61 368 85 q 331 20 349 37 q 288 -6 313 3 q 233 -15 263 -15 q 177 -6 202 -15 q 134 20 152 3 q 106 61 116 37 q 97 115 97 85 q 107 167 97 143 q 136 207 117 191 q 179 233 154 224 q 233 242 203 242 q 287 232 262 242 q 330 205 312 222 q 358 165 348 189 q 368 115 368 142 m 795 115 q 786 61 795 85 q 759 20 777 37 q 715 -6 741 3 q 660 -15 690 -15 q 604 -6 629 -15 q 561 20 579 3 q 534 61 543 37 q 524 115 524 85 q 534 167 524 143 q 563 207 545 191 q 606 233 581 224 q 660 242 631 242 q 714 232 689 242 q 757 205 739 222 q 785 165 775 189 q 795 115 795 142 m 1223 115 q 1213 61 1223 85 q 1186 20 1204 37 q 1143 -6 1168 3 q 1087 -15 1118 -15 q 1031 -6 1057 -15 q 988 20 1006 3 q 961 61 970 37 q 951 115 951 85 q 962 167 951 143 q 990 207 972 191 q 1033 233 1008 224 q 1087 242 1058 242 q 1144 232 1118 242 q 1186 204 1169 222 q 1213 163 1204 186 q 1223 115 1223 140 z "},"":{"ha":490,"x_min":91,"x_max":401,"o":"m 390 87 q 316 45 361 63 l 91 318 l 91 395 l 320 690 q 371 669 351 678 q 401 654 391 661 q 383 611 395 638 q 353 546 371 583 q 311 463 334 509 q 260 366 288 417 q 332 214 300 282 q 390 87 364 145 z "},"":{"ha":490,"x_min":90,"x_max":401,"o":"m 90 654 q 120 669 100 661 q 171 690 140 678 l 401 395 l 401 318 l 175 45 q 101 87 132 61 q 159 214 127 145 q 231 366 191 282 q 134 553 169 482 q 90 654 100 623 z "},"":{"ha":205,"x_min":-258,"x_max":464,"o":"m 347 979 q 464 944 442 979 q 458 937 463 944 q 450 923 454 929 q 335 694 402 828 q 181 388 269 561 l -40 -50 l -142 -50 q -258 -14 -240 -50 q -245 11 -255 -6 q -219 54 -235 28 l -222 53 l 246 979 l 347 979 z "},"":{"ha":555,"x_min":22,"x_max":600,"o":"m 286 529 l 286 702 l 172 529 l 286 529 m 283 361 q 285 379 284 368 q 286 405 286 390 l 286 448 l 65 448 l 43 486 q 30 520 37 498 q 22 566 22 543 l 279 941 l 397 941 q 427 941 412 941 q 452 936 441 940 q 471 922 464 931 q 478 895 478 912 l 478 529 l 600 529 l 600 493 q 594 467 600 476 q 578 453 588 458 q 554 448 568 449 q 526 448 541 448 l 478 448 l 478 405 q 479 379 478 390 q 481 361 479 368 l 570 361 l 570 277 q 471 281 515 279 q 392 282 427 282 q 309 281 357 282 q 194 277 260 279 l 194 361 l 283 361 z "},"":{"ha":1080,"x_min":37,"x_max":1057,"o":"m 689 107 q 790 115 743 107 q 879 138 837 123 q 960 170 921 152 q 1040 209 1000 189 l 1057 76 q 671 -24 886 -24 q 495 -1 575 -24 q 354 64 415 22 q 252 169 293 107 q 193 311 211 231 l 37 311 l 53 378 q 64 402 56 393 q 84 416 72 411 q 115 421 97 420 q 156 422 132 422 l 177 422 l 177 463 q 177 470 177 466 q 178 477 177 474 l 52 477 l 67 544 q 81 570 71 561 q 105 584 91 579 q 135 589 119 588 q 170 589 152 589 l 191 589 q 249 746 208 677 q 352 862 290 815 q 499 933 415 909 q 686 958 583 958 q 780 952 733 958 q 873 936 827 947 q 962 907 919 924 q 1042 867 1004 890 l 1027 680 l 804 680 l 785 726 q 768 765 778 745 q 747 802 759 785 q 719 829 734 819 q 684 840 703 840 q 602 818 635 840 q 545 761 568 796 q 510 681 523 726 q 492 589 498 635 l 806 589 l 789 523 q 668 477 777 477 l 484 477 l 484 449 q 485 436 484 442 q 486 422 485 429 l 772 422 l 759 378 q 747 345 753 357 q 728 324 741 332 q 692 314 715 317 q 631 311 670 311 l 500 311 q 567 158 521 209 q 689 107 614 107 z "},"":{"ha":1381,"x_min":37,"x_max":1323,"o":"m 1122 949 q 1282 943 1190 949 l 1282 884 l 1213 884 q 1215 859 1213 878 q 1219 812 1217 840 q 1225 751 1222 785 q 1232 685 1229 718 q 1251 509 1240 606 l 1317 509 l 1323 444 q 1255 448 1291 447 q 1179 450 1220 450 q 1050 446 1114 450 l 1054 509 l 1095 509 l 1076 720 q 1029 556 1049 623 q 998 450 1010 490 l 866 450 l 771 721 q 759 610 764 651 q 752 547 754 568 q 749 511 749 521 q 757 510 749 510 q 777 509 763 509 q 816 509 790 509 l 810 446 q 697 450 747 450 q 634 448 667 450 q 564 444 601 447 l 571 509 l 637 509 q 648 584 642 536 q 660 692 653 625 q 675 861 666 760 q 675 878 675 874 q 674 884 675 882 l 602 884 l 602 943 q 761 949 693 949 q 844 941 814 949 l 941 656 q 964 724 951 684 q 990 804 977 763 q 1017 881 1004 844 q 1039 941 1029 918 q 1122 949 1069 949 m 211 509 q 214 542 214 517 l 214 883 l 121 883 q 113 813 120 879 l 41 813 q 40 840 41 822 q 39 878 39 858 q 38 916 39 898 q 37 943 37 934 q 138 949 54 949 l 445 949 q 545 943 529 949 q 545 916 545 934 q 544 878 544 898 q 543 840 543 858 q 542 813 542 822 l 469 813 q 464 865 466 848 q 462 884 462 883 q 448 883 455 883 q 433 883 440 883 l 370 883 l 370 542 q 370 522 370 530 q 371 509 370 514 l 439 509 l 439 444 q 296 448 350 448 q 144 444 238 448 l 144 509 l 211 509 z "},"":{"ha":1261,"x_min":69,"x_max":1215,"o":"m 642 43 q 718 55 682 43 q 787 85 753 66 q 850 132 820 105 q 908 192 880 159 l 1119 192 q 1026 104 1078 143 q 913 37 974 64 q 784 -5 852 9 q 642 -20 715 -20 q 499 -5 569 -20 q 365 39 429 10 q 247 108 301 67 q 153 200 193 149 q 92 313 114 252 q 69 444 69 374 q 93 579 69 516 q 157 693 116 642 q 253 785 198 745 q 372 853 309 825 q 505 895 435 881 q 642 909 574 909 q 798 892 724 909 q 936 844 872 875 q 1051 770 1000 813 q 1139 676 1103 728 q 1195 565 1175 624 q 1215 444 1215 507 l 1215 413 l 404 413 l 404 159 q 642 43 522 43 m 878 475 l 878 734 q 642 845 760 845 q 404 730 523 845 l 404 475 l 878 475 z "},"":{"ha":829,"x_min":65,"x_max":781,"o":"m 536 611 q 533 659 536 631 q 524 716 530 686 q 506 775 517 746 q 480 828 496 805 q 444 866 465 852 q 395 881 422 881 q 305 866 361 881 q 163 813 250 850 l 114 919 q 374 997 235 997 q 502 978 444 997 q 605 924 559 958 q 684 844 650 890 q 739 743 717 798 q 771 630 760 689 q 781 510 781 570 q 770 378 781 443 q 736 254 759 313 q 681 145 714 195 q 602 59 647 96 q 502 2 557 22 q 379 -18 446 -18 q 251 0 309 -18 q 151 54 193 19 q 87 140 110 90 q 65 255 65 191 q 74 325 65 288 q 102 397 83 361 q 151 466 121 433 q 220 523 180 498 q 311 562 260 547 q 425 576 361 576 q 534 562 484 576 q 535 586 535 574 q 536 611 536 598 m 328 203 q 332 147 328 174 q 341 101 335 121 q 357 71 348 82 q 379 60 367 60 q 427 79 406 60 q 464 129 448 98 q 491 199 480 160 q 510 276 503 237 q 520 349 517 314 q 523 406 523 383 q 506 437 515 422 q 488 464 497 452 q 470 481 479 475 q 453 488 461 488 q 407 475 427 488 q 374 439 388 462 q 351 388 360 417 q 337 327 342 359 q 330 263 332 296 q 328 203 328 231 z "}}}
